<?xml version="1.0" encoding="utf-8"?>
<!-- Generator: Adobe Illustrator 17.1.0, SVG Export Plug-In . SVG Version: 6.00 Build 0)  -->
<!DOCTYPE svg PUBLIC "-//W3C//DTD SVG 1.1//EN" "http://www.w3.org/Graphics/SVG/1.1/DTD/svg11.dtd">
<svg version="1.1" xmlns="http://www.w3.org/2000/svg" xmlns:xlink="http://www.w3.org/1999/xlink" x="0px" y="0px"
	 viewBox="0 0 32 32" enable-background="new 0 0 32 32" xml:space="preserve">
<g id="line" display="none">
	<g display="inline">
		<g>
			<g>
				<g>
					<path fill="#FFFFFF" d="M28.711,15.863c-0.193-0.53-0.466-0.992-0.819-1.385c-0.354-0.393-0.787-0.702-1.301-0.927
						c-0.514-0.225-1.093-0.337-1.735-0.337c-0.514,0-0.992,0.081-1.434,0.241c-0.442,0.161-0.852,0.373-1.229,0.638
						c-0.378,0.265-0.731,0.574-1.06,0.928c-0.329,0.353-0.647,0.715-0.952,1.084c-0.322-0.385-0.647-0.751-0.976-1.096
						c-0.329-0.345-0.683-0.65-1.06-0.915c-0.378-0.265-0.787-0.478-1.229-0.638c-0.442-0.16-0.928-0.241-1.458-0.241
						c-0.643,0-1.221,0.117-1.735,0.349c-0.514,0.233-0.948,0.546-1.301,0.94c-0.35,0.39-0.616,0.851-0.8,1.382
						c-0.155-0.356-0.338-0.687-0.579-0.968c-0.318-0.37-0.709-0.665-1.171-0.885c-0.463-0.22-0.995-0.33-1.596-0.33
						c-0.486,0-0.92,0.072-1.301,0.217c-0.382,0.145-0.74,0.385-1.076,0.72l-0.035-0.035l0.486-2.758h5.014v-2.03H4.579
						l-1.197,6.713h2.221c0.243-0.335,0.503-0.581,0.781-0.737c0.278-0.156,0.636-0.234,1.076-0.234c0.335,0,0.63,0.058,0.885,0.173
						c0.254,0.116,0.474,0.278,0.659,0.486c0.185,0.208,0.324,0.451,0.416,0.728c0.092,0.278,0.139,0.572,0.139,0.885
						c0,0.301-0.049,0.593-0.147,0.876c-0.098,0.283-0.237,0.532-0.416,0.746c-0.179,0.214-0.399,0.388-0.659,0.52
						c-0.26,0.133-0.553,0.199-0.876,0.199c-0.555,0-1.012-0.165-1.371-0.494c-0.359-0.33-0.567-0.772-0.625-1.327H3
						c0.011,0.636,0.141,1.194,0.39,1.674c0.249,0.48,0.581,0.882,0.998,1.206c0.416,0.324,0.894,0.564,1.431,0.72
						c0.538,0.156,1.102,0.234,1.692,0.234c0.613,0.011,1.191-0.09,1.735-0.304c0.544-0.214,1.021-0.517,1.431-0.911
						c0.41-0.393,0.737-0.859,0.98-1.396c0.009-0.019,0.011-0.04,0.019-0.059c0.191,0.497,0.449,0.935,0.792,1.3
						c0.369,0.394,0.811,0.707,1.325,0.94c0.514,0.233,1.1,0.349,1.759,0.349c0.53,0,1.008-0.076,1.434-0.229
						c0.425-0.152,0.819-0.353,1.181-0.602c0.361-0.249,0.703-0.538,1.024-0.867c0.321-0.329,0.651-0.67,0.988-1.024
						c0.305,0.353,0.627,0.695,0.964,1.024c0.337,0.329,0.695,0.618,1.072,0.867c0.377,0.249,0.783,0.45,1.217,0.602
						c0.434,0.153,0.9,0.229,1.398,0.229c0.642,0,1.225-0.116,1.747-0.349c0.522-0.233,0.96-0.554,1.313-0.964
						c0.353-0.41,0.627-0.887,0.819-1.433C28.904,18.81,29,18.224,29,17.597C29,16.971,28.904,16.393,28.711,15.863z M18.084,18.404
						c-0.241,0.233-0.498,0.442-0.771,0.626c-0.273,0.185-0.563,0.337-0.868,0.458c-0.305,0.12-0.611,0.181-0.916,0.181
						c-0.595,0-1.06-0.184-1.398-0.554c-0.337-0.369-0.506-0.843-0.506-1.421c0-0.53,0.165-1.008,0.494-1.433
						c0.329-0.425,0.775-0.638,1.337-0.638c0.305,0,0.61,0.069,0.916,0.205c0.305,0.137,0.598,0.309,0.88,0.518
						c0.281,0.209,0.55,0.438,0.807,0.687c0.257,0.249,0.482,0.478,0.675,0.687C18.542,17.943,18.325,18.172,18.084,18.404z
						 M26.253,19.091c-0.322,0.385-0.779,0.578-1.374,0.578c-0.337,0-0.655-0.056-0.952-0.169c-0.297-0.112-0.582-0.261-0.855-0.446
						c-0.273-0.184-0.53-0.393-0.771-0.626c-0.241-0.233-0.466-0.47-0.675-0.711c0.193-0.209,0.41-0.437,0.651-0.687
						c0.241-0.249,0.494-0.478,0.759-0.687c0.265-0.209,0.546-0.381,0.843-0.518c0.297-0.136,0.606-0.205,0.928-0.205
						c0.594,0,1.064,0.201,1.41,0.602c0.345,0.402,0.518,0.883,0.518,1.446C26.735,18.232,26.574,18.706,26.253,19.091z"/>
				</g>
				<g>
					<path fill="none" stroke="#000000" stroke-width="4" stroke-linejoin="round" stroke-miterlimit="10" d="M28.711,15.863
						c-0.193-0.53-0.466-0.992-0.819-1.385c-0.354-0.393-0.787-0.702-1.301-0.927c-0.514-0.225-1.093-0.337-1.735-0.337
						c-0.514,0-0.992,0.081-1.434,0.241c-0.442,0.161-0.852,0.373-1.229,0.638c-0.378,0.265-0.731,0.574-1.06,0.928
						c-0.329,0.353-0.647,0.715-0.952,1.084c-0.322-0.385-0.647-0.751-0.976-1.096c-0.329-0.345-0.683-0.65-1.06-0.915
						c-0.378-0.265-0.787-0.478-1.229-0.638c-0.442-0.16-0.928-0.241-1.458-0.241c-0.643,0-1.221,0.117-1.735,0.349
						c-0.514,0.233-0.948,0.546-1.301,0.94c-0.35,0.39-0.616,0.851-0.8,1.382c-0.155-0.356-0.338-0.687-0.579-0.968
						c-0.318-0.37-0.709-0.665-1.171-0.885c-0.463-0.22-0.995-0.33-1.596-0.33c-0.486,0-0.92,0.072-1.301,0.217
						c-0.382,0.145-0.74,0.385-1.076,0.72l-0.035-0.035l0.486-2.758h5.014v-2.03H4.579l-1.197,6.713h2.221
						c0.243-0.335,0.503-0.581,0.781-0.737c0.278-0.156,0.636-0.234,1.076-0.234c0.335,0,0.63,0.058,0.885,0.173
						c0.254,0.116,0.474,0.278,0.659,0.486c0.185,0.208,0.324,0.451,0.416,0.728c0.092,0.278,0.139,0.572,0.139,0.885
						c0,0.301-0.049,0.593-0.147,0.876c-0.098,0.283-0.237,0.532-0.416,0.746c-0.179,0.214-0.399,0.388-0.659,0.52
						c-0.26,0.133-0.553,0.199-0.876,0.199c-0.555,0-1.012-0.165-1.371-0.494c-0.359-0.33-0.567-0.772-0.625-1.327H3
						c0.011,0.636,0.141,1.194,0.39,1.674c0.249,0.48,0.581,0.882,0.998,1.206c0.416,0.324,0.894,0.564,1.431,0.72
						c0.538,0.156,1.102,0.234,1.692,0.234c0.613,0.011,1.191-0.09,1.735-0.304c0.544-0.214,1.021-0.517,1.431-0.911
						c0.41-0.393,0.737-0.859,0.98-1.396c0.009-0.019,0.011-0.04,0.019-0.059c0.191,0.497,0.449,0.935,0.792,1.3
						c0.369,0.394,0.811,0.707,1.325,0.94c0.514,0.233,1.1,0.349,1.759,0.349c0.53,0,1.008-0.076,1.434-0.229
						c0.425-0.152,0.819-0.353,1.181-0.602c0.361-0.249,0.703-0.538,1.024-0.867c0.321-0.329,0.651-0.67,0.988-1.024
						c0.305,0.353,0.627,0.695,0.964,1.024c0.337,0.329,0.695,0.618,1.072,0.867c0.377,0.249,0.783,0.45,1.217,0.602
						c0.434,0.153,0.9,0.229,1.398,0.229c0.642,0,1.225-0.116,1.747-0.349c0.522-0.233,0.96-0.554,1.313-0.964
						c0.353-0.41,0.627-0.887,0.819-1.433C28.904,18.81,29,18.224,29,17.597C29,16.971,28.904,16.393,28.711,15.863z M18.084,18.404
						c-0.241,0.233-0.498,0.442-0.771,0.626c-0.273,0.185-0.563,0.337-0.868,0.458c-0.305,0.12-0.611,0.181-0.916,0.181
						c-0.595,0-1.06-0.184-1.398-0.554c-0.337-0.369-0.506-0.843-0.506-1.421c0-0.53,0.165-1.008,0.494-1.433
						c0.329-0.425,0.775-0.638,1.337-0.638c0.305,0,0.61,0.069,0.916,0.205c0.305,0.137,0.598,0.309,0.88,0.518
						c0.281,0.209,0.55,0.438,0.807,0.687c0.257,0.249,0.482,0.478,0.675,0.687C18.542,17.943,18.325,18.172,18.084,18.404z
						 M26.253,19.091c-0.322,0.385-0.779,0.578-1.374,0.578c-0.337,0-0.655-0.056-0.952-0.169c-0.297-0.112-0.582-0.261-0.855-0.446
						c-0.273-0.184-0.53-0.393-0.771-0.626c-0.241-0.233-0.466-0.47-0.675-0.711c0.193-0.209,0.41-0.437,0.651-0.687
						c0.241-0.249,0.494-0.478,0.759-0.687c0.265-0.209,0.546-0.381,0.843-0.518c0.297-0.136,0.606-0.205,0.928-0.205
						c0.594,0,1.064,0.201,1.41,0.602c0.345,0.402,0.518,0.883,0.518,1.446C26.735,18.232,26.574,18.706,26.253,19.091z"/>
				</g>
			</g>
		</g>
		<g>
			<g>
				<g>
					<path fill="#FFFFFF" d="M28.711,15.863c-0.193-0.53-0.466-0.992-0.819-1.385c-0.354-0.393-0.787-0.702-1.301-0.927
						c-0.514-0.225-1.093-0.337-1.735-0.337c-0.514,0-0.992,0.081-1.434,0.241c-0.442,0.161-0.852,0.373-1.229,0.638
						c-0.378,0.265-0.731,0.574-1.06,0.928c-0.329,0.353-0.647,0.715-0.952,1.084c-0.322-0.385-0.647-0.751-0.976-1.096
						c-0.329-0.345-0.683-0.65-1.06-0.915c-0.378-0.265-0.787-0.478-1.229-0.638c-0.442-0.16-0.928-0.241-1.458-0.241
						c-0.643,0-1.221,0.117-1.735,0.349c-0.514,0.233-0.948,0.546-1.301,0.94c-0.35,0.39-0.616,0.851-0.8,1.382
						c-0.155-0.356-0.338-0.687-0.579-0.968c-0.318-0.37-0.709-0.665-1.171-0.885c-0.463-0.22-0.995-0.33-1.596-0.33
						c-0.486,0-0.92,0.072-1.301,0.217c-0.382,0.145-0.74,0.385-1.076,0.72l-0.035-0.035l0.486-2.758h5.014v-2.03H4.579
						l-1.197,6.713h2.221c0.243-0.335,0.503-0.581,0.781-0.737c0.278-0.156,0.636-0.234,1.076-0.234c0.335,0,0.63,0.058,0.885,0.173
						c0.254,0.116,0.474,0.278,0.659,0.486c0.185,0.208,0.324,0.451,0.416,0.728c0.092,0.278,0.139,0.572,0.139,0.885
						c0,0.301-0.049,0.593-0.147,0.876c-0.098,0.283-0.237,0.532-0.416,0.746c-0.179,0.214-0.399,0.388-0.659,0.52
						c-0.26,0.133-0.553,0.199-0.876,0.199c-0.555,0-1.012-0.165-1.371-0.494c-0.359-0.33-0.567-0.772-0.625-1.327H3
						c0.011,0.636,0.141,1.194,0.39,1.674c0.249,0.48,0.581,0.882,0.998,1.206c0.416,0.324,0.894,0.564,1.431,0.72
						c0.538,0.156,1.102,0.234,1.692,0.234c0.613,0.011,1.191-0.09,1.735-0.304c0.544-0.214,1.021-0.517,1.431-0.911
						c0.41-0.393,0.737-0.859,0.98-1.396c0.009-0.019,0.011-0.04,0.019-0.059c0.191,0.497,0.449,0.935,0.792,1.3
						c0.369,0.394,0.811,0.707,1.325,0.94c0.514,0.233,1.1,0.349,1.759,0.349c0.53,0,1.008-0.076,1.434-0.229
						c0.425-0.152,0.819-0.353,1.181-0.602c0.361-0.249,0.703-0.538,1.024-0.867c0.321-0.329,0.651-0.67,0.988-1.024
						c0.305,0.353,0.627,0.695,0.964,1.024c0.337,0.329,0.695,0.618,1.072,0.867c0.377,0.249,0.783,0.45,1.217,0.602
						c0.434,0.153,0.9,0.229,1.398,0.229c0.642,0,1.225-0.116,1.747-0.349c0.522-0.233,0.96-0.554,1.313-0.964
						c0.353-0.41,0.627-0.887,0.819-1.433C28.904,18.81,29,18.224,29,17.597C29,16.971,28.904,16.393,28.711,15.863z M18.084,18.404
						c-0.241,0.233-0.498,0.442-0.771,0.626c-0.273,0.185-0.563,0.337-0.868,0.458c-0.305,0.12-0.611,0.181-0.916,0.181
						c-0.595,0-1.06-0.184-1.398-0.554c-0.337-0.369-0.506-0.843-0.506-1.421c0-0.53,0.165-1.008,0.494-1.433
						c0.329-0.425,0.775-0.638,1.337-0.638c0.305,0,0.61,0.069,0.916,0.205c0.305,0.137,0.598,0.309,0.88,0.518
						c0.281,0.209,0.55,0.438,0.807,0.687c0.257,0.249,0.482,0.478,0.675,0.687C18.542,17.943,18.325,18.172,18.084,18.404z
						 M26.253,19.091c-0.322,0.385-0.779,0.578-1.374,0.578c-0.337,0-0.655-0.056-0.952-0.169c-0.297-0.112-0.582-0.261-0.855-0.446
						c-0.273-0.184-0.53-0.393-0.771-0.626c-0.241-0.233-0.466-0.47-0.675-0.711c0.193-0.209,0.41-0.437,0.651-0.687
						c0.241-0.249,0.494-0.478,0.759-0.687c0.265-0.209,0.546-0.381,0.843-0.518c0.297-0.136,0.606-0.205,0.928-0.205
						c0.594,0,1.064,0.201,1.41,0.602c0.345,0.402,0.518,0.883,0.518,1.446C26.735,18.232,26.574,18.706,26.253,19.091z"/>
				</g>
				<g>
					<path fill="none" d="M28.711,15.863c-0.193-0.53-0.466-0.992-0.819-1.385c-0.354-0.393-0.787-0.702-1.301-0.927
						c-0.514-0.225-1.093-0.337-1.735-0.337c-0.514,0-0.992,0.081-1.434,0.241c-0.442,0.161-0.852,0.373-1.229,0.638
						c-0.378,0.265-0.731,0.574-1.06,0.928c-0.329,0.353-0.647,0.715-0.952,1.084c-0.322-0.385-0.647-0.751-0.976-1.096
						c-0.329-0.345-0.683-0.65-1.06-0.915c-0.378-0.265-0.787-0.478-1.229-0.638c-0.442-0.16-0.928-0.241-1.458-0.241
						c-0.643,0-1.221,0.117-1.735,0.349c-0.514,0.233-0.948,0.546-1.301,0.94c-0.35,0.39-0.616,0.851-0.8,1.382
						c-0.155-0.356-0.338-0.687-0.579-0.968c-0.318-0.37-0.709-0.665-1.171-0.885c-0.463-0.22-0.995-0.33-1.596-0.33
						c-0.486,0-0.92,0.072-1.301,0.217c-0.382,0.145-0.74,0.385-1.076,0.72l-0.035-0.035l0.486-2.758h5.014v-2.03H4.579
						l-1.197,6.713h2.221c0.243-0.335,0.503-0.581,0.781-0.737c0.278-0.156,0.636-0.234,1.076-0.234c0.335,0,0.63,0.058,0.885,0.173
						c0.254,0.116,0.474,0.278,0.659,0.486c0.185,0.208,0.324,0.451,0.416,0.728c0.092,0.278,0.139,0.572,0.139,0.885
						c0,0.301-0.049,0.593-0.147,0.876c-0.098,0.283-0.237,0.532-0.416,0.746c-0.179,0.214-0.399,0.388-0.659,0.52
						c-0.26,0.133-0.553,0.199-0.876,0.199c-0.555,0-1.012-0.165-1.371-0.494c-0.359-0.33-0.567-0.772-0.625-1.327H3
						c0.011,0.636,0.141,1.194,0.39,1.674c0.249,0.48,0.581,0.882,0.998,1.206c0.416,0.324,0.894,0.564,1.431,0.72
						c0.538,0.156,1.102,0.234,1.692,0.234c0.613,0.011,1.191-0.09,1.735-0.304c0.544-0.214,1.021-0.517,1.431-0.911
						c0.41-0.393,0.737-0.859,0.98-1.396c0.009-0.019,0.011-0.04,0.019-0.059c0.191,0.497,0.449,0.935,0.792,1.3
						c0.369,0.394,0.811,0.707,1.325,0.94c0.514,0.233,1.1,0.349,1.759,0.349c0.53,0,1.008-0.076,1.434-0.229
						c0.425-0.152,0.819-0.353,1.181-0.602c0.361-0.249,0.703-0.538,1.024-0.867c0.321-0.329,0.651-0.67,0.988-1.024
						c0.305,0.353,0.627,0.695,0.964,1.024c0.337,0.329,0.695,0.618,1.072,0.867c0.377,0.249,0.783,0.45,1.217,0.602
						c0.434,0.153,0.9,0.229,1.398,0.229c0.642,0,1.225-0.116,1.747-0.349c0.522-0.233,0.96-0.554,1.313-0.964
						c0.353-0.41,0.627-0.887,0.819-1.433C28.904,18.81,29,18.224,29,17.597C29,16.971,28.904,16.393,28.711,15.863z M18.084,18.404
						c-0.241,0.233-0.498,0.442-0.771,0.626c-0.273,0.185-0.563,0.337-0.868,0.458c-0.305,0.12-0.611,0.181-0.916,0.181
						c-0.595,0-1.06-0.184-1.398-0.554c-0.337-0.369-0.506-0.843-0.506-1.421c0-0.53,0.165-1.008,0.494-1.433
						c0.329-0.425,0.775-0.638,1.337-0.638c0.305,0,0.61,0.069,0.916,0.205c0.305,0.137,0.598,0.309,0.88,0.518
						c0.281,0.209,0.55,0.438,0.807,0.687c0.257,0.249,0.482,0.478,0.675,0.687C18.542,17.943,18.325,18.172,18.084,18.404z
						 M26.253,19.091c-0.322,0.385-0.779,0.578-1.374,0.578c-0.337,0-0.655-0.056-0.952-0.169c-0.297-0.112-0.582-0.261-0.855-0.446
						c-0.273-0.184-0.53-0.393-0.771-0.626c-0.241-0.233-0.466-0.47-0.675-0.711c0.193-0.209,0.41-0.437,0.651-0.687
						c0.241-0.249,0.494-0.478,0.759-0.687c0.265-0.209,0.546-0.381,0.843-0.518c0.297-0.136,0.606-0.205,0.928-0.205
						c0.594,0,1.064,0.201,1.41,0.602c0.345,0.402,0.518,0.883,0.518,1.446C26.735,18.232,26.574,18.706,26.253,19.091z"/>
				</g>
			</g>
		</g>
	</g>
</g>
<g id="rasterized">
	<g>
		<path d="M24.807,15.622c-0.322,0-0.631,0.069-0.928,0.205c-0.297,0.137-0.578,0.309-0.843,0.518
			c-0.265,0.209-0.518,0.438-0.759,0.687c-0.241,0.249-0.458,0.478-0.651,0.687c0.209,0.241,0.434,0.478,0.675,0.711
			c0.241,0.233,0.498,0.442,0.771,0.626c0.273,0.185,0.558,0.333,0.855,0.446c0.297,0.112,0.615,0.169,0.952,0.169
			c0.594,0,1.052-0.193,1.374-0.578c0.321-0.385,0.482-0.859,0.482-1.421c0-0.562-0.173-1.044-0.518-1.446
			C25.871,15.823,25.401,15.622,24.807,15.622z"/>
		<path d="M17.253,16.345c-0.281-0.209-0.575-0.381-0.88-0.518c-0.305-0.136-0.611-0.205-0.916-0.205
			c-0.562,0-1.008,0.213-1.337,0.638c-0.329,0.426-0.494,0.903-0.494,1.433c0,0.578,0.169,1.052,0.506,1.421
			c0.337,0.37,0.803,0.554,1.398,0.554c0.305,0,0.61-0.06,0.916-0.181c0.305-0.12,0.594-0.273,0.867-0.458
			c0.273-0.184,0.53-0.393,0.771-0.626c0.241-0.233,0.458-0.462,0.651-0.687c-0.193-0.209-0.418-0.437-0.675-0.687
			C17.803,16.782,17.534,16.553,17.253,16.345z"/>
		<path d="M30.59,15.179c-0.279-0.768-0.687-1.454-1.211-2.038c-0.543-0.605-1.211-1.083-1.988-1.424
			c-1.389-0.607-3.177-0.679-4.653-0.144c-0.604,0.22-1.174,0.516-1.695,0.881c-0.302,0.212-0.594,0.447-0.872,0.703
			c-0.28-0.254-0.574-0.49-0.878-0.704c-0.52-0.364-1.271-0.661-1.877-0.881C16.108,11.1,15,11.096,13,11.554V9.816
			C13,8.711,12.467,8,11.363,8H4.579C3.61,8,2.78,8.603,2.61,9.557l-1.197,6.667c-0.054,0.303-0.037,0.587,0.045,0.875
			C1.155,17.465,0.992,17.918,1,18.397c0.017,0.944,0.224,1.799,0.614,2.552c0.381,0.737,0.901,1.361,1.545,1.862
			c0.614,0.478,1.321,0.834,2.102,1.061c0.716,0.208,1.471,0.312,2.209,0.312c0.012-0.004,0.119,0.001,0.132,0.001
			c0.828,0,1.627-0.15,2.375-0.444c0.611-0.24,1.172-0.565,1.673-0.968c0.399,0.317,0.839,0.585,1.316,0.801
			c1.394,0.632,3.26,0.696,4.693,0.183c0.586-0.21,1.139-0.492,1.642-0.838c0.302-0.208,0.594-0.439,0.874-0.689
			c0.3,0.26,0.614,0.498,0.938,0.711c0.511,0.337,1.069,0.614,1.654,0.819c1.47,0.518,3.242,0.438,4.623-0.18
			c0.791-0.352,1.468-0.852,2.015-1.485c0.515-0.598,0.916-1.295,1.19-2.073C30.864,19.265,31,18.449,31,17.597
			C31,16.739,30.862,15.925,30.59,15.179z M28.711,19.356c-0.193,0.546-0.466,1.024-0.819,1.433
			c-0.354,0.41-0.791,0.731-1.313,0.964c-0.522,0.233-1.105,0.349-1.747,0.349c-0.498,0-0.964-0.076-1.398-0.229
			c-0.434-0.152-0.84-0.353-1.217-0.602c-0.378-0.249-0.735-0.538-1.072-0.867c-0.337-0.329-0.659-0.67-0.964-1.024
			c-0.337,0.353-0.667,0.695-0.988,1.024c-0.322,0.329-0.663,0.619-1.024,0.867c-0.362,0.249-0.755,0.45-1.181,0.602
			c-0.426,0.153-0.904,0.229-1.434,0.229c-0.659,0-1.245-0.116-1.759-0.349c-0.514-0.233-0.956-0.546-1.325-0.94
			c-0.343-0.365-0.602-0.803-0.792-1.3c-0.008,0.019-0.011,0.04-0.019,0.059c-0.243,0.538-0.57,1.003-0.98,1.396
			c-0.411,0.393-0.888,0.697-1.431,0.911c-0.544,0.214-1.122,0.315-1.735,0.304c-0.59,0-1.154-0.078-1.692-0.234
			c-0.538-0.156-1.015-0.396-1.431-0.72c-0.416-0.324-0.749-0.901-0.998-1.38C3.142,19.369,3.011,19,3,18h2.464
			c0.058,1,0.266,1.172,0.625,1.502c0.358,0.33,0.815,0.582,1.371,0.582c0.324,0,0.616-0.023,0.876-0.156
			c0.26-0.133,0.48-0.284,0.659-0.499c0.179-0.214,0.318-0.451,0.416-0.735c0.098-0.283,0.147-0.57,0.147-0.871
			c0-0.312-0.046-0.604-0.139-0.882c-0.093-0.278-0.232-0.519-0.416-0.727c-0.185-0.208-0.405-0.369-0.659-0.485
			c-0.255-0.115-0.549-0.173-0.885-0.173c-0.44,0-0.798,0.314-1.076,0.47C6.106,16.183,5.845,16,5.603,17H3.382l1.197-7H11v2H6.349
			l-0.486,2.681l0.035-0.004c0.335-0.335,0.694-0.594,1.076-0.739c0.382-0.144,0.815-0.226,1.301-0.226
			c0.601,0,1.133,0.105,1.596,0.325c0.462,0.22,0.853,0.512,1.171,0.882c0.241,0.28,0.425,0.61,0.579,0.966
			c0.184-0.531,0.45-0.993,0.8-1.382c0.353-0.393,0.787-0.707,1.301-0.94c0.514-0.233,1.092-0.35,1.735-0.35
			c0.53,0,1.016,0.08,1.458,0.241c0.442,0.161,0.851,0.373,1.229,0.638c0.377,0.265,0.731,0.57,1.06,0.915
			c0.329,0.346,0.654,0.711,0.976,1.096c0.305-0.369,0.622-0.731,0.952-1.084c0.329-0.353,0.683-0.663,1.06-0.928
			c0.377-0.265,0.787-0.478,1.229-0.638c0.442-0.16,0.919-0.241,1.434-0.241c0.642,0,1.221,0.113,1.735,0.337
			c0.514,0.225,0.948,0.534,1.301,0.927c0.353,0.394,0.627,0.855,0.819,1.385C28.904,16.393,29,16.971,29,17.597
			C29,18.224,28.904,18.81,28.711,19.356z M7.313,17.588c0.007-0.008,0.014-0.016,0.021-0.022c0.035,0.001,0.095,0,0.188,0.009
			c0.024,0.074,0.037,0.158,0.037,0.254c0,0.078-0.012,0.148-0.038,0.222c-0.018,0.05-0.037,0.089-0.038,0.119
			c0,0-0.011,0-0.026-0.001c-0.001-0.008-0.002-0.016-0.003-0.025C7.433,17.948,7.385,17.762,7.313,17.588z"/>
	</g>
</g>
</svg>
