<?xml version="1.0" encoding="utf-8"?>
<!-- Generator: Adobe Illustrator 17.1.0, SVG Export Plug-In . SVG Version: 6.00 Build 0)  -->
<!DOCTYPE svg PUBLIC "-//W3C//DTD SVG 1.1//EN" "http://www.w3.org/Graphics/SVG/1.1/DTD/svg11.dtd">
<svg version="1.1" xmlns="http://www.w3.org/2000/svg" xmlns:xlink="http://www.w3.org/1999/xlink" x="0px" y="0px"
	 viewBox="0 0 32 32" enable-background="new 0 0 32 32" xml:space="preserve">
<g id="line" display="none">
	
		<path display="inline" fill="none" stroke="#000000" stroke-width="2" stroke-linecap="round" stroke-linejoin="round" stroke-miterlimit="10" d="
		M4.314,14.139l10.905-7.362C15.806,6.366,17,6.786,17,7.502v3.92c5,0.203,12.879,2.105,12.879,11.269
		c0,1.183-1.547,1.142-1.547-0.099c0-1.882-6.333-4.657-11.333-4.657c0,0,0-0.003,0-0.004v4.295c0,0.716-1.194,1.136-1.781,0.725
		L4.508,15.59C4.005,15.238,3.811,14.492,4.314,14.139z"/>
	<g display="inline">
		<polygon fill="none" stroke="#FFFFFF" stroke-width="6" stroke-linecap="round" stroke-miterlimit="10" points="-5.331,45 -13,45 
			-13,38.23 		"/>
	</g>
</g>
<g id="rasterized">
	<g>
		<path d="M29.14,24.552c-0.479,0-0.944-0.201-1.277-0.551c-0.346-0.365-0.529-0.852-0.529-1.408
			c-0.183-0.917-4.719-3.304-9.333-3.622v3.256c0,1.64-2.247,2.321-3.354,1.544L3.942,16.414c-0.571-0.4-0.922-1.05-0.922-1.702
			c0-0.564,0.263-1.072,0.721-1.393L14.66,5.948c0.306-0.214,0.703-0.333,1.134-0.333C16.855,5.615,18,6.337,18,7.502v2.979
			c4.521,0.372,12.879,2.391,12.879,12.209C30.879,23.752,30.131,24.552,29.14,24.552z M5.124,14.8l10.662,7.328
			c0.082-0.009,0.16-0.035,0.214-0.061v-4.131c0-0.576,0.514-1.031,1.07-1c3.908,0.022,9.901,1.882,11.721,4.253
			c-0.843-7.206-7.661-8.599-11.831-8.768C16.423,12.4,16,11.959,16,11.422v-3.76c-0.054-0.024-0.13-0.047-0.206-0.047L5.124,14.8z"
			/>
	</g>
</g>
</svg>
