<?xml version="1.0" encoding="utf-8"?>
<!-- Generator: Adobe Illustrator 17.1.0, SVG Export Plug-In . SVG Version: 6.00 Build 0)  -->
<!DOCTYPE svg PUBLIC "-//W3C//DTD SVG 1.1//EN" "http://www.w3.org/Graphics/SVG/1.1/DTD/svg11.dtd">
<svg version="1.1" xmlns="http://www.w3.org/2000/svg" xmlns:xlink="http://www.w3.org/1999/xlink" x="0px" y="0px"
	 viewBox="0 0 32 32" enable-background="new 0 0 32 32" xml:space="preserve">
<g id="line" display="none">
	
		<polyline display="inline" fill="none" stroke="#000000" stroke-width="2" stroke-linecap="round" stroke-linejoin="round" stroke-miterlimit="10" points="
		23,30 7,16 23,2 	"/>
	<path display="inline" fill="#FFFFFF" stroke="#FFFFFF" stroke-width="6" stroke-miterlimit="10" d="M-2.806,37.706l-3.078-3.078
		c-0.497-0.497-1.304-0.497-1.802,0l-0.638,0.638l0,0l-12.913,12.913l4.88,4.88L-3.44,40.141l0.634-0.634
		C-2.308,39.01-2.308,38.203-2.806,37.706z"/>
</g>
<g id="rasterized">
	<g>
		<path d="M23,31c-0.233,0-0.468-0.082-0.658-0.248l-16-14C6.125,16.563,6,16.289,6,16s0.125-0.562,0.341-0.752l16-14
			c0.416-0.365,1.047-0.322,1.411,0.094c0.364,0.416,0.322,1.047-0.094,1.411L8.519,16l15.14,13.248
			c0.416,0.364,0.458,0.995,0.094,1.411C23.555,30.884,23.278,31,23,31z"/>
	</g>
</g>
</svg>
