<?xml version="1.0" encoding="utf-8"?>
<!-- Generator: Adobe Illustrator 17.1.0, SVG Export Plug-In . SVG Version: 6.00 Build 0)  -->
<!DOCTYPE svg PUBLIC "-//W3C//DTD SVG 1.1//EN" "http://www.w3.org/Graphics/SVG/1.1/DTD/svg11.dtd">
<svg version="1.1" xmlns="http://www.w3.org/2000/svg" xmlns:xlink="http://www.w3.org/1999/xlink" x="0px" y="0px"
	 viewBox="0 0 32 32" enable-background="new 0 0 32 32" xml:space="preserve">
<g id="line" display="none">
	<g display="inline">
		
			<polyline fill="none" stroke="#000000" stroke-width="2" stroke-linecap="round" stroke-linejoin="round" stroke-miterlimit="10" points="
			5.188,19.188 16,30 26.812,19.188 		"/>
		
			<line fill="none" stroke="#000000" stroke-width="2" stroke-linecap="round" stroke-linejoin="round" stroke-miterlimit="10" x1="16" y1="29" x2="16" y2="3"/>
	</g>
</g>
<g id="rasterized">
	<path d="M27.519,18.481c-0.391-0.391-1.023-0.391-1.414,0L17,27.586V3c0-0.552-0.448-1-1-1s-1,0.448-1,1v24.586l-9.104-9.104
		c-0.391-0.391-1.023-0.391-1.414,0s-0.391,1.023,0,1.414l10.812,10.812C15.488,30.902,15.744,31,16,31s0.512-0.098,0.707-0.293
		l10.812-10.812C27.909,19.505,27.909,18.872,27.519,18.481z"/>
</g>
</svg>
