<?xml version="1.0" encoding="utf-8"?>
<!-- Generator: Adobe Illustrator 17.1.0, SVG Export Plug-In . SVG Version: 6.00 Build 0)  -->
<!DOCTYPE svg PUBLIC "-//W3C//DTD SVG 1.1//EN" "http://www.w3.org/Graphics/SVG/1.1/DTD/svg11.dtd">
<svg version="1.1" xmlns="http://www.w3.org/2000/svg" xmlns:xlink="http://www.w3.org/1999/xlink" x="0px" y="0px"
	 viewBox="0 0 32 32" enable-background="new 0 0 32 32" xml:space="preserve">
<g id="line" display="none">
	
		<path display="inline" fill="none" stroke="#000000" stroke-width="2" stroke-linecap="round" stroke-linejoin="round" stroke-miterlimit="10" d="
		M28.437,14.139l-10.78-7.362C17.069,6.366,16,6.786,16,7.502v3.92c-5,0.203-13.004,2.105-13.004,11.269
		c0,1.183,1.609,1.142,1.609-0.099C4.605,20.71,11,17.936,16,17.936c0,0,0-0.003,0-0.004v4.295c0,0.716,1.069,1.136,1.656,0.725
		l10.649-7.362C28.809,15.238,28.94,14.492,28.437,14.139z"/>
	<g display="inline">
		<polygon fill="none" stroke="#FFFFFF" stroke-width="6" stroke-linecap="round" stroke-miterlimit="10" points="26.669,45 19,45 
			19,38.23 		"/>
	</g>
</g>
<g id="rasterized">
	<g>
		<path d="M3.766,24.552c-1.009,0-1.77-0.8-1.77-1.86c0-9.821,8.444-11.838,13.004-12.209V7.502c0-1.166,1.092-1.887,2.104-1.887
			c0.417,0,0.806,0.119,1.125,0.342L29,13.313c0.483,0.337,0.754,0.862,0.754,1.445c0,0.64-0.335,1.272-0.876,1.651l-10.654,7.366
			c-0.315,0.221-0.705,0.339-1.121,0.339h0c-1.012,0-2.104-0.721-2.104-1.887v-3.256c-4.631,0.317-9.203,2.708-9.396,3.642
			C5.605,23.865,4.657,24.552,3.766,24.552z M17,22.092c0.03,0.012,0.067,0.021,0.104,0.021L27.66,14.82L17.092,7.603
			c-0.03,0.007-0.064,0.02-0.092,0.033v3.787c0,0.537-0.423,0.978-0.959,0.999c-4.249,0.173-11.216,1.59-11.977,8.916
			c1.723-2.455,7.849-4.37,11.838-4.401C16.471,16.875,17,17.346,17,17.932V22.092z"/>
	</g>
</g>
</svg>
