<?xml version="1.0" encoding="utf-8"?>
<!-- Generator: Adobe Illustrator 17.1.0, SVG Export Plug-In . SVG Version: 6.00 Build 0)  -->
<!DOCTYPE svg PUBLIC "-//W3C//DTD SVG 1.1//EN" "http://www.w3.org/Graphics/SVG/1.1/DTD/svg11.dtd">
<svg version="1.1" xmlns="http://www.w3.org/2000/svg" xmlns:xlink="http://www.w3.org/1999/xlink" x="0px" y="0px"
	 viewBox="0 0 32 32" enable-background="new 0 0 32 32" xml:space="preserve">
<g id="line" display="none">
	<g display="inline">
		
			<polyline fill="none" stroke="#000000" stroke-width="2" stroke-linecap="round" stroke-linejoin="round" stroke-miterlimit="10" points="
			26.812,13.696 16,2.885 5.188,13.696 		"/>
		
			<line fill="none" stroke="#000000" stroke-width="2" stroke-linecap="round" stroke-linejoin="round" stroke-miterlimit="10" x1="16" y1="4" x2="16" y2="30"/>
	</g>
</g>
<g id="rasterized">
	<path d="M27.519,12.989L16.707,2.177c-0.375-0.375-1.039-0.375-1.414,0L4.481,12.989c-0.391,0.391-0.391,1.023,0,1.414
		s1.023,0.391,1.414,0L15,5.298V30c0,0.552,0.448,1,1,1s1-0.448,1-1V5.298l9.104,9.105c0.195,0.195,0.451,0.293,0.707,0.293
		s0.512-0.098,0.707-0.293C27.909,14.013,27.909,13.38,27.519,12.989z"/>
</g>
</svg>
