<?xml version="1.0" encoding="utf-8"?>
<!-- Generator: Adobe Illustrator 17.1.0, SVG Export Plug-In . SVG Version: 6.00 Build 0)  -->
<!DOCTYPE svg PUBLIC "-//W3C//DTD SVG 1.1//EN" "http://www.w3.org/Graphics/SVG/1.1/DTD/svg11.dtd">
<svg version="1.1" xmlns="http://www.w3.org/2000/svg" xmlns:xlink="http://www.w3.org/1999/xlink" x="0px" y="0px"
	 viewBox="0 0 32 32" enable-background="new 0 0 32 32" xml:space="preserve">
<g id="line" display="none">
	<path display="inline" fill="#FFFFFF" stroke="#000000" stroke-width="2" stroke-linejoin="round" stroke-miterlimit="10" d="
		M29.333,5.499v20.003c0,1.379-1.455,2.272-2.684,1.649L11.919,17.149c-1.35-0.685-1.35-2.613,0-3.298L26.649,3.85
		C27.879,3.226,29.333,4.12,29.333,5.499z"/>
	<path display="inline" fill="#FFFFFF" stroke="#000000" stroke-width="2" stroke-linejoin="round" stroke-miterlimit="10" d="
		M5.817,28h2.699c1.188,0,2.15-0.963,2.15-2.15V5.15c0-1.188-0.963-2.15-2.15-2.15H5.817c-1.188,0-2.15,0.963-2.15,2.15V25.85
		C3.667,27.037,4.629,28,5.817,28z"/>
</g>
<g id="rasterized">
	<path d="M27.317,3.147c-0.448,0-0.797,0.104-1.203,0.31c-0.038,0.02,0.134,0.041,0.099,0.065L11,13.314V5.65
		C11,3.913,9.253,3,7.516,3H4.817C3.08,3,2,3.913,2,5.65V26.35C2,28.087,3.08,30,4.817,30h2.699C9.253,30,11,28.087,11,26.35v-7.664
		l15.254,9.792c0.035,0.024-0.012,0.045,0.026,0.065c0.406,0.206,0.63,0.31,1.078,0.31c1.572,0,2.642-1.279,2.642-2.851V5.999
		C30,4.427,28.888,3.147,27.317,3.147z M9,26.85C9,27.485,8.485,28,7.85,28H5.15C4.515,28,4,27.485,4,26.85V6.15
		C4,5.515,4.515,5,5.15,5H7.85C8.485,5,9,5.515,9,6.15V26.85z M28,26.001c0,0.671-0.52,0.996-1.018,0.779l-15.584-9.959
		c-0.035-0.024-0.03-0.045-0.068-0.065c-0.42-0.212-0.444-0.6-0.444-0.757s0.055-0.544,0.475-0.757
		c0.038-0.02,0.079-0.041,0.115-0.065l15.503-9.959C27.479,5.004,28,5.327,28,5.999V26.001z"/>
</g>
</svg>
