<?xml version="1.0" encoding="utf-8"?>
<!-- Generator: Adobe Illustrator 17.1.0, SVG Export Plug-In . SVG Version: 6.00 Build 0)  -->
<!DOCTYPE svg PUBLIC "-//W3C//DTD SVG 1.1//EN" "http://www.w3.org/Graphics/SVG/1.1/DTD/svg11.dtd">
<svg version="1.1" xmlns="http://www.w3.org/2000/svg" xmlns:xlink="http://www.w3.org/1999/xlink" x="0px" y="0px"
	 viewBox="0 0 32 32" enable-background="new 0 0 32 32" xml:space="preserve">
<g id="line" display="none">
	<g display="inline">
		<g>
			<path fill="#FFFFFF" stroke="#000000" stroke-width="4" stroke-linejoin="round" stroke-miterlimit="10" d="M10.797,7.854
				c0.766,0,1.456,0.066,2.088,0.202c0.626,0.134,1.161,0.356,1.614,0.66c0.446,0.305,0.794,0.71,1.045,1.22
				c0.244,0.502,0.365,1.133,0.365,1.876c0,0.806-0.183,1.478-0.548,2.016c-0.368,0.537-0.911,0.977-1.631,1.319
				c0.983,0.283,1.712,0.781,2.196,1.489c0.486,0.713,0.724,1.567,0.724,2.567c0,0.811-0.156,1.509-0.466,2.096
				c-0.312,0.595-0.739,1.077-1.264,1.449c-0.531,0.374-1.138,0.65-1.819,0.829c-0.674,0.178-1.374,0.269-2.091,0.269H3.258V7.854
				H10.797 M10.342,14.315c0.624,0,1.14-0.148,1.55-0.448c0.404-0.296,0.602-0.785,0.602-1.455c0-0.371-0.066-0.679-0.198-0.918
				c-0.136-0.238-0.315-0.425-0.542-0.556c-0.225-0.136-0.481-0.231-0.775-0.281c-0.291-0.057-0.594-0.079-0.906-0.079H6.78v3.737
				H10.342z M10.537,21.123c0.346,0,0.676-0.031,0.986-0.101c0.316-0.068,0.594-0.178,0.83-0.339
				c0.235-0.155,0.431-0.368,0.573-0.637c0.142-0.269,0.211-0.616,0.211-1.037c0-0.824-0.233-1.41-0.694-1.765
				c-0.462-0.35-1.079-0.525-1.836-0.525H6.78v4.404H10.537z"/>
			<path fill="#FFFFFF" stroke="#000000" stroke-width="4" stroke-linejoin="round" stroke-miterlimit="10" d="M21.668,21.07
				c0.477,0.466,1.166,0.699,2.058,0.699c0.641,0,1.195-0.162,1.66-0.486c0.46-0.322,0.741-0.669,0.85-1.026h2.801
				c-0.451,1.393-1.133,2.389-2.065,2.988c-0.921,0.601-2.044,0.901-3.353,0.901c-0.912,0-1.733-0.147-2.469-0.438
				c-0.737-0.295-1.353-0.708-1.871-1.245c-0.505-0.541-0.897-1.179-1.176-1.93c-0.276-0.746-0.416-1.573-0.416-2.468
				c0-0.866,0.144-1.674,0.428-2.422c0.288-0.75,0.688-1.398,1.212-1.941c0.526-0.545,1.149-0.976,1.876-1.291
				c0.726-0.313,1.528-0.472,2.415-0.472c0.979,0,1.839,0.189,2.573,0.574c0.733,0.378,1.335,0.891,1.807,1.534
				c0.472,0.642,0.808,1.375,1.016,2.198c0.209,0.822,0.283,1.679,0.223,2.578h-8.356C20.882,19.738,21.19,20.604,21.668,21.07
				 M25.323,14.985c-0.378-0.418-1.018-0.644-1.8-0.644c-0.508,0-0.929,0.085-1.264,0.26c-0.33,0.172-0.6,0.386-0.806,0.638
				c-0.206,0.256-0.345,0.527-0.427,0.816c-0.081,0.283-0.131,0.538-0.144,0.764h5.174C25.979,16.007,25.703,15.407,25.323,14.985z"
				/>
			
				<rect x="20.231" y="8.927" fill="#FFFFFF" stroke="#000000" stroke-width="4" stroke-linejoin="round" stroke-miterlimit="10" width="6.482" height="1.578"/>
		</g>
		<g>
			<path fill="#FFFFFF" d="M10.797,7.854c0.766,0,1.456,0.066,2.088,0.202c0.626,0.134,1.161,0.356,1.614,0.66
				c0.446,0.305,0.794,0.71,1.045,1.22c0.244,0.502,0.365,1.133,0.365,1.876c0,0.806-0.183,1.478-0.548,2.016
				c-0.368,0.537-0.911,0.977-1.631,1.319c0.983,0.283,1.712,0.781,2.196,1.489c0.486,0.713,0.724,1.567,0.724,2.567
				c0,0.811-0.156,1.509-0.466,2.096c-0.312,0.595-0.739,1.077-1.264,1.449c-0.531,0.374-1.138,0.65-1.819,0.829
				c-0.674,0.178-1.374,0.269-2.091,0.269H3.258V7.854H10.797 M10.342,14.315c0.624,0,1.14-0.148,1.55-0.448
				c0.404-0.296,0.602-0.785,0.602-1.455c0-0.371-0.066-0.679-0.198-0.918c-0.136-0.238-0.315-0.425-0.542-0.556
				c-0.225-0.136-0.481-0.231-0.775-0.281c-0.291-0.057-0.594-0.079-0.906-0.079H6.78v3.737H10.342z M10.537,21.123
				c0.346,0,0.676-0.031,0.986-0.101c0.316-0.068,0.594-0.178,0.83-0.339c0.235-0.155,0.431-0.368,0.573-0.637
				c0.142-0.269,0.211-0.616,0.211-1.037c0-0.824-0.233-1.41-0.694-1.765c-0.462-0.35-1.079-0.525-1.836-0.525H6.78v4.404H10.537z"
				/>
			<path fill="#FFFFFF" d="M21.668,21.07c0.477,0.466,1.166,0.699,2.058,0.699c0.641,0,1.195-0.162,1.66-0.486
				c0.46-0.322,0.741-0.669,0.85-1.026h2.801c-0.451,1.393-1.133,2.389-2.065,2.988c-0.921,0.601-2.044,0.901-3.353,0.901
				c-0.912,0-1.733-0.147-2.469-0.438c-0.737-0.295-1.353-0.708-1.871-1.245c-0.505-0.541-0.897-1.179-1.176-1.93
				c-0.276-0.746-0.416-1.573-0.416-2.468c0-0.866,0.144-1.674,0.428-2.422c0.288-0.75,0.688-1.398,1.212-1.941
				c0.526-0.545,1.149-0.976,1.876-1.291c0.726-0.313,1.528-0.472,2.415-0.472c0.979,0,1.839,0.189,2.573,0.574
				c0.733,0.378,1.335,0.891,1.807,1.534c0.472,0.642,0.808,1.375,1.016,2.198c0.209,0.822,0.283,1.679,0.223,2.578h-8.356
				C20.882,19.738,21.19,20.604,21.668,21.07 M25.323,14.985c-0.378-0.418-1.018-0.644-1.8-0.644c-0.508,0-0.929,0.085-1.264,0.26
				c-0.33,0.172-0.6,0.386-0.806,0.638c-0.206,0.256-0.345,0.527-0.427,0.816c-0.081,0.283-0.131,0.538-0.144,0.764h5.174
				C25.979,16.007,25.703,15.407,25.323,14.985z"/>
			<rect x="20.231" y="8.927" fill="#FFFFFF" width="6.482" height="1.578"/>
		</g>
	</g>
</g>
<g id="rasterized">
	<g>
		<path d="M10.607,17H7v4h3.537c0.346,0,0.676,0.03,0.986-0.039c0.315-0.068,0.594-0.147,0.83-0.308
			c0.235-0.155,0.431-0.352,0.573-0.622c0.142-0.269,0.211-0.609,0.211-1.029c0-0.824-0.233-1.266-0.694-1.621
			C11.982,17.03,11.364,17,10.607,17z"/>
		<path d="M11.892,13.71c0.404-0.296,0.602-0.706,0.602-1.376c0-0.371-0.207-0.734-0.4-0.927c-0.5-0.5-1.709-0.406-2.02-0.406H7v3
			h3.342C10.966,14,11.482,14.01,11.892,13.71z"/>
		<path d="M30.954,15.753c-0.273-1.077-0.725-2.05-1.343-2.89c-0.353-0.481-0.62-0.905-1.075-1.279
			C28.737,11.272,29,10.903,29,10.504V8.927C29,7.823,27.817,7,26.713,7h-6.482C19.126,7,18,7.823,18,8.927v1.577
			c0,0.434,0.258,0.834,0.493,1.162c-0.244,0.196-0.426,0.402-0.642,0.626c0.014-0.158,0.043-0.315,0.043-0.479
			c0-1.051-0.183-1.977-0.563-2.757c-0.403-0.82-0.975-1.49-1.722-2c-0.668-0.449-1.443-0.697-2.305-0.882
			C12.533,6.008,11.714,6,10.797,6H3.258C2.153,6,1,6.75,1,7.854v15.993C1,24.951,2.153,26,3.258,26h7.751
			c0.885,0,1.76-0.189,2.599-0.412c0.912-0.24,1.741-0.658,2.466-1.17c0.471-0.334,0.878-0.75,1.23-1.191
			c0.166,0.222,0.343,0.427,0.534,0.632c0.715,0.742,1.579,1.314,2.576,1.713c0.97,0.384,2.048,0.576,3.204,0.576
			c1.705,0,3.201-0.414,4.436-1.22c1.318-0.848,2.289-2.213,2.886-4.054c0.114-0.353,0.126-0.724,0.044-1.076
			c0.141-0.251,0.229-0.537,0.249-0.842C31.307,17.85,31.212,16.772,30.954,15.753z M16.183,21.299
			c-0.312,0.595-0.739,1.077-1.264,1.449c-0.531,0.374-1.138,0.727-1.819,0.906C12.426,23.833,11.726,24,11.009,24H3V8h7.797
			c0.766,0,1.456-0.007,2.088,0.129c0.626,0.134,1.161,0.32,1.614,0.624c0.446,0.305,0.794,0.692,1.045,1.202
			c0.244,0.502,0.365,1.124,0.365,1.867c0,0.806-0.183,1.473-0.548,2.011c-0.368,0.537-0.911,0.975-1.631,1.316
			c0.983,0.283,1.712,0.78,2.196,1.488c0.486,0.713,0.724,1.566,0.724,2.566C16.649,20.015,16.493,20.713,16.183,21.299z M20,9h7v2
			h-7V9z M21.668,21.158c0.477,0.466,1.166,0.655,2.059,0.655c0.641,0,1.152-0.115,1.618-0.438C25.804,21.053,26.128,21,26.236,20
			h2.801c-0.451,2-1.133,2.517-2.065,3.117c-0.921,0.601-2.044,0.965-3.353,0.965c-0.912,0-1.733-0.115-2.469-0.406
			c-0.737-0.295-1.353-0.692-1.871-1.229c-0.505-0.541-0.897-1.171-1.175-1.922c-0.276-0.746-0.416-1.569-0.416-2.464
			c0-0.866,0.144-1.672,0.428-2.42c0.288-0.75,0.688-1.397,1.212-1.94c0.526-0.545,1.149-0.976,1.876-1.291
			c0.726-0.313,1.528-0.472,2.415-0.472c0.979,0,1.839,0.189,2.573,0.574c0.733,0.378,1.335,0.891,1.807,1.534
			c0.472,0.642,0.808,1.463,1.016,2.287C29.224,17.155,29.297,18,29.238,19h-8.356C20.882,20,21.19,20.693,21.668,21.158z"/>
		<path d="M23.523,14.341c-0.508,0-0.929,0.085-1.264,0.26c-0.33,0.172-0.6,0.386-0.806,0.638c-0.206,0.256-0.345,0.618-0.427,0.907
			C20.945,16.428,20.895,17,20.882,17h5.174c-0.077-1-0.353-1.502-0.733-1.924C24.945,14.658,24.305,14.341,23.523,14.341z"/>
	</g>
</g>
</svg>
