<?xml version="1.0" encoding="utf-8"?>
<!-- Generator: Adobe Illustrator 17.1.0, SVG Export Plug-In . SVG Version: 6.00 Build 0)  -->
<!DOCTYPE svg PUBLIC "-//W3C//DTD SVG 1.1//EN" "http://www.w3.org/Graphics/SVG/1.1/DTD/svg11.dtd">
<svg version="1.1" xmlns="http://www.w3.org/2000/svg" xmlns:xlink="http://www.w3.org/1999/xlink" x="0px" y="0px"
	 viewBox="0 0 32 32" enable-background="new 0 0 32 32" xml:space="preserve">
<g id="line" display="none">
	
		<path display="inline" fill="none" stroke="#000000" stroke-width="2" stroke-linecap="round" stroke-linejoin="round" stroke-miterlimit="10" d="
		M26.628,30H5.372C3.51,30,2,28.49,2,26.628V8.372C2,6.51,3.51,5,5.372,5h21.255C28.49,5,30,6.51,30,8.372v18.255
		C30,28.49,28.49,30,26.628,30z"/>
	
		<rect x="2" y="5" display="inline" fill="none" stroke="#000000" stroke-width="2" stroke-linecap="round" stroke-linejoin="round" stroke-miterlimit="10" width="28" height="8"/>
	
		<path display="inline" fill="none" stroke="#FFFFFF" stroke-width="6" stroke-linecap="round" stroke-linejoin="round" stroke-miterlimit="10" d="
		M10,7c0,1.105-0.895,2-2,2l0,0C6.895,9,6,8.105,6,7V4c0-1.105,0.895-2,2-2l0,0c1.105,0,2,0.895,2,2V7z"/>
	
		<path display="inline" fill="none" stroke="#FFFFFF" stroke-width="6" stroke-linecap="round" stroke-linejoin="round" stroke-miterlimit="10" d="
		M26,7c0,1.105-0.895,2-2,2l0,0c-1.105,0-2-0.895-2-2V4c0-1.105,0.895-2,2-2l0,0c1.105,0,2,0.895,2,2V7z"/>
	
		<path display="inline" fill="none" stroke="#000000" stroke-width="2" stroke-linecap="round" stroke-linejoin="round" stroke-miterlimit="10" d="
		M10,7c0,1.105-0.895,2-2,2l0,0C6.895,9,6,8.105,6,7V4c0-1.105,0.895-2,2-2l0,0c1.105,0,2,0.895,2,2V7z"/>
	
		<path display="inline" fill="none" stroke="#000000" stroke-width="2" stroke-linecap="round" stroke-linejoin="round" stroke-miterlimit="10" d="
		M26,7c0,1.105-0.895,2-2,2l0,0c-1.105,0-2-0.895-2-2V4c0-1.105,0.895-2,2-2l0,0c1.105,0,2,0.895,2,2V7z"/>
	<g display="inline">
		<path fill="none" stroke="#000000" stroke-width="2" stroke-linecap="round" stroke-linejoin="round" stroke-miterlimit="10" d="
			M15,26H9.75c0,0,1.969-1.969,3.844-4.219s0.031-5.531-3.406-3.344"/>
		<path fill="none" stroke="#000000" stroke-width="2" stroke-linecap="round" stroke-linejoin="round" stroke-miterlimit="10" d="
			M17.628,18.394c1.538-1.153,4.741-1.153,4.741,1.025s-2.178,2.306-3.331,2.306c1.153,0,3.587,0.256,3.587,2.178
			s-3.075,2.819-5.125,1.666"/>
	</g>
</g>
<g id="rasterized">
	<g>
		<rect x="13" y="4" width="6" height="2"/>
		<path d="M30,4h-1v2v1v5H3V7V6V4H2C1.448,4,1,4.448,1,5v7v1v13.627C1,29.039,2.961,31,5.373,31h21.255
			C29.039,31,31,29.039,31,26.627V13v-1V5C31,4.448,30.552,4,30,4z M26.627,29H5.373C4.064,29,3,27.936,3,26.627V14h26v12.627
			C29,27.936,27.936,29,26.627,29z"/>
		<path d="M8,10c1.654,0,3-1.346,3-3V4c0-1.654-1.346-3-3-3S5,2.346,5,4v3C5,8.654,6.346,10,8,10z M7,4c0-0.551,0.449-1,1-1
			s1,0.449,1,1v3c0,0.551-0.449,1-1,1S7,7.551,7,7V4z"/>
		<path d="M24,10c1.654,0,3-1.346,3-3V4c0-1.654-1.346-3-3-3s-3,1.346-3,3v3C21,8.654,22.346,10,24,10z M23,4c0-0.551,0.449-1,1-1
			s1,0.449,1,1v3c0,0.551-0.449,1-1,1s-1-0.449-1-1V4z"/>
		<path d="M15,25h-2.911c0.672-0.726,1.478-1.624,2.273-2.579c1.228-1.473,1.315-3.454,0.208-4.712
			c-0.884-1.005-2.641-1.564-4.92-0.115c-0.466,0.296-0.603,0.915-0.307,1.381c0.297,0.465,0.915,0.604,1.381,0.307
			c1.014-0.645,1.912-0.742,2.344-0.251c0.377,0.429,0.42,1.314-0.243,2.111c-1.822,2.187-3.764,4.132-3.783,4.152
			c-0.286,0.286-0.372,0.716-0.217,1.09S9.346,27,9.75,27H15c0.552,0,1-0.448,1-1S15.552,25,15,25z"/>
		<path d="M22.513,21.643c0.7-0.69,0.856-1.573,0.856-2.224c0-1.058-0.539-1.935-1.479-2.405c-1.375-0.689-3.51-0.433-4.861,0.579
			c-0.442,0.332-0.531,0.958-0.2,1.4c0.332,0.441,0.958,0.532,1.4,0.2c0.73-0.547,2.075-0.737,2.767-0.391
			c0.269,0.134,0.374,0.307,0.374,0.616c0,0.632-0.18,1.306-2.331,1.306c-0.552,0-1,0.448-1,1s0.448,1,1,1
			c0.607,0,2.587,0.085,2.587,1.178c0,0.312-0.196,0.584-0.583,0.811c-0.719,0.42-2.032,0.557-3.052-0.017
			c-0.483-0.272-1.091-0.1-1.362,0.381s-0.1,1.091,0.381,1.362c0.757,0.425,1.653,0.638,2.542,0.638c0.89,0,1.772-0.213,2.5-0.639
			c1-0.584,1.573-1.509,1.573-2.537C23.625,22.953,23.234,22.186,22.513,21.643z"/>
	</g>
</g>
</svg>
