<?xml version="1.0" encoding="utf-8"?>
<!-- Generator: Adobe Illustrator 17.1.0, SVG Export Plug-In . SVG Version: 6.00 Build 0)  -->
<!DOCTYPE svg PUBLIC "-//W3C//DTD SVG 1.1//EN" "http://www.w3.org/Graphics/SVG/1.1/DTD/svg11.dtd">
<svg version="1.1" xmlns="http://www.w3.org/2000/svg" xmlns:xlink="http://www.w3.org/1999/xlink" x="0px" y="0px"
	 viewBox="0 0 32 32" enable-background="new 0 0 32 32" xml:space="preserve">
<g id="line" display="none">
	
		<circle display="inline" fill="#FFFFFF" stroke="#000000" stroke-width="2" stroke-linejoin="round" stroke-miterlimit="10" cx="16.5" cy="16.5" r="6.833"/>
	<path display="inline" fill="none" stroke="#000000" stroke-width="2" stroke-linejoin="round" stroke-miterlimit="10" d="
		M27.899,7h-4.982c-0.111-0.667-0.222-1.333-0.333-2c-0.193-1.105-1.148-2-2.133-2c-3.3,0-4.6,0-7.9,0c-0.985,0-1.94,0.895-2.133,2
		c-0.111,0.667-0.222,1.333-0.333,2H5.101C3.941,7,3,7.941,3,9.101v14.798C3,25.059,3.941,26,5.101,26h22.798
		C29.059,26,30,25.059,30,23.899V9.101C30,7.941,29.059,7,27.899,7z"/>
	
		<line display="inline" fill="none" stroke="#000000" stroke-width="2" stroke-linecap="round" stroke-linejoin="round" stroke-miterlimit="10" x1="5" y1="4" x2="7" y2="4"/>
</g>
<g id="rasterized">
	<g>
		<path d="M16.5,24.333c-4.319,0-7.833-3.514-7.833-7.833s3.514-7.833,7.833-7.833s7.833,3.514,7.833,7.833
			S20.819,24.333,16.5,24.333z M16.5,10.667c-3.217,0-5.833,2.617-5.833,5.833s2.617,5.833,5.833,5.833s5.833-2.617,5.833-5.833
			S19.717,10.667,16.5,10.667z"/>
	</g>
	<g>
		<path d="M27.899,27H5.101C3.391,27,2,25.609,2,23.899V9.101C2,7.391,3.391,6,5.101,6h4.135L9.43,4.836
			C9.709,3.242,11.079,2,12.55,2h7.9c1.471,0,2.841,1.242,3.118,2.828L23.764,6h4.135C29.609,6,31,7.391,31,9.101v14.798
			C31,25.609,29.609,27,27.899,27z M5.101,8C4.494,8,4,8.494,4,9.101v14.798C4,24.506,4.494,25,5.101,25h22.798
			C28.506,25,29,24.506,29,23.899V9.101C29,8.494,28.506,8,27.899,8h-4.982c-0.489,0-0.906-0.354-0.986-0.836l-0.333-2
			C21.481,4.501,20.896,4,20.45,4h-7.9c-0.445,0-1.031,0.501-1.148,1.172L11.07,7.164C10.99,7.646,10.572,8,10.083,8H5.101z"/>
	</g>
	<g>
		<path d="M7,5H5C4.448,5,4,4.552,4,4s0.448-1,1-1h2c0.552,0,1,0.448,1,1S7.552,5,7,5z"/>
	</g>
</g>
</svg>
