<?xml version="1.0" encoding="utf-8"?>
<!-- Generator: Adobe Illustrator 17.1.0, SVG Export Plug-In . SVG Version: 6.00 Build 0)  -->
<!DOCTYPE svg PUBLIC "-//W3C//DTD SVG 1.1//EN" "http://www.w3.org/Graphics/SVG/1.1/DTD/svg11.dtd">
<svg version="1.1" xmlns="http://www.w3.org/2000/svg" xmlns:xlink="http://www.w3.org/1999/xlink" x="0px" y="0px"
	 viewBox="0 0 32 32" enable-background="new 0 0 32 32" xml:space="preserve">
<g id="line" display="none">
	<path display="inline" fill="#FFFFFF" stroke="#000000" stroke-width="2" stroke-linejoin="round" stroke-miterlimit="10" d="
		M16.534,3C8.88,3,2.939,8.14,2.939,14.479C2.939,17.533,4,20.301,7,22.358v6.934l5.845-3.813c1.254,0.309,2.447,0.48,3.821,0.48
		c7.654,0,13.793-5.14,13.793-11.479C30.459,8.14,24.188,3,16.534,3z"/>
	
		<line display="inline" fill="none" stroke="#000000" stroke-width="2" stroke-linecap="round" stroke-linejoin="round" stroke-miterlimit="10" x1="10" y1="11" x2="24" y2="11"/>
	
		<line display="inline" fill="none" stroke="#000000" stroke-width="2" stroke-linecap="round" stroke-linejoin="round" stroke-miterlimit="10" x1="10" y1="15" x2="20" y2="15"/>
	
		<line display="inline" fill="none" stroke="#000000" stroke-width="2" stroke-linecap="round" stroke-linejoin="round" stroke-miterlimit="10" x1="10" y1="19" x2="23" y2="19"/>
</g>
<g id="rasterized">
	<g>
		<path d="M16.534,2C8.35,2,1.939,7.481,1.939,14.479c0,3.544,1.366,6.364,4.061,8.391v6.421c0,0.367,0.201,0.705,0.524,0.879
			C6.673,30.251,6.836,30.292,7,30.292c0.19,0,0.381-0.055,0.546-0.163l5.487-3.579c1.257,0.282,2.395,0.409,3.633,0.409
			c8.157,0,14.793-5.598,14.793-12.479S24.764,2,16.534,2z M16.666,24.959c-1.209,0-2.313-0.139-3.582-0.452
			c-0.27-0.065-0.553-0.018-0.786,0.134L8,27.445v-5.088c0-0.33-0.163-0.638-0.435-0.825c-2.44-1.673-3.626-3.98-3.626-7.053
			C3.939,8.603,9.472,4,16.534,4c7.127,0,12.925,4.701,12.925,10.479S23.72,24.959,16.666,24.959z"/>
		<path d="M24,10H10c-0.552,0-1,0.448-1,1s0.448,1,1,1h14c0.552,0,1-0.448,1-1S24.552,10,24,10z"/>
		<path d="M10,16h10c0.552,0,1-0.448,1-1s-0.448-1-1-1H10c-0.552,0-1,0.448-1,1S9.448,16,10,16z"/>
		<path d="M23,18H10c-0.552,0-1,0.448-1,1s0.448,1,1,1h13c0.552,0,1-0.448,1-1S23.552,18,23,18z"/>
	</g>
</g>
</svg>
