<?xml version="1.0" encoding="utf-8"?>
<!-- Generator: Adobe Illustrator 17.1.0, SVG Export Plug-In . SVG Version: 6.00 Build 0)  -->
<!DOCTYPE svg PUBLIC "-//W3C//DTD SVG 1.1//EN" "http://www.w3.org/Graphics/SVG/1.1/DTD/svg11.dtd">
<svg version="1.1" xmlns="http://www.w3.org/2000/svg" xmlns:xlink="http://www.w3.org/1999/xlink" x="0px" y="0px"
	 viewBox="0 0 32 32" enable-background="new 0 0 32 32" xml:space="preserve">
<g id="line" display="none">
	<path display="inline" fill="#FFFFFF" stroke="#000000" stroke-width="2" stroke-linejoin="round" stroke-miterlimit="10" d="
		M15.534,3C7.88,3,1.939,8.14,1.939,14.479C1.939,17.533,3,20.301,6,22.358v6.934l5.845-3.813c1.254,0.309,2.447,0.48,3.821,0.48
		c7.654,0,13.793-5.14,13.793-11.479C29.459,8.14,23.188,3,15.534,3z"/>
	<path display="inline" fill="#FFFFFF" stroke="#FFFFFF" stroke-width="6" stroke-linejoin="round" stroke-miterlimit="10" d="
		M45.326,3c-5.851,0-11.412,3.929-11.412,8.776c0,2.335,0.086,4.451,2.086,6.023V23.1l5.487-2.915
		c0.958,0.236,2.38,0.367,3.43,0.367c5.852,0,10.799-3.929,10.799-8.776C55.717,6.929,51.177,3,45.326,3z"/>
</g>
<g id="rasterized">
	<g>
		<path d="M6,30.292c-0.164,0-0.327-0.04-0.476-0.121C5.201,29.996,5,29.659,5,29.292V22.87c-2.695-2.026-4.061-4.847-4.061-8.391
			C0.939,7.481,7.35,2,15.534,2c8.229,0,14.925,5.598,14.925,12.479s-6.636,12.479-14.793,12.479c-1.238,0-2.375-0.127-3.633-0.409
			l-5.487,3.579C6.381,30.237,6.19,30.292,6,30.292z M15.534,4C8.472,4,2.939,8.603,2.939,14.479c0,3.073,1.186,5.38,3.626,7.053
			C6.837,21.719,7,22.028,7,22.357v5.088l4.299-2.804c0.232-0.151,0.517-0.199,0.786-0.134c1.268,0.312,2.373,0.452,3.582,0.452
			c7.054,0,12.793-4.701,12.793-10.479S22.661,4,15.534,4z"/>
	</g>
</g>
</svg>
