<?xml version="1.0" encoding="utf-8"?>
<!-- Generator: Adobe Illustrator 17.1.0, SVG Export Plug-In . SVG Version: 6.00 Build 0)  -->
<!DOCTYPE svg PUBLIC "-//W3C//DTD SVG 1.1//EN" "http://www.w3.org/Graphics/SVG/1.1/DTD/svg11.dtd">
<svg version="1.1" xmlns="http://www.w3.org/2000/svg" xmlns:xlink="http://www.w3.org/1999/xlink" x="0px" y="0px"
	 viewBox="0 0 32 32" enable-background="new 0 0 32 32" xml:space="preserve">
<g id="line" display="none">
	<path display="inline" fill="#FFFFFF" stroke="#000000" stroke-width="2" stroke-linejoin="round" stroke-miterlimit="10" d="
		M20.173,10.808c5.025,0,9.21,3.374,9.21,7.537c0,2.005-0.382,3.822-2.382,5.172v4.552l-4.121-2.503
		c-0.823,0.203-1.748,0.315-2.651,0.315c-5.025,0-9.127-3.374-9.127-7.537C11.101,14.183,15.147,10.808,20.173,10.808z"/>
	<path display="inline" fill="#FFFFFF" stroke="#FFFFFF" stroke-width="6" stroke-linejoin="round" stroke-miterlimit="10" d="
		M13.326,3C7.474,3,1.914,6.929,1.914,11.776C1.914,14.111,2,16.227,4,17.799V23.1l5.487-2.915c0.958,0.236,2.38,0.367,3.43,0.367
		c5.852,0,10.799-3.929,10.799-8.776C23.717,6.929,19.177,3,13.326,3z"/>
	<path display="inline" fill="#FFFFFF" stroke="#000000" stroke-width="2" stroke-linejoin="round" stroke-miterlimit="10" d="
		M13.326,3C7.474,3,2.914,6.929,2.914,11.776C2.914,14.111,4,16.227,6,17.799V23.1l4.487-2.915c0.958,0.236,1.88,0.367,2.93,0.367
		c5.852,0,10.549-3.929,10.549-8.776C23.967,6.929,19.177,3,13.326,3z"/>
</g>
<g id="rasterized">
	<path d="M26.715,11.8c-0.002,0.798-0.097,1.578-0.277,2.331c1.21,1.139,1.944,2.609,1.944,4.214c0,1.82-0.33,3.255-1.942,4.344
		C26.165,22.875,26,23.186,26,23.518v2.775l-2.603-1.581c-0.158-0.096-0.337-0.146-0.519-0.146c-0.08,0-0.16,0.01-0.239,0.029
		c-0.75,0.185-1.606,0.287-2.411,0.287c-1.956,0-3.752-0.559-5.155-1.488c-0.704,0.095-1.42,0.158-2.155,0.158
		c-0.212,0-0.454-0.006-0.71-0.016c1.853,2.03,4.755,3.346,8.021,3.346c0.831,0,1.678-0.086,2.477-0.251l3.776,2.293
		C26.64,29.021,26.82,29.07,27,29.07c0.169,0,0.338-0.043,0.49-0.128c0.315-0.177,0.51-0.51,0.51-0.872v-4.044
		c2.087-1.644,2.382-3.781,2.382-5.68C30.382,15.719,28.954,13.367,26.715,11.8z"/>
	<g>
		<path d="M6,24.1c-0.164,0-0.328-0.04-0.477-0.121C5.201,23.804,5,23.467,5,23.1v-4.83c-1.994-1.727-3.086-4.015-3.086-6.494
			C1.914,6.294,6.927,2,13.326,2c6.419,0,11.641,4.385,11.641,9.776s-5.181,9.776-11.549,9.776c-0.924,0-1.806-0.095-2.742-0.297
			l-4.13,2.684C6.38,24.046,6.19,24.1,6,24.1z M13.326,4c-5.277,0-9.412,3.416-9.412,7.776c0,2.035,0.935,3.846,2.704,5.237
			C6.859,17.202,7,17.492,7,17.799v3.459l2.942-1.911c0.232-0.151,0.516-0.198,0.784-0.133c0.951,0.234,1.781,0.338,2.692,0.338
			c5.266,0,9.549-3.488,9.549-7.776C22.967,7.488,18.642,4,13.326,4z"/>
	</g>
</g>
</svg>
