<?xml version="1.0" encoding="utf-8"?>
<!-- Generator: Adobe Illustrator 17.1.0, SVG Export Plug-In . SVG Version: 6.00 Build 0)  -->
<!DOCTYPE svg PUBLIC "-//W3C//DTD SVG 1.1//EN" "http://www.w3.org/Graphics/SVG/1.1/DTD/svg11.dtd">
<svg version="1.1" xmlns="http://www.w3.org/2000/svg" xmlns:xlink="http://www.w3.org/1999/xlink" x="0px" y="0px"
	 viewBox="0 0 32 32" enable-background="new 0 0 32 32" xml:space="preserve">
<g id="line" display="none">
	<path display="inline" fill="#FFFFFF" stroke="#000000" stroke-width="2" stroke-linejoin="round" stroke-miterlimit="10" d="
		M15.534,3C7.88,3,1.939,8.14,1.939,14.479C1.939,17.533,3,20.301,6,22.358v6.934l5.845-3.813c1.254,0.309,2.447,0.48,3.821,0.48
		c7.654,0,13.793-5.14,13.793-11.479C29.459,8.14,23.188,3,15.534,3z"/>
	<g display="inline">
		<circle cx="8.428" cy="14.931" r="1.928"/>
		<circle cx="15.625" cy="14.931" r="1.928"/>
		<circle cx="22.822" cy="14.931" r="1.928"/>
	</g>
</g>
<g id="rasterized">
	<g>
		<path d="M15.534,2C7.35,2,0.939,7.481,0.939,14.479c0,3.544,1.366,6.364,4.061,8.391v6.421c0,0.367,0.201,0.705,0.524,0.879
			C5.673,30.251,5.836,30.292,6,30.292c0.19,0,0.381-0.055,0.546-0.163l5.487-3.579c1.257,0.282,2.395,0.409,3.633,0.409
			c8.157,0,14.793-5.598,14.793-12.479S23.764,2,15.534,2z M15.666,24.959c-1.209,0-2.313-0.139-3.582-0.452
			c-0.269-0.065-0.553-0.018-0.786,0.134L7,27.445v-5.088c0-0.33-0.163-0.638-0.435-0.825c-2.44-1.673-3.626-3.98-3.626-7.053
			C2.939,8.603,8.472,4,15.534,4c7.127,0,12.925,4.701,12.925,10.479S22.72,24.959,15.666,24.959z"/>
		<circle cx="8.428" cy="14.931" r="1.928"/>
		<circle cx="15.625" cy="14.931" r="1.928"/>
		<circle cx="22.822" cy="14.931" r="1.928"/>
	</g>
</g>
</svg>
