<?xml version="1.0" encoding="utf-8"?>
<!-- Generator: Adobe Illustrator 17.1.0, SVG Export Plug-In . SVG Version: 6.00 Build 0)  -->
<!DOCTYPE svg PUBLIC "-//W3C//DTD SVG 1.1//EN" "http://www.w3.org/Graphics/SVG/1.1/DTD/svg11.dtd">
<svg version="1.1" xmlns="http://www.w3.org/2000/svg" xmlns:xlink="http://www.w3.org/1999/xlink" x="0px" y="0px"
	 viewBox="0 0 32 32" enable-background="new 0 0 32 32" xml:space="preserve">
<g id="line" display="none">
	
		<polyline display="inline" fill="none" stroke="#000000" stroke-width="2" stroke-linecap="round" stroke-linejoin="round" stroke-miterlimit="10" points="
		8.5,17.167 14.222,26 28,6 	"/>
</g>
<g id="rasterized">
	<g>
		<path d="M14.222,27c-0.005,0-0.009,0-0.014,0c-0.334-0.005-0.644-0.176-0.825-0.457L7.661,17.71
			c-0.3-0.463-0.168-1.083,0.296-1.383c0.464-0.301,1.083-0.168,1.383,0.296l4.908,7.577L27.176,5.433
			c0.313-0.455,0.935-0.57,1.391-0.256c0.455,0.313,0.569,0.936,0.256,1.391l-13.778,20C14.859,26.838,14.551,27,14.222,27z"/>
	</g>
</g>
</svg>
