<?xml version="1.0" encoding="utf-8"?>
<!-- Generator: Adobe Illustrator 17.1.0, SVG Export Plug-In . SVG Version: 6.00 Build 0)  -->
<!DOCTYPE svg PUBLIC "-//W3C//DTD SVG 1.1//EN" "http://www.w3.org/Graphics/SVG/1.1/DTD/svg11.dtd">
<svg version="1.1" xmlns="http://www.w3.org/2000/svg" xmlns:xlink="http://www.w3.org/1999/xlink" x="0px" y="0px"
	 viewBox="0 0 32 32" enable-background="new 0 0 32 32" xml:space="preserve">
<g id="line" display="none">
	<g display="inline">
		<polygon fill="#FFFFFF" stroke="#000000" stroke-width="2" stroke-linejoin="round" stroke-miterlimit="10" points="4.057,15.908 
			8.943,12.425 13.18,18.772 24.529,2.298 29.471,5.702 13.44,29.417 		"/>
	</g>
</g>
<g id="rasterized">
	<g>
		<g>
			<path d="M13.44,30c-0.328,0-0.634,0.048-0.821-0.221L3.236,16.374c-0.312-0.45-0.205-1.015,0.241-1.333l4.886-3.456
				c0.221-0.157,0.494-0.206,0.761-0.156c0.266,0.049,0.501,0.21,0.651,0.435l3.419,5.124L23.706,1.729
				c0.151-0.218,0.382-0.367,0.643-0.415c0.26-0.048,0.53,0.01,0.749,0.16l4.941,3.405c0.452,0.312,0.568,0.929,0.261,1.384
				l-16.03,23.506C14.084,30.042,13.776,30,13.447,30C13.445,30,13.442,30,13.44,30z M5.442,16.148l7.987,11.499L28.087,5.963
				l-3.301-2.275L14.004,19.34c-0.188,0.273-0.456,0.456-0.831,0.433c-0.332-0.002-0.64-0.169-0.824-0.445l-3.665-5.49L5.442,16.148
				z"/>
		</g>
	</g>
</g>
</svg>
