<?xml version="1.0" encoding="utf-8"?>
<!-- Generator: Adobe Illustrator 17.1.0, SVG Export Plug-In . SVG Version: 6.00 Build 0)  -->
<!DOCTYPE svg PUBLIC "-//W3C//DTD SVG 1.1//EN" "http://www.w3.org/Graphics/SVG/1.1/DTD/svg11.dtd">
<svg version="1.1" xmlns="http://www.w3.org/2000/svg" xmlns:xlink="http://www.w3.org/1999/xlink" x="0px" y="0px"
	 viewBox="0 0 32 32" enable-background="new 0 0 32 32" xml:space="preserve">
<g id="line" display="none">
	
		<path display="inline" fill="none" stroke="#000000" stroke-width="2" stroke-linecap="round" stroke-linejoin="round" stroke-miterlimit="10" d="
		M15.213,11.071l-6.272,6.272c-1.299,1.299-1.299,3.405,0,4.704l0,0c1.299,1.299,3.405,1.299,4.704,0l6.468-6.468
		c2.381-2.381,3.361-5.654,0.98-8.036l0,0c-3.005-3.005-6.242-2.381-8.624,0L6.547,13.55c-3.417,3.417-4.243,8.13-0.827,11.546
		l0.17,0.17c2.929,3.493,7.834,2.686,11.589-0.784l7.226-7.226c3.417-3.417,4.201-9.74,0.784-13.157l-0.085-0.085"/>
</g>
<g id="rasterized">
	<g>
		<path d="M10.676,28.52c-0.163,0-0.326-0.005-0.487-0.016c-1.996-0.127-3.747-1.024-5.063-2.595l-0.111-0.106
			c-1.845-1.844-2.687-4.12-2.437-6.582c0.228-2.236,1.386-4.502,3.264-6.379l5.917-6.002c3.101-3.1,6.947-3.101,10.042-0.005
			c1.351,1.351,1.896,3.043,1.574,4.896c-0.271,1.56-1.177,3.177-2.554,4.554l-6.468,6.468c-1.688,1.687-4.432,1.686-6.118,0
			c-1.687-1.687-1.687-4.431,0-6.118l6.271-6.271c0.391-0.391,1.023-0.391,1.414,0s0.391,1.023,0,1.414l-6.271,6.271
			c-0.907,0.907-0.907,2.383,0,3.29c0.908,0.908,2.383,0.907,3.29,0l6.468-6.468c1.088-1.087,1.797-2.324,1.998-3.481
			c0.208-1.2-0.134-2.257-1.018-3.14c-3.136-3.135-5.863-1.345-7.209,0l-5.917,6.002c-1.557,1.557-2.512,3.393-2.693,5.172
			c-0.188,1.843,0.456,3.56,1.861,4.965l0.17,0.17c1.03,1.222,2.261,1.856,3.717,1.948c2.092,0.135,4.445-0.873,6.486-2.76
			l7.198-7.199c2.896-2.896,3.87-8.657,0.784-11.743L24.7,4.724c-0.392-0.389-0.394-1.022-0.004-1.414
			c0.389-0.392,1.022-0.394,1.414-0.004l0.085,0.085c3.947,3.948,2.842,10.949-0.782,14.573l-7.226,7.226
			C15.869,27.333,13.168,28.52,10.676,28.52z"/>
	</g>
</g>
</svg>
