<?xml version="1.0" encoding="utf-8"?>
<!-- Generator: Adobe Illustrator 17.1.0, SVG Export Plug-In . SVG Version: 6.00 Build 0)  -->
<!DOCTYPE svg PUBLIC "-//W3C//DTD SVG 1.1//EN" "http://www.w3.org/Graphics/SVG/1.1/DTD/svg11.dtd">
<svg version="1.1" xmlns="http://www.w3.org/2000/svg" xmlns:xlink="http://www.w3.org/1999/xlink" x="0px" y="0px"
	 viewBox="0 0 32 32" enable-background="new 0 0 32 32" xml:space="preserve">
<g id="line" display="none">
	<g display="inline">
		
			<circle fill="none" stroke="#000000" stroke-width="2" stroke-linecap="round" stroke-linejoin="round" stroke-miterlimit="10" cx="16" cy="16" r="14"/>
		
			<polyline fill="none" stroke="#000000" stroke-width="2" stroke-linecap="round" stroke-linejoin="round" stroke-miterlimit="10" points="
			16,5 16,16.792 21.679,22.387 		"/>
	</g>
</g>
<g id="rasterized">
	<g>
		<path d="M16,1C7.729,1,1,7.729,1,16s6.729,15,15,15s15-6.729,15-15S24.271,1,16,1z M16,29C8.832,29,3,23.168,3,16S8.832,3,16,3
			s13,5.832,13,13S23.168,29,16,29z"/>
		<path d="M17,16.374V5c0-0.552-0.448-1-1-1s-1,0.448-1,1v11.792c0,0.268,0.107,0.524,0.298,0.712l5.679,5.594
			c0.195,0.192,0.448,0.288,0.702,0.288c0.258,0,0.517-0.1,0.712-0.298c0.388-0.394,0.383-1.026-0.011-1.414L17,16.374z"/>
	</g>
</g>
</svg>
