<?xml version="1.0" encoding="utf-8"?>
<!-- Generator: Adobe Illustrator 17.1.0, SVG Export Plug-In . SVG Version: 6.00 Build 0)  -->
<!DOCTYPE svg PUBLIC "-//W3C//DTD SVG 1.1//EN" "http://www.w3.org/Graphics/SVG/1.1/DTD/svg11.dtd">
<svg version="1.1" xmlns="http://www.w3.org/2000/svg" xmlns:xlink="http://www.w3.org/1999/xlink" x="0px" y="0px"
	 viewBox="0 0 32 32" enable-background="new 0 0 32 32" xml:space="preserve">
<g id="line" display="none">
	<g display="inline">
		<path fill="none" stroke="#000000" stroke-width="2" stroke-linecap="round" stroke-linejoin="round" stroke-miterlimit="10" d="
			M26.505,13.491c-0.347-2.564-2.439-4.627-5.051-4.813C20.338,5.978,17.681,4,14.578,4h-1.083C9.385,4,6,7.485,6,11.594v1.083
			c0,0.211,0.295,0.418,0.312,0.624C3.756,13.436,2,15.533,2,18.122v0.57C2,21.369,3.663,24,6.339,24h18.814
			C27.83,24,30,21.369,30,18.692v-0.57C30,15.918,28.519,14.078,26.505,13.491z"/>
		<rect x="11" y="18" fill="#FFFFFF" width="10" height="9"/>
		
			<polyline fill="none" stroke="#000000" stroke-width="2" stroke-linecap="round" stroke-linejoin="round" stroke-miterlimit="10" points="
			10.408,17.243 16.124,11.526 21.84,17.243 		"/>
		
			<line fill="none" stroke="#000000" stroke-width="2" stroke-linecap="round" stroke-linejoin="round" stroke-miterlimit="10" x1="16" y1="13" x2="16" y2="28"/>
	</g>
</g>
<g id="rasterized">
	<g>
		<path d="M27.382,12.741c-0.6-2.57-2.686-4.554-5.25-4.988C20.696,4.847,17.791,3,14.578,3h-1.083C8.89,3,5,6.936,5,11.594v0.916
			c-2.379,0.673-4,2.863-4,5.612v0.57C1,21.793,2.997,25,6.339,25H11v-2H6.339C4.249,23,3,20.81,3,18.692v-0.57
			c0-2.112,1.415-3.719,3.364-3.822c0.271-0.014,0.523-0.137,0.701-0.341c0.178-0.204,0.266-0.471,0.243-0.74
			C7.282,12.9,7.14,12.661,7,12.46v-0.866C7,8.02,9.974,5,13.495,5h1.083c2.557,0,4.948,1.631,5.952,4.06
			c0.145,0.35,0.475,0.588,0.853,0.615c2.104,0.15,3.841,1.812,4.131,3.95c0.053,0.392,0.332,0.715,0.71,0.826
			c1.66,0.484,2.776,1.96,2.776,3.671v0.57C29,20.947,27.167,23,25.154,23H21v2h4.154C28.268,25,31,22.053,31,18.692v-0.57
			C31,15.766,29.541,13.636,27.382,12.741z"/>
		<path d="M21.133,17.95c0.195,0.195,0.451,0.293,0.707,0.293s0.512-0.098,0.707-0.293c0.391-0.391,0.391-1.023,0-1.414
			l-5.716-5.716c-0.375-0.375-1.039-0.375-1.414,0l-5.716,5.716c-0.391,0.391-0.391,1.023,0,1.414s1.023,0.391,1.414,0L15,14.064V28
			c0,0.552,0.448,1,1,1s1-0.448,1-1V13.816L21.133,17.95z"/>
	</g>
</g>
</svg>
