<?xml version="1.0" encoding="utf-8"?>
<!-- Generator: Adobe Illustrator 17.1.0, SVG Export Plug-In . SVG Version: 6.00 Build 0)  -->
<!DOCTYPE svg PUBLIC "-//W3C//DTD SVG 1.1//EN" "http://www.w3.org/Graphics/SVG/1.1/DTD/svg11.dtd">
<svg version="1.1" xmlns="http://www.w3.org/2000/svg" xmlns:xlink="http://www.w3.org/1999/xlink" x="0px" y="0px"
	 viewBox="0 0 32 32" enable-background="new 0 0 32 32" xml:space="preserve">
<g id="line" display="none">
	
		<path display="inline" fill="none" stroke="#000000" stroke-width="2" stroke-linecap="round" stroke-linejoin="round" stroke-miterlimit="10" d="
		M26.505,13.644c-0.347-2.564-2.439-4.704-5.051-4.89C20.338,6.055,17.681,4,14.578,4h-1.083C9.385,4,6,7.639,6,11.748v1.083
		c0,0.211,0.295,0.418,0.312,0.624C3.756,13.59,2,15.686,2,18.276v0.57C2,21.523,3.663,24,6.339,24h18.814
		C27.83,24,30,21.523,30,18.846v-0.57C30,16.072,28.519,14.232,26.505,13.644z"/>
</g>
<g id="rasterized">
	<g>
		<path d="M25.154,25H6.339C3.295,25,1,22.354,1,18.846v-0.57c0-2.75,1.621-4.939,4-5.612v-0.916C5,7.006,8.89,3,13.495,3h1.083
			c3.146,0,6.112,1.918,7.555,4.831c2.562,0.438,4.65,2.453,5.251,5.065C29.541,13.79,31,15.92,31,18.276v0.57
			C31,22.182,28.323,25,25.154,25z M7,12.614c0.14,0.2,0.282,0.44,0.309,0.759c0.022,0.27-0.065,0.537-0.243,0.74
			c-0.178,0.204-0.431,0.327-0.701,0.341C4.415,14.557,3,16.164,3,18.276v0.57C3,20.86,4.17,23,6.339,23h18.814
			C27.203,23,29,21.059,29,18.846v-0.57c0-1.711-1.116-3.187-2.776-3.671c-0.379-0.111-0.658-0.434-0.71-0.826
			c-0.291-2.149-2.067-3.88-4.131-4.027c-0.378-0.027-0.708-0.265-0.853-0.615C19.507,6.662,17.115,5,14.578,5h-1.083
			C10.035,5,7,8.153,7,11.748V12.614z"/>
	</g>
</g>
</svg>
