<?xml version="1.0" encoding="utf-8"?>
<!-- Generator: Adobe Illustrator 17.1.0, SVG Export Plug-In . SVG Version: 6.00 Build 0)  -->
<!DOCTYPE svg PUBLIC "-//W3C//DTD SVG 1.1//EN" "http://www.w3.org/Graphics/SVG/1.1/DTD/svg11.dtd">
<svg version="1.1" xmlns="http://www.w3.org/2000/svg" xmlns:xlink="http://www.w3.org/1999/xlink" x="0px" y="0px"
	 viewBox="0 0 32 32" enable-background="new 0 0 32 32" xml:space="preserve">
<g id="line" display="none">
	<g display="inline">
		<polygon fill="none" stroke="#FFFFFF" stroke-width="6" stroke-linecap="round" stroke-miterlimit="10" points="-5.331,13 -13,13 
			-13,6.23 		"/>
	</g>
	<g display="inline">
		<path d="M28.988,8.471C30.329,10.769,31,13.279,31,16c0,2.722-0.671,5.231-2.012,7.529c-1.341,2.298-3.161,4.118-5.459,5.459
			C21.231,30.329,18.721,31,16,31s-5.231-0.671-7.529-2.012s-4.118-3.161-5.459-5.459S1,18.722,1,16
			c0-2.721,0.671-5.231,2.012-7.529s3.161-4.118,5.459-5.459C10.769,1.671,13.279,1,16,1s5.231,0.671,7.529,2.012
			C25.827,4.353,27.647,6.173,28.988,8.471z M17.387,15.942c-0.273-0.638-0.618-1.361-1.035-2.168
			c-4.05,1.211-8.431,1.816-13.144,1.816c-0.013,0.091-0.02,0.228-0.02,0.41c0,1.615,0.287,3.154,0.86,4.619
			c0.573,1.465,1.38,2.777,2.422,3.936c0.651-1.159,1.455-2.243,2.412-3.252c0.957-1.009,1.885-1.82,2.783-2.432
			c0.899-0.612,1.748-1.139,2.549-1.582c0.801-0.443,1.448-0.755,1.943-0.937l0.723-0.254c0.052-0.013,0.137-0.036,0.254-0.068
			C17.25,15.997,17.335,15.968,17.387,15.942z M15.297,11.801c-1.562-2.774-3.151-5.234-4.765-7.383
			c-1.797,0.846-3.32,2.058-4.57,3.633c-1.25,1.576-2.084,3.347-2.5,5.313C7.393,13.363,11.338,12.843,15.297,11.801z M21,27.797
			c-0.547-3.138-1.459-6.38-2.735-9.726h-0.039l-0.039,0.019c-0.208,0.078-0.488,0.186-0.84,0.323
			c-0.351,0.137-1.009,0.456-1.972,0.957c-0.964,0.501-1.856,1.035-2.676,1.602c-0.821,0.567-1.674,1.312-2.559,2.237
			c-0.886,0.925-1.556,1.888-2.012,2.891l-0.293-0.215c2.396,1.953,5.117,2.93,8.164,2.93C17.719,28.813,19.385,28.474,21,27.797z
			 M12.934,3.559c-0.013,0-0.026,0.007-0.039,0.019C12.907,3.565,12.92,3.559,12.934,3.559z M24.457,6.391
			C22.048,4.255,19.229,3.187,16,3.187c-0.99,0-1.999,0.124-3.027,0.371c1.706,2.214,3.307,4.7,4.805,7.461
			c0.898-0.338,1.745-0.733,2.539-1.182c0.794-0.449,1.423-0.85,1.885-1.201c0.462-0.352,0.889-0.723,1.279-1.113
			c0.39-0.391,0.635-0.654,0.732-0.791C24.31,6.596,24.392,6.482,24.457,6.391z M28.813,15.863c-0.039-3.021-1.009-5.69-2.91-8.008
			l-0.019,0.019c-0.117,0.156-0.241,0.316-0.371,0.479c-0.13,0.163-0.413,0.453-0.85,0.869c-0.436,0.417-0.898,0.81-1.387,1.181
			c-0.488,0.371-1.14,0.795-1.953,1.27c-0.814,0.476-1.67,0.895-2.568,1.26c0.325,0.69,0.612,1.309,0.86,1.856
			c0.026,0.078,0.068,0.192,0.127,0.342c0.059,0.15,0.108,0.257,0.147,0.322c0.469-0.065,0.954-0.11,1.455-0.137
			c0.501-0.026,0.98-0.039,1.436-0.039c0.456,0,0.905,0.01,1.347,0.029c0.443,0.019,0.86,0.046,1.25,0.078
			c0.391,0.033,0.759,0.069,1.104,0.108c0.345,0.039,0.657,0.081,0.937,0.127c0.28,0.046,0.518,0.085,0.713,0.117
			c0.196,0.033,0.358,0.062,0.488,0.088L28.813,15.863z M28.656,18.031c-2.734-0.781-5.397-0.97-7.988-0.567
			c1.133,3.113,1.966,6.166,2.5,9.16c1.445-0.977,2.649-2.21,3.613-3.701C27.745,21.433,28.37,19.803,28.656,18.031z"/>
	</g>
</g>
<g id="rasterized">
	<g>
		<g>
			<path d="M28.988,8.471C30.329,10.769,31,13.279,31,16c0,2.722-0.671,5.231-2.012,7.529c-1.341,2.298-3.161,4.118-5.459,5.459
				C21.231,30.329,18.721,31,16,31s-5.231-0.671-7.529-2.012s-4.118-3.161-5.459-5.459S1,18.722,1,16
				c0-2.721,0.671-5.231,2.012-7.529s3.161-4.118,5.459-5.459C10.769,1.671,13.279,1,16,1s5.231,0.671,7.529,2.012
				C25.827,4.353,27.647,6.173,28.988,8.471z M17.387,15.942c-0.273-0.638-0.618-1.361-1.035-2.168
				c-4.05,1.211-8.431,1.816-13.144,1.816c-0.013,0.091-0.02,0.228-0.02,0.41c0,1.615,0.287,3.154,0.86,4.619
				c0.573,1.465,1.38,2.777,2.422,3.936c0.651-1.159,1.455-2.243,2.412-3.252c0.957-1.009,1.885-1.82,2.783-2.432
				c0.899-0.612,1.748-1.139,2.549-1.582c0.801-0.443,1.448-0.755,1.943-0.937l0.723-0.254c0.052-0.013,0.137-0.036,0.254-0.068
				C17.25,15.997,17.335,15.968,17.387,15.942z M15.297,11.801c-1.562-2.774-3.151-5.234-4.765-7.383
				c-1.797,0.846-3.32,2.058-4.57,3.633c-1.25,1.576-2.084,3.347-2.5,5.313C7.393,13.363,11.338,12.843,15.297,11.801z M21,27.797
				c-0.547-3.138-1.459-6.38-2.735-9.726h-0.039l-0.039,0.019c-0.208,0.078-0.488,0.186-0.84,0.323
				c-0.351,0.137-1.009,0.456-1.972,0.957c-0.964,0.501-1.856,1.035-2.676,1.602c-0.821,0.567-1.674,1.312-2.559,2.237
				c-0.886,0.925-1.556,1.888-2.012,2.891l-0.293-0.215c2.396,1.953,5.117,2.93,8.164,2.93C17.719,28.813,19.385,28.474,21,27.797z
				 M12.934,3.559c-0.013,0-0.026,0.007-0.039,0.019C12.907,3.565,12.92,3.559,12.934,3.559z M24.457,6.391
				C22.048,4.255,19.229,3.187,16,3.187c-0.99,0-1.999,0.124-3.027,0.371c1.706,2.214,3.307,4.7,4.805,7.461
				c0.898-0.338,1.745-0.733,2.539-1.182c0.794-0.449,1.423-0.85,1.885-1.201c0.462-0.352,0.889-0.723,1.279-1.113
				c0.39-0.391,0.635-0.654,0.732-0.791C24.31,6.596,24.392,6.482,24.457,6.391z M28.813,15.863c-0.039-3.021-1.009-5.69-2.91-8.008
				l-0.019,0.019c-0.117,0.156-0.241,0.316-0.371,0.479c-0.13,0.163-0.413,0.453-0.85,0.869c-0.436,0.417-0.898,0.81-1.387,1.181
				c-0.488,0.371-1.14,0.795-1.953,1.27c-0.814,0.476-1.67,0.895-2.568,1.26c0.325,0.69,0.612,1.309,0.86,1.856
				c0.026,0.078,0.068,0.192,0.127,0.342c0.059,0.15,0.108,0.257,0.147,0.322c0.469-0.065,0.954-0.11,1.455-0.137
				c0.501-0.026,0.98-0.039,1.436-0.039c0.456,0,0.905,0.01,1.347,0.029c0.443,0.019,0.86,0.046,1.25,0.078
				c0.391,0.033,0.759,0.069,1.104,0.108c0.345,0.039,0.657,0.081,0.937,0.127c0.28,0.046,0.518,0.085,0.713,0.117
				c0.196,0.033,0.358,0.062,0.488,0.088L28.813,15.863z M28.656,18.031c-2.734-0.781-5.397-0.97-7.988-0.567
				c1.133,3.113,1.966,6.166,2.5,9.16c1.445-0.977,2.649-2.21,3.613-3.701C27.745,21.433,28.37,19.803,28.656,18.031z"/>
		</g>
	</g>
</g>
</svg>
