<?xml version="1.0" encoding="utf-8"?>
<!-- Generator: Adobe Illustrator 17.1.0, SVG Export Plug-In . SVG Version: 6.00 Build 0)  -->
<!DOCTYPE svg PUBLIC "-//W3C//DTD SVG 1.1//EN" "http://www.w3.org/Graphics/SVG/1.1/DTD/svg11.dtd">
<svg version="1.1" xmlns="http://www.w3.org/2000/svg" xmlns:xlink="http://www.w3.org/1999/xlink" x="0px" y="0px"
	 viewBox="0 0 32 32" enable-background="new 0 0 32 32" xml:space="preserve">
<g id="line" display="none">
	
		<circle display="inline" fill="#FFFFFF" stroke="#000000" stroke-width="2" stroke-linejoin="round" stroke-miterlimit="10" cx="15.333" cy="15.667" r="4.767"/>
	<path display="inline" fill="none" stroke="#000000" stroke-width="2" stroke-linejoin="round" stroke-miterlimit="10" d="
		M29,15.667c0,0-6.119,7.946-13.667,7.946S1.667,15.667,1.667,15.667s6.119-7.946,13.667-7.946S29,15.667,29,15.667z"/>
	<g display="inline">
		<path fill="#FFFFFF" stroke="#000000" stroke-width="2" stroke-linejoin="round" stroke-miterlimit="10" d="M2,15.667
			c0,0,5.952-7.946,13.5-7.946S29,15.667,29,15.667l0,0c0,0-5.952-4.333-13.5-4.333S2,15.667,2,15.667L2,15.667z"/>
	</g>
</g>
<g id="rasterized">
	<path d="M29.973,15.832c0.007-0.044,0.02-0.085,0.021-0.13c0.003-0.072-0.01-0.142-0.023-0.214c-0.007-0.04-0.007-0.08-0.019-0.118
		c-0.027-0.086-0.071-0.166-0.122-0.244c-0.012-0.019-0.016-0.042-0.03-0.06c-0.001-0.001-0.006-0.007-0.007-0.009
		c0-0.001-0.001-0.001-0.001-0.002c-0.002-0.003-0.014-0.017-0.017-0.021C29.37,14.498,23.35,6.721,15.5,6.721
		c-0.028,0-0.055,0.005-0.083,0.005c-0.028,0-0.055-0.005-0.083-0.005c-7.949,0-14.197,7.995-14.459,8.335
		c-0.277,0.36-0.277,0.861,0,1.221c0.262,0.34,6.511,8.335,14.459,8.335s14.197-7.995,14.459-8.335
		c0.029-0.038,0.043-0.083,0.066-0.124c0.023-0.041,0.049-0.08,0.066-0.123C29.95,15.965,29.962,15.9,29.973,15.832z M19.101,15.667
		c0,2.078-1.69,3.768-3.767,3.768c-2.078,0-3.768-1.69-3.768-3.768c0-1.36,0.732-2.544,1.815-3.206
		c0.69-0.076,1.395-0.127,2.119-0.127c0.581,0,1.149,0.036,1.71,0.086C18.334,13.072,19.101,14.276,19.101,15.667z M15.5,10.333
		c-3.051,0-5.835,0.667-8.109,1.489c2.185-1.624,4.985-3.071,8.029-3.097c3,0.027,5.786,1.434,7.991,3.029
		C21.173,10.964,18.464,10.333,15.5,10.333z M15.333,22.612c-5.431,0-10.192-4.558-12.047-6.594
		c1.157-0.719,3.684-2.121,6.942-2.974c-0.41,0.789-0.662,1.673-0.662,2.622c0,3.18,2.587,5.768,5.768,5.768
		s5.767-2.587,5.767-5.768c0-0.989-0.272-1.906-0.714-2.719c3.249,0.794,5.821,2.162,7.112,2.941
		C25.744,17.848,20.905,22.612,15.333,22.612z"/>
</g>
</svg>
