<?xml version="1.0" encoding="utf-8"?>
<!-- Generator: Adobe Illustrator 17.1.0, SVG Export Plug-In . SVG Version: 6.00 Build 0)  -->
<!DOCTYPE svg PUBLIC "-//W3C//DTD SVG 1.1//EN" "http://www.w3.org/Graphics/SVG/1.1/DTD/svg11.dtd">
<svg version="1.1" xmlns="http://www.w3.org/2000/svg" xmlns:xlink="http://www.w3.org/1999/xlink" x="0px" y="0px"
	 viewBox="0 0 32 32" enable-background="new 0 0 32 32" xml:space="preserve">
<g id="line" display="none">
	
		<path display="inline" fill="none" stroke="#000000" stroke-width="2" stroke-linecap="round" stroke-linejoin="round" stroke-miterlimit="10" d="
		M30,28V4c0-1.105-0.895-2-2-2H4C2.895,2,2,2.895,2,4v24c0,0.254,0.052,0.495,0.138,0.718c0.219,0.497,0.679,0.946,1.18,1.155
		C3.532,29.951,3.76,30,4,30h14V19h-4v-5h4v-2.823c0-3.687,2.319-5.695,5.608-5.695c1.576,0,3.392,0.117,3.392,0.17V10h-2.76
		C22.451,10,22,10.356,22,11.604V14h4.258l-0.556,5H22v11h6C29.105,30,30,29.105,30,28z"/>
</g>
<g id="rasterized">
	<g>
		<path d="M28,31h-6c-0.552,0-1-0.448-1-1V19c0-0.552,0.448-1,1-1h2.808l0.333-3H22c-0.552,0-1-0.448-1-1v-2.396
			C21,9.315,22.557,9,24.24,9H26V6.555c-0.622-0.037-1.524-0.073-2.392-0.073C20.68,6.481,19,8.193,19,11.177V14
			c0,0.552-0.448,1-1,1h-3v3h3c0.552,0,1,0.448,1,1v11c0,0.552-0.448,1-1,1H4c-0.337,0-0.682-0.063-1.023-0.187
			c-0.777-0.322-1.433-0.964-1.753-1.691C1.069,28.725,1,28.362,1,28V4c0-1.654,1.346-3,3-3h24c1.654,0,3,1.346,3,3v24
			C31,29.654,29.654,31,28,31z M23,29h5c0.551,0,1-0.449,1-1V4c0-0.551-0.449-1-1-1H4C3.449,3,3,3.449,3,4v24
			c0,0.116,0.023,0.233,0.071,0.358c0.098,0.22,0.365,0.481,0.632,0.592C3.784,28.978,3.895,29,4,29h13v-9h-3c-0.552,0-1-0.448-1-1
			v-5c0-0.552,0.448-1,1-1h3v-1.823c0-4.067,2.594-6.695,6.608-6.695c3.858,0,4.392,0.142,4.392,1.17V10c0,0.552-0.448,1-1,1h-2.76
			c-0.941,0-1.161,0.114-1.2,0.141c0.006,0.001-0.04,0.111-0.04,0.463V13h3.258c0.285,0,0.556,0.121,0.745,0.333
			c0.19,0.212,0.28,0.495,0.249,0.777l-0.556,5C26.64,19.617,26.212,20,25.703,20H23V29z"/>
	</g>
</g>
</svg>
