<?xml version="1.0" encoding="utf-8"?>
<!-- Generator: Adobe Illustrator 17.1.0, SVG Export Plug-In . SVG Version: 6.00 Build 0)  -->
<!DOCTYPE svg PUBLIC "-//W3C//DTD SVG 1.1//EN" "http://www.w3.org/Graphics/SVG/1.1/DTD/svg11.dtd">
<svg version="1.1" xmlns="http://www.w3.org/2000/svg" xmlns:xlink="http://www.w3.org/1999/xlink" x="0px" y="0px"
	 viewBox="0 0 32 32" enable-background="new 0 0 32 32" xml:space="preserve">
<g id="line" display="none">
	<g display="inline">
		<path fill="none" stroke="#000000" stroke-width="2" stroke-linecap="round" stroke-linejoin="round" stroke-miterlimit="10" d="
			M15.251,29.071L2.429,16.249c-0.572-0.572-0.572-1.499,0-2.071L14.678,1.929c0.572-0.572,1.499-0.572,2.071,0l12.822,12.822
			c0.572,0.572,0.572,1.499,0,2.071L17.322,29.071C16.75,29.643,15.823,29.643,15.251,29.071z"/>
		
			<line fill="none" stroke="#000000" stroke-width="2" stroke-linecap="round" stroke-linejoin="round" stroke-miterlimit="10" x1="18.005" y1="4.33" x2="4.257" y2="18.078"/>
		
			<line fill="none" stroke="#000000" stroke-width="2" stroke-linecap="round" stroke-linejoin="round" stroke-miterlimit="10" x1="12.85" y1="3.757" x2="15.714" y2="6.622"/>
		
			<line fill="none" stroke="#000000" stroke-width="2" stroke-linecap="round" stroke-linejoin="round" stroke-miterlimit="10" x1="9.986" y1="6.622" x2="12.85" y2="9.486"/>
		
			<line fill="none" stroke="#000000" stroke-width="2" stroke-linecap="round" stroke-linejoin="round" stroke-miterlimit="10" x1="7.122" y1="9.486" x2="9.986" y2="12.35"/>
		
			<line fill="none" stroke="#000000" stroke-width="2" stroke-linecap="round" stroke-linejoin="round" stroke-miterlimit="10" x1="4.257" y1="12.35" x2="7.122" y2="15.214"/>
		
			<line fill="none" stroke="#000000" stroke-width="2" stroke-linecap="round" stroke-linejoin="round" stroke-miterlimit="10" x1="27.17" y1="13.495" x2="13.422" y2="27.243"/>
		
			<line fill="none" stroke="#000000" stroke-width="2" stroke-linecap="round" stroke-linejoin="round" stroke-miterlimit="10" x1="27.743" y1="18.65" x2="24.878" y2="15.786"/>
		
			<line fill="none" stroke="#000000" stroke-width="2" stroke-linecap="round" stroke-linejoin="round" stroke-miterlimit="10" x1="24.878" y1="21.514" x2="22.014" y2="18.65"/>
		
			<line fill="none" stroke="#000000" stroke-width="2" stroke-linecap="round" stroke-linejoin="round" stroke-miterlimit="10" x1="22.014" y1="24.378" x2="19.15" y2="21.514"/>
		
			<line fill="none" stroke="#000000" stroke-width="2" stroke-linecap="round" stroke-linejoin="round" stroke-miterlimit="10" x1="19.15" y1="27.243" x2="16.286" y2="24.378"/>
		
			<line fill="none" stroke="#000000" stroke-width="2" stroke-linecap="round" stroke-linejoin="round" stroke-miterlimit="10" x1="11.131" y1="11.204" x2="20.296" y2="20.369"/>
	</g>
</g>
<g id="rasterized">
	<path d="M30.278,14.044L17.456,1.222C16.991,0.756,16.372,0.5,15.713,0.5c-0.658,0-1.277,0.256-1.742,0.722l-12.25,12.25
		C1.256,13.937,1,14.555,1,15.213c0,0.659,0.256,1.277,0.722,1.743l12.822,12.822c0.465,0.465,1.084,0.722,1.743,0.722
		c0.658,0,1.277-0.256,1.742-0.722l12.25-12.25C30.744,17.063,31,16.445,31,15.787C31,15.128,30.744,14.509,30.278,14.044z
		 M24.878,20.101l-1.45-1.45l1.45-1.45l1.45,1.45L24.878,20.101z M22.015,22.964l-1.45-1.45l1.45-1.45l1.45,1.45L22.015,22.964z
		 M19.15,25.829l-1.45-1.45l1.45-1.45l1.45,1.45L19.15,25.829z M13.422,25.829l-7.751-7.751l5.46-5.46l7.751,7.751L13.422,25.829z
		 M7.122,10.899l1.45,1.45l-1.45,1.45l-1.45-1.45L7.122,10.899z M9.985,8.036l1.45,1.45l-1.45,1.45l-1.45-1.45L9.985,8.036z
		 M12.85,5.171l1.45,1.45l-1.45,1.45l-1.45-1.45L12.85,5.171z M20.296,18.955l-7.751-7.751l6.032-6.032l7.751,7.751L20.296,18.955z
		 M15.713,2.5c0.072,0,0.21,0.018,0.329,0.136l1.122,1.122l-1.45,1.45l-1.45-1.45l1.122-1.122C15.503,2.518,15.642,2.5,15.713,2.5z
		 M3,15.213c0-0.072,0.018-0.21,0.136-0.328l1.122-1.122l1.45,1.45l-1.45,1.45l-1.122-1.122C3.018,15.424,3,15.286,3,15.213z
		 M16.287,28.5c-0.072,0-0.21-0.018-0.329-0.136l-1.122-1.122l1.45-1.45l1.45,1.45l-1.122,1.122
		C16.497,28.482,16.358,28.5,16.287,28.5z M28.864,16.115l-1.122,1.122l-1.45-1.45l1.45-1.45l1.122,1.122
		C28.982,15.576,29,15.714,29,15.787C29,15.858,28.982,15.997,28.864,16.115z"/>
</g>
</svg>
