<?xml version="1.0" encoding="utf-8"?>
<!-- Generator: Adobe Illustrator 17.1.0, SVG Export Plug-In . SVG Version: 6.00 Build 0)  -->
<!DOCTYPE svg PUBLIC "-//W3C//DTD SVG 1.1//EN" "http://www.w3.org/Graphics/SVG/1.1/DTD/svg11.dtd">
<svg version="1.1" xmlns="http://www.w3.org/2000/svg" xmlns:xlink="http://www.w3.org/1999/xlink" x="0px" y="0px"
	 viewBox="0 0 32 32" enable-background="new 0 0 32 32" xml:space="preserve">
<g id="line" display="none">
	<g display="inline">
		<path fill="none" stroke="#000000" stroke-width="2" stroke-linecap="round" stroke-linejoin="round" stroke-miterlimit="10" d="
			M24.75,2c1.446,0,2.684,0.514,3.71,1.541C29.487,4.568,30,5.804,30,7.25v17.5c0,1.446-0.513,2.682-1.541,3.71
			C27.433,29.487,26.196,30,24.75,30H7.25c-1.446,0-2.684-0.513-3.71-1.539C2.513,27.433,2,26.197,2,24.751V7.25
			c0-1.446,0.513-2.682,1.541-3.71C4.567,2.514,5.804,2,7.25,2H24.75z M13.593,18.735c0.754-0.754,1.131-1.664,1.131-2.734
			c0-1.07-0.377-1.981-1.131-2.734c-0.754-0.754-1.664-1.131-2.734-1.131s-1.981,0.377-2.734,1.131
			c-0.754,0.754-1.13,1.664-1.13,2.734c0,1.07,0.376,1.981,1.13,2.734c0.754,0.754,1.664,1.13,2.734,1.13
			S12.84,19.489,13.593,18.735z M23.875,18.735c0.754-0.754,1.13-1.664,1.13-2.734c0-1.07-0.376-1.981-1.13-2.734
			c-0.754-0.754-1.666-1.131-2.734-1.131c-1.07,0-1.981,0.377-2.734,1.131c-0.754,0.754-1.13,1.664-1.13,2.734
			c0,1.07,0.376,1.981,1.13,2.734c0.754,0.754,1.664,1.13,2.734,1.13C22.209,19.865,23.121,19.489,23.875,18.735z"/>
	</g>
</g>
<g id="rasterized">
	<g>
		<g>
			<path d="M24.75,31H7.25c-1.715,0-3.201-0.616-4.417-1.832C1.617,27.951,1,26.465,1,24.751V7.25C1,5.536,1.617,4.05,2.833,2.833
				C4.051,1.617,5.537,1,7.25,1H24.75c1.714,0,3.2,0.617,4.417,1.833C30.383,4.05,31,5.536,31,7.25v17.5
				c0,1.714-0.617,3.2-1.833,4.417C27.95,30.384,26.464,31,24.75,31z M7.25,3C6.07,3,5.087,3.408,4.248,4.248
				C3.408,5.087,3,6.069,3,7.25v17.5c0,1.181,0.408,2.163,1.248,3.003C5.086,28.592,6.069,29,7.25,29H24.75
				c1.182,0,2.164-0.408,3.003-1.246C28.592,26.914,29,25.932,29,24.751V7.25c0-1.181-0.408-2.163-1.248-3.003
				C26.913,3.408,25.93,3,24.75,3H7.25z M21.141,20.865c-1.34,0-2.498-0.479-3.441-1.423S16.277,17.34,16.277,16
				c0-1.34,0.479-2.498,1.423-3.441c0.944-0.944,2.102-1.424,3.441-1.424c1.338,0,2.497,0.479,3.441,1.424
				c0.944,0.944,1.423,2.102,1.423,3.441c0,1.339-0.479,2.497-1.422,3.441C23.638,20.386,22.48,20.865,21.141,20.865z
				 M21.141,13.135c-0.8,0-1.463,0.274-2.026,0.838C18.551,14.537,18.277,15.2,18.277,16s0.274,1.464,0.837,2.027
				c0.563,0.563,1.226,0.837,2.027,0.837s1.464-0.274,2.027-0.837c0.563-0.563,0.837-1.227,0.837-2.027s-0.274-1.463-0.837-2.027
				C22.604,13.41,21.94,13.135,21.141,13.135z M10.859,20.865c-1.339,0-2.498-0.479-3.441-1.423C6.474,18.497,5.995,17.339,5.995,16
				c0-1.339,0.479-2.497,1.423-3.441c0.945-0.945,2.103-1.424,3.441-1.424c1.339,0,2.497,0.479,3.441,1.424
				c0.944,0.944,1.424,2.102,1.424,3.441c0,1.338-0.479,2.497-1.424,3.441C13.357,20.386,12.199,20.865,10.859,20.865z
				 M10.859,13.135c-0.8,0-1.463,0.274-2.027,0.838C8.269,14.537,7.995,15.2,7.995,16s0.274,1.464,0.837,2.027
				c0.563,0.563,1.226,0.837,2.027,0.837s1.464-0.274,2.026-0.837C13.45,17.463,13.725,16.8,13.725,16s-0.274-1.463-0.838-2.026
				C12.322,13.41,11.659,13.135,10.859,13.135z"/>
		</g>
	</g>
</g>
</svg>
