<?xml version="1.0" encoding="utf-8"?>
<!-- Generator: Adobe Illustrator 17.1.0, SVG Export Plug-In . SVG Version: 6.00 Build 0)  -->
<!DOCTYPE svg PUBLIC "-//W3C//DTD SVG 1.1//EN" "http://www.w3.org/Graphics/SVG/1.1/DTD/svg11.dtd">
<svg version="1.1" xmlns="http://www.w3.org/2000/svg" xmlns:xlink="http://www.w3.org/1999/xlink" x="0px" y="0px"
	 viewBox="0 0 32 32" enable-background="new 0 0 32 32" xml:space="preserve">
<g id="line" display="none">
	<g display="inline">
		<path fill="none" stroke="#FFFFFF" stroke-width="6" stroke-linecap="round" stroke-linejoin="round" stroke-miterlimit="10" d="
			M37,8V5.878C37,5.076,38.076,4,38.878,4h6.726C46.406,4,47,7.002,47,7.804V9h14v14.968C61,25.407,60.333,27,58.894,27H38.106
			C36.667,27,35,25.407,35,23.968V8H37z"/>
	</g>
	
		<path display="inline" fill="none" stroke="#000000" stroke-width="2" stroke-linecap="round" stroke-linejoin="round" stroke-miterlimit="10" d="
		M3,5.878C3,5.076,4.15,4,4.952,4h8.652C14.406,4,15,5.076,15,5.878V9h14v14.968C29,25.407,27.333,27,25.894,27H6.106
		C4.667,27,3,25.407,3,23.968V5.878z"/>
</g>
<g id="rasterized">
	<g>
		<path d="M25.894,28H6.106C4.11,28,2,25.928,2,23.968V5.878C2,4.533,3.573,3,4.952,3h8.651C15.016,3,16,4.517,16,5.878V8h13
			c0.552,0,1,0.448,1,1v14.968C30,25.928,27.89,28,25.894,28z M13.577,4.997L4.952,5C4.663,5.021,4,5.603,4,5.889v18.079
			C4,24.842,5.201,26,6.106,26h19.788C26.799,26,28,24.842,28,23.968V10H15c-0.552,0-1-0.448-1-1V5.878
			C14,5.488,13.716,5.047,13.577,4.997z"/>
	</g>
</g>
</svg>
