<?xml version="1.0" encoding="utf-8"?>
<!-- Generator: Adobe Illustrator 17.1.0, SVG Export Plug-In . SVG Version: 6.00 Build 0)  -->
<!DOCTYPE svg PUBLIC "-//W3C//DTD SVG 1.1//EN" "http://www.w3.org/Graphics/SVG/1.1/DTD/svg11.dtd">
<svg version="1.1" xmlns="http://www.w3.org/2000/svg" xmlns:xlink="http://www.w3.org/1999/xlink" x="0px" y="0px"
	 viewBox="0 0 32 32" enable-background="new 0 0 32 32" xml:space="preserve">
<g id="line" display="none">
	<path display="inline" fill="#FFFFFF" stroke="#000000" stroke-width="2" stroke-linejoin="round" stroke-miterlimit="10" d="
		M3,25.501V5.499C3,4.12,4.455,3.226,5.684,3.85l14.729,10.001c1.35,0.685,1.35,2.613,0,3.298L5.684,27.15
		C4.455,27.774,3,26.88,3,25.501z"/>
	<path display="inline" fill="#FFFFFF" stroke="#000000" stroke-width="2" stroke-linejoin="round" stroke-miterlimit="10" d="
		M26.516,3h-2.699c-1.188,0-2.15,0.963-2.15,2.15V25.85c0,1.188,0.963,2.15,2.15,2.15h2.699c1.188,0,2.15-0.963,2.15-2.15V5.15
		C28.667,3.963,27.704,3,26.516,3z"/>
</g>
<g id="rasterized">
	<path d="M26.891,3h-2.699C22.455,3,21,3.413,21,5.15v7.663L6.6,3.022C6.565,2.999,6.539,2.977,6.501,2.958
		c-0.406-0.206-1.021-0.31-1.469-0.31C3.461,2.647,2,3.927,2,5.499v20.003c0,1.572,1.466,2.851,3.037,2.851
		c0.448,0,0.975-0.104,1.38-0.31c0.038-0.019,0.101-0.041,0.136-0.065L21,18.186v7.663c0,1.737,1.455,4.15,3.192,4.15h2.699
		C28.628,30,30,27.587,30,25.85V5.15C30,3.413,28.628,3,26.891,3z M20.337,16.257c-0.038,0.02-0.075,0.041-0.109,0.065L5.373,26.281
		C4.876,26.496,4,26.173,4,25.501V5.499c0-0.525,0.628-0.851,1.037-0.851c0.114,0,0.321,0.024,0.429,0.072l14.714,9.959
		c0.035,0.024,0.095,0.045,0.133,0.065c0.419,0.212,0.477,0.6,0.477,0.757S20.756,16.044,20.337,16.257z M28,26.85
		c0,0.635-0.515,1.15-1.15,1.15H24.15C23.515,28,23,27.485,23,26.85V6.15C23,5.515,23.515,5,24.15,5h2.699
		C27.485,5,28,5.515,28,6.15V26.85z"/>
</g>
</svg>
