<?xml version="1.0" encoding="utf-8"?>
<!-- Generator: Adobe Illustrator 17.1.0, SVG Export Plug-In . SVG Version: 6.00 Build 0)  -->
<!DOCTYPE svg PUBLIC "-//W3C//DTD SVG 1.1//EN" "http://www.w3.org/Graphics/SVG/1.1/DTD/svg11.dtd">
<svg version="1.1" xmlns="http://www.w3.org/2000/svg" xmlns:xlink="http://www.w3.org/1999/xlink" x="0px" y="0px"
	 viewBox="0 0 32 32" enable-background="new 0 0 32 32" xml:space="preserve">
<g id="line" display="none">
	<path display="inline" fill="#FFFFFF" stroke="#000000" stroke-width="2" stroke-linejoin="round" stroke-miterlimit="10" d="
		M28,22.6c0,1.325-1.207,2.4-2.285,2.4H7.285C6.207,25,5,23.925,5,22.6V8.4C5,7.075,6.207,6,7.285,6h18.429
		C26.793,6,28,7.075,28,8.4V22.6z"/>
	<g display="inline">
		
			<polyline fill="none" stroke="#000000" stroke-width="2" stroke-linecap="round" stroke-linejoin="round" stroke-miterlimit="10" points="
			25,18 25,22 21,22 		"/>
		
			<line fill="none" stroke="#000000" stroke-width="2" stroke-linecap="round" stroke-linejoin="round" stroke-miterlimit="10" x1="25" y1="22" x2="20.251" y2="17.11"/>
	</g>
	<g display="inline">
		
			<polyline fill="none" stroke="#000000" stroke-width="2" stroke-linecap="round" stroke-linejoin="round" stroke-miterlimit="10" points="
			12,22 8,22 8,18 		"/>
		
			<line fill="none" stroke="#000000" stroke-width="2" stroke-linecap="round" stroke-linejoin="round" stroke-miterlimit="10" x1="8.18" y1="21.93" x2="13.07" y2="17.18"/>
	</g>
	<g display="inline">
		
			<polyline fill="none" stroke="#000000" stroke-width="2" stroke-linecap="round" stroke-linejoin="round" stroke-miterlimit="10" points="
			25,13 25,9 21,9 		"/>
		
			<line fill="none" stroke="#000000" stroke-width="2" stroke-linecap="round" stroke-linejoin="round" stroke-miterlimit="10" x1="25" y1="9.11" x2="20.251" y2="14"/>
	</g>
	<g display="inline">
		
			<polyline fill="none" stroke="#000000" stroke-width="2" stroke-linecap="round" stroke-linejoin="round" stroke-miterlimit="10" points="
			12,9 8,9 8,13 		"/>
		
			<line fill="none" stroke="#000000" stroke-width="2" stroke-linecap="round" stroke-linejoin="round" stroke-miterlimit="10" x1="8.18" y1="9.18" x2="13.07" y2="13.93"/>
	</g>
</g>
<g id="rasterized">
	<g>
		<path d="M25.715,5H7.285C5.734,5,4,6.454,4,8.4v14.2C4,24.546,5.734,26,7.285,26h18.43C27.266,26,29,24.546,29,22.6V8.4
			C29,6.454,27.266,5,25.715,5z M27,22.6c0,0.799-0.78,1.4-1.285,1.4H7.285C6.78,24,6,23.399,6,22.6V8.4C6,7.601,6.78,7,7.285,7
			h18.43C26.22,7,27,7.601,27,8.4V22.6z"/>
		<path d="M25,17c-0.552,0-1,0.448-1,1v1.535l-3.032-3.122c-0.384-0.396-1.018-0.406-1.414-0.021
			c-0.396,0.385-0.405,1.018-0.021,1.414L22.635,21H21c-0.552,0-1,0.448-1,1s0.448,1,1,1h4c0.129,0,0.258-0.027,0.379-0.077
			c0.071-0.029,0.129-0.079,0.191-0.124c0.042-0.03,0.089-0.046,0.127-0.083c0.002-0.002,0.002-0.004,0.004-0.006
			c0.089-0.088,0.161-0.193,0.212-0.31c0.002-0.004,0.006-0.008,0.008-0.012c0.002-0.005,0.001-0.012,0.004-0.017
			c0.047-0.117,0.073-0.241,0.074-0.365C25.999,22.005,26,22.003,26,22v-4C26,17.448,25.552,17,25,17z"/>
		<path d="M12.374,16.463L9,19.739V18c0-0.552-0.448-1-1-1s-1,0.448-1,1v4c0,0.552,0.448,1,1,1h4c0.552,0,1-0.448,1-1s-0.448-1-1-1
			h-1.427l3.194-3.103c0.396-0.385,0.405-1.018,0.021-1.414C13.403,16.087,12.77,16.077,12.374,16.463z"/>
		<path d="M25,8h-4c-0.552,0-1,0.448-1,1s0.448,1,1,1h1.741l-3.208,3.303c-0.385,0.396-0.375,1.029,0.021,1.414
			C19.748,14.906,20,15,20.25,15c0.261,0,0.521-0.102,0.717-0.303L24,11.574V13c0,0.552,0.448,1,1,1s1-0.448,1-1V9
			C26,8.448,25.552,8,25,8z"/>
		<path d="M10.46,10H12c0.552,0,1-0.448,1-1s-0.448-1-1-1H8C7.448,8,7,8.448,7,9v4c0,0.552,0.448,1,1,1s1-0.448,1-1v-1.63
			l3.374,3.277c0.194,0.189,0.446,0.283,0.697,0.283c0.261,0,0.521-0.102,0.717-0.303c0.385-0.396,0.375-1.029-0.021-1.414L10.46,10
			z"/>
	</g>
</g>
</svg>
