<?xml version="1.0" encoding="utf-8"?>
<!-- Generator: Adobe Illustrator 17.1.0, SVG Export Plug-In . SVG Version: 6.00 Build 0)  -->
<!DOCTYPE svg PUBLIC "-//W3C//DTD SVG 1.1//EN" "http://www.w3.org/Graphics/SVG/1.1/DTD/svg11.dtd">
<svg version="1.1" xmlns="http://www.w3.org/2000/svg" xmlns:xlink="http://www.w3.org/1999/xlink" x="0px" y="0px"
	 viewBox="0 0 32 32" enable-background="new 0 0 32 32" xml:space="preserve">
<g id="line" display="none">
	
		<path display="inline" fill="none" stroke="#000000" stroke-width="2" stroke-linecap="round" stroke-linejoin="round" stroke-miterlimit="10" d="
		M30,26.76c0,1.237-1.003,2.24-2.24,2.24H4.24C3.003,29,2,27.997,2,26.76V5.24C2,4.003,3.003,3,4.24,3h23.52
		C28.997,3,30,4.003,30,5.24V26.76z"/>
	
		<path display="inline" fill="none" stroke="#FFFFFF" stroke-width="6" stroke-linecap="round" stroke-linejoin="round" stroke-miterlimit="10" d="
		M10,39c0,1.105-0.895,2-2,2l0,0c-1.105,0-2-0.895-2-2v-3c0-1.105,0.895-2,2-2l0,0c1.105,0,2,0.895,2,2V39z"/>
	
		<path display="inline" fill="none" stroke="#FFFFFF" stroke-width="6" stroke-linecap="round" stroke-linejoin="round" stroke-miterlimit="10" d="
		M26,39c0,1.105-0.895,2-2,2l0,0c-1.105,0-2-0.895-2-2v-3c0-1.105,0.895-2,2-2l0,0c1.105,0,2,0.895,2,2V39z"/>
</g>
<g id="rasterized">
	<g>
		<path d="M27.76,30H4.24C2.454,30,1,28.546,1,26.76V5.24C1,3.454,2.454,2,4.24,2h23.52C29.546,2,31,3.454,31,5.24v21.52
			C31,28.546,29.546,30,27.76,30z M4.24,4C3.556,4,3,4.556,3,5.24v21.52C3,27.444,3.556,28,4.24,28h23.52
			c0.684,0,1.24-0.556,1.24-1.24V5.24C29,4.556,28.444,4,27.76,4H4.24z"/>
	</g>
</g>
</svg>
