<?xml version="1.0" encoding="utf-8"?>
<!-- Generator: Adobe Illustrator 17.1.0, SVG Export Plug-In . SVG Version: 6.00 Build 0)  -->
<!DOCTYPE svg PUBLIC "-//W3C//DTD SVG 1.1//EN" "http://www.w3.org/Graphics/SVG/1.1/DTD/svg11.dtd">
<svg version="1.1" xmlns="http://www.w3.org/2000/svg" xmlns:xlink="http://www.w3.org/1999/xlink" x="0px" y="0px"
	 viewBox="0 0 32 32" enable-background="new 0 0 32 32" xml:space="preserve">
<g id="line" display="none">
	<g display="inline">
		<polygon fill="none" stroke="#FFFFFF" stroke-width="6" stroke-linecap="round" stroke-miterlimit="10" points="-5.36,10 -14,10 
			-14,1.5 		"/>
	</g>
	
		<path display="inline" fill="none" stroke="#000000" stroke-width="2" stroke-linecap="round" stroke-linejoin="round" stroke-miterlimit="10" d="
		M26.86,13h-0.979c-0.248-1-0.617-1.952-1.095-2.772l0.691-0.754c0.445-0.445,0.445-1.198,0-1.643L23.2,5.538
		c-0.445-0.445-1.167-0.453-1.612-0.008l-0.816,0.687C19.952,5.74,19,5.367,18,5.118V4.14C18,3.51,17.74,3,17.11,3H13.89
		C13.26,3,13,3.51,13,4.14v0.979c-1,0.248-1.952,0.617-2.772,1.095L9.474,5.522c-0.445-0.445-1.198-0.445-1.643,0L5.538,7.8
		C5.093,8.245,5.085,8.966,5.53,9.412l0.687,0.816C5.74,11.048,5.367,12,5.118,13H4.14C3.51,13,3,13.26,3,13.89v3.221
		C3,17.74,3.51,18,4.14,18h0.979c0.248,1,0.617,1.952,1.095,2.772l-0.691,0.754c-0.445,0.445-0.445,1.198,0,1.643L7.8,25.462
		c0.445,0.445,1.167,0.453,1.612,0.008l0.816-0.687C11.048,25.26,12,25.633,13,25.882v0.979C13,27.49,13.26,28,13.89,28h3.221
		C17.74,28,18,27.49,18,26.86v-0.979c1-0.248,1.952-0.617,2.772-1.095l0.754,0.691c0.445,0.445,1.198,0.445,1.643,0l2.293-2.277
		c0.445-0.445,0.453-1.167,0.008-1.612l-0.687-0.816C25.26,19.952,25.633,19,25.882,18h0.979C27.49,18,28,17.74,28,17.11V13.89
		C28,13.26,27.49,13,26.86,13z"/>
	
		<circle display="inline" fill="none" stroke="#000000" stroke-width="2" stroke-linecap="round" stroke-linejoin="round" stroke-miterlimit="10" cx="15.5" cy="15.5" r="6.75"/>
</g>
<g id="rasterized">
	<g>
		<path d="M26.86,12H26.64c-0.179-0.572-0.392-1.113-0.639-1.618l0.184-0.201c0.843-0.843,0.843-2.214,0.002-3.055l-2.28-2.295
			c-0.811-0.81-2.283-0.756-2.963-0.066l-0.298,0.251C20.132,4.764,19.577,4.543,19,4.361V4.14C19,2.86,18.241,2,17.11,2H13.89
			C12.759,2,12,2.86,12,4.14V4.36c-0.572,0.179-1.113,0.392-1.618,0.639l-0.201-0.184C9.373,4.007,7.93,4.01,7.126,4.813
			l-2.295,2.28c-0.836,0.836-0.84,2.194-0.066,2.963l0.251,0.298C4.764,10.868,4.543,11.423,4.361,12H4.14C2.86,12,2,12.759,2,13.89
			v3.221C2,18.241,2.86,19,4.14,19H4.36c0.179,0.572,0.392,1.113,0.639,1.618l-0.184,0.201c-0.843,0.843-0.843,2.214-0.002,3.055
			l2.28,2.296c0.81,0.809,2.282,0.756,2.962,0.065l0.298-0.251c0.514,0.252,1.069,0.473,1.646,0.655v0.222
			c0,1.28,0.759,2.14,1.89,2.14h3.221c1.13,0,1.89-0.86,1.89-2.14V26.64c0.572-0.179,1.113-0.392,1.618-0.639l0.201,0.184
			c0.808,0.809,2.251,0.806,3.054,0.002l2.295-2.28c0.836-0.836,0.84-2.194,0.066-2.963l-0.251-0.298
			c0.252-0.514,0.473-1.069,0.655-1.646h0.222c1.28,0,2.14-0.759,2.14-1.89V13.89C29,12.759,28.14,12,26.86,12z M27,16.991
			C26.963,16.996,26.917,17,26.86,17h-0.979c-0.459,0-0.86,0.313-0.971,0.759c-0.228,0.919-0.571,1.787-0.993,2.511
			c-0.212,0.365-0.173,0.824,0.099,1.147l0.745,0.879c0.052,0.052,0.049,0.141-0.005,0.195l-2.295,2.279
			c-0.073,0.074-0.124,0.105-0.261-0.029l-0.753-0.691c-0.322-0.296-0.8-0.348-1.179-0.127c-0.716,0.417-1.584,0.759-2.511,0.989
			C17.313,25.022,17,25.422,17,25.882v0.979c0,0.057-0.004,0.103-0.009,0.14h-2.982C14.004,26.963,14,26.917,14,26.86v-0.979
			c0-0.459-0.313-0.86-0.759-0.971c-0.919-0.228-1.787-0.571-2.511-0.993c-0.364-0.212-0.824-0.172-1.147,0.099l-0.816,0.687
			c-0.022,0.019-0.134,0.075-0.154,0.095c-0.028,0-0.069-0.008-0.104-0.042l-2.28-2.295c-0.055-0.055-0.055-0.174,0.03-0.26
			l0.691-0.753c0.296-0.323,0.348-0.8,0.127-1.179c-0.417-0.716-0.759-1.584-0.989-2.511C5.978,17.313,5.578,17,5.118,17H4.14
			C4.083,17,4.037,16.996,4,16.991v-2.982C4.037,14.004,4.083,14,4.14,14h0.979c0.459,0,0.86-0.313,0.971-0.759
			c0.228-0.919,0.571-1.787,0.993-2.511c0.212-0.365,0.173-0.824-0.099-1.147L6.237,8.705C6.185,8.652,6.188,8.563,6.243,8.509
			l2.295-2.28c0.074-0.073,0.123-0.105,0.26,0.03L9.552,6.95c0.322,0.296,0.801,0.349,1.179,0.127
			c0.716-0.417,1.584-0.759,2.511-0.989C13.687,5.978,14,5.578,14,5.118V4.14c0-0.057,0.004-0.103,0.009-0.14h2.982
			C16.996,4.037,17,4.083,17,4.14v0.979c0,0.459,0.313,0.86,0.759,0.971c0.919,0.228,1.787,0.571,2.511,0.993
			c0.365,0.212,0.824,0.173,1.147-0.099l0.816-0.687c0.022-0.019,0.134-0.075,0.154-0.095c0.028,0,0.069,0.008,0.104,0.042
			l2.28,2.295c0.055,0.055,0.055,0.174-0.03,0.26L24.05,9.552c-0.296,0.323-0.348,0.8-0.127,1.179
			c0.417,0.716,0.759,1.584,0.989,2.511C25.022,13.687,25.422,14,25.882,14h0.979c0.057,0,0.103,0.004,0.14,0.009V16.991z"/>
		<path d="M15.5,7.75c-4.273,0-7.75,3.477-7.75,7.75s3.477,7.75,7.75,7.75s7.75-3.477,7.75-7.75S19.773,7.75,15.5,7.75z M15.5,21.25
			c-3.17,0-5.75-2.58-5.75-5.75s2.58-5.75,5.75-5.75s5.75,2.58,5.75,5.75S18.67,21.25,15.5,21.25z"/>
	</g>
</g>
</svg>
