<?xml version="1.0" encoding="utf-8"?>
<!-- Generator: Adobe Illustrator 17.1.0, SVG Export Plug-In . SVG Version: 6.00 Build 0)  -->
<!DOCTYPE svg PUBLIC "-//W3C//DTD SVG 1.1//EN" "http://www.w3.org/Graphics/SVG/1.1/DTD/svg11.dtd">
<svg version="1.1" xmlns="http://www.w3.org/2000/svg" xmlns:xlink="http://www.w3.org/1999/xlink" x="0px" y="0px"
	 viewBox="0 0 32 32" enable-background="new 0 0 32 32" xml:space="preserve">
<g id="line" display="none">
	<g display="inline">
		<path stroke="#000000" stroke-linejoin="round" stroke-miterlimit="10" d="M13.604,3.356h6.791l-2.098,1.228H16.2
			c0.735,0.466,1.305,1.119,1.709,1.958c0.404,0.839,0.606,1.715,0.606,2.626c0,0.767-0.119,1.448-0.357,2.043
			c-0.238,0.596-0.528,1.075-0.87,1.437c-0.342,0.363-0.684,0.697-1.026,1.003c-0.342,0.306-0.632,0.621-0.87,0.948
			c-0.238,0.326-0.357,0.676-0.357,1.049c0,0.27,0.085,0.534,0.256,0.793c0.171,0.259,0.393,0.508,0.668,0.746
			c0.274,0.238,0.577,0.487,0.909,0.746c0.331,0.259,0.663,0.547,0.994,0.863c0.331,0.316,0.634,0.658,0.909,1.026
			c0.274,0.368,0.497,0.808,0.668,1.321c0.171,0.513,0.257,1.064,0.257,1.655c0,1.657-0.725,3.118-2.176,4.382
			c-1.575,1.357-3.75,2.036-6.527,2.036c-0.611,0-1.23-0.052-1.857-0.156c-0.627-0.104-1.259-0.277-1.896-0.52
			c-0.637-0.244-1.199-0.544-1.686-0.901c-0.487-0.357-0.886-0.819-1.197-1.383c-0.311-0.565-0.466-1.194-0.466-1.888
			c0-0.632,0.192-1.331,0.575-2.098c0.331-0.663,0.829-1.235,1.492-1.717c0.663-0.481,1.414-0.849,2.253-1.103
			c0.839-0.254,1.642-0.44,2.409-0.559c0.766-0.119,1.543-0.189,2.331-0.21c-0.663-0.86-0.995-1.632-0.995-2.315
			c0-0.124,0.01-0.246,0.031-0.365c0.021-0.119,0.047-0.22,0.078-0.303c0.031-0.083,0.072-0.194,0.124-0.334
			c0.052-0.14,0.088-0.251,0.109-0.334c-0.414,0.052-0.777,0.078-1.088,0.078c-1.544,0-2.867-0.507-3.97-1.523
			c-1.103-1.015-1.655-2.289-1.655-3.823c0-1.45,0.492-2.748,1.476-3.893c0.984-1.144,2.196-1.877,3.636-2.199
			C11.672,3.46,12.641,3.356,13.604,3.356z M17.505,24.132c0-0.217-0.023-0.427-0.07-0.629c-0.047-0.202-0.096-0.388-0.148-0.559
			c-0.052-0.171-0.142-0.35-0.272-0.536c-0.13-0.186-0.238-0.344-0.326-0.474c-0.088-0.129-0.226-0.282-0.412-0.458
			c-0.186-0.176-0.329-0.308-0.427-0.396c-0.099-0.088-0.264-0.22-0.497-0.396c-0.233-0.176-0.394-0.295-0.482-0.357
			c-0.088-0.062-0.259-0.181-0.513-0.357c-0.254-0.176-0.412-0.285-0.474-0.326c-0.176-0.021-0.435-0.031-0.777-0.031
			c-0.559,0-1.108,0.036-1.647,0.109c-0.538,0.072-1.098,0.202-1.678,0.388c-0.58,0.186-1.088,0.425-1.523,0.715
			c-0.435,0.29-0.793,0.679-1.072,1.165c-0.28,0.487-0.42,1.041-0.42,1.663c0,0.705,0.184,1.334,0.552,1.888
			c0.368,0.554,0.849,0.989,1.445,1.305c0.595,0.316,1.22,0.551,1.872,0.707c0.653,0.155,1.311,0.233,1.974,0.233
			c0.611,0,1.194-0.065,1.748-0.194c0.554-0.13,1.075-0.332,1.562-0.606c0.487-0.275,0.872-0.656,1.158-1.142
			C17.362,25.355,17.505,24.785,17.505,24.132z M15.64,10.737c0-0.621-0.086-1.282-0.256-1.981c-0.171-0.699-0.415-1.375-0.73-2.028
			c-0.316-0.653-0.751-1.191-1.305-1.616c-0.554-0.425-1.173-0.637-1.857-0.637c-0.963,0-1.709,0.357-2.238,1.072
			s-0.793,1.57-0.793,2.564c0,0.487,0.06,1,0.179,1.538c0.119,0.539,0.303,1.078,0.552,1.616c0.249,0.539,0.538,1.023,0.87,1.453
			c0.331,0.43,0.735,0.78,1.212,1.049c0.476,0.27,0.979,0.404,1.507,0.404c1.005,0,1.733-0.313,2.183-0.94
			C15.414,12.605,15.64,11.773,15.64,10.737z M29.75,7.334v1.989h-3.978v3.978h-1.989V9.323h-3.978V7.334h3.978V3.356h1.989v3.978
			H29.75z"/>
	</g>
</g>
<g id="rasterized">
	<g>
		<path d="M30.054,7H26V3c0,0-0.001,0.077,0.076,0h-1.989C23.81,3,23,2.723,23,2.999V7h-2.892C19.832,7,19,6.701,19,6.977v1.989
			C19,9.243,19.832,10,20.108,10H23v2.944C23,13.221,23.81,14,24.086,14h1.989C26.352,14,26,13.221,26,12.944V10h4.054
			C30.33,10,30,9.243,30,8.966V6.977C30.043,6.934,30.054,7,30.054,7z"/>
		<path d="M17.475,19.164c-0.291-0.39-0.616-0.755-0.965-1.088c-0.342-0.326-0.689-0.627-1.032-0.896
			c-0.325-0.252-0.621-0.496-0.89-0.729c-0.237-0.206-0.432-0.422-0.578-0.644c-0.117-0.176-0.173-0.345-0.173-0.517
			c0-0.267,0.085-0.513,0.262-0.754c0.214-0.295,0.483-0.587,0.798-0.87c0.353-0.315,0.705-0.659,1.057-1.032
			c0.383-0.407,0.71-0.943,0.971-1.595s0.393-1.402,0.393-2.229c0-0.984-0.221-1.804-0.655-2.707C16.44,5.641,16.168,5,15.849,5
			h0.752c0.089,0,0.176-0.16,0.252-0.205l2.098-1.296c0.195-0.114,0.289-0.128,0.23-0.346S18.924,3,18.699,3h-6.791
			c-0.992,0-2.005-0.142-3.015,0.073C7.352,3.417,6.038,4.085,4.986,5.308C3.927,6.541,3.39,7.898,3.39,9.464
			c0,1.671,0.611,3.05,1.816,4.159c1.193,1.099,2.643,1.64,4.309,1.64c0.114,0,0.234-0.011,0.36-0.018
			c-0.029,0.092-0.055,0.194-0.076,0.312c-0.026,0.148-0.039,0.296-0.039,0.45c0,0.586,0.19,1.199,0.58,1.859
			c-0.501,0.038-1.001,0.094-1.493,0.17c-0.786,0.122-1.619,0.315-2.477,0.575c-0.889,0.269-1.697,0.665-2.402,1.177
			c-0.726,0.527-1.279,1.166-1.646,1.898c-0.417,0.833-0.627,1.614-0.627,2.321c0,0.777,0.178,1.493,0.528,2.129
			c0.345,0.626,0.795,1.146,1.339,1.545c0.521,0.382,1.127,0.707,1.804,0.965c0.667,0.254,1.338,0.438,1.992,0.546
			c0.653,0.108,1.305,0.163,1.938,0.163c2.886,0,5.192-0.726,6.855-2.159c1.558-1.357,2.347-2.958,2.347-4.759
			c0-0.642-0.095-1.251-0.282-1.813C18.031,20.066,17.782,19.575,17.475,19.164z M12.507,6.589c0.3,0.619,0.533,1.268,0.695,1.928
			c0.161,0.66,0.242,1.286,0.242,1.863c0,0.924-0.196,1.665-0.582,2.202c-0.354,0.493-0.936,0.732-1.777,0.732
			c-0.445,0-0.857-0.111-1.261-0.339c-0.416-0.235-0.773-0.544-1.062-0.92c-0.307-0.397-0.58-0.854-0.812-1.356
			c-0.233-0.504-0.407-1.014-0.518-1.514C7.32,8.682,7.264,8.201,7.264,7.754c0-0.893,0.228-1.634,0.695-2.267
			c0.432-0.585,1.032-0.869,1.835-0.869c0.576,0,1.084,0.175,1.553,0.533C11.836,5.527,12.226,6.01,12.507,6.589z M11.411,19.753
			c0.249,0,0.449,0.005,0.603,0.017c0.082,0.056,0.203,0.14,0.363,0.251l0.51,0.355c0.085,0.06,0.242,0.177,0.468,0.348
			c0.218,0.165,0.375,0.289,0.465,0.37c0.096,0.086,0.235,0.215,0.417,0.387c0.198,0.188,0.296,0.31,0.341,0.375l0.33,0.48
			c0.099,0.142,0.168,0.275,0.204,0.395c0.049,0.162,0.095,0.337,0.139,0.527c0.038,0.165,0.057,0.339,0.057,0.518
			c0,0.567-0.117,1.044-0.358,1.457c-0.243,0.413-0.561,0.727-0.972,0.959c-0.445,0.25-0.926,0.437-1.431,0.555
			c-1.077,0.251-2.319,0.241-3.492-0.038c-0.608-0.145-1.199-0.368-1.754-0.662c-0.519-0.276-0.944-0.66-1.263-1.141
			C5.724,24.43,5.57,23.903,5.57,23.293c0-0.537,0.116-1,0.354-1.414c0.243-0.423,0.542-0.75,0.916-0.999
			c0.397-0.264,0.867-0.484,1.399-0.654c0.548-0.177,1.083-0.301,1.591-0.369C10.347,19.789,10.878,19.753,11.411,19.753z"/>
	</g>
</g>
</svg>
