<?xml version="1.0" encoding="utf-8"?>
<!-- Generator: Adobe Illustrator 17.1.0, SVG Export Plug-In . SVG Version: 6.00 Build 0)  -->
<!DOCTYPE svg PUBLIC "-//W3C//DTD SVG 1.1//EN" "http://www.w3.org/Graphics/SVG/1.1/DTD/svg11.dtd">
<svg version="1.1" xmlns="http://www.w3.org/2000/svg" xmlns:xlink="http://www.w3.org/1999/xlink" x="0px" y="0px"
	 viewBox="0 0 32 32" enable-background="new 0 0 32 32" xml:space="preserve">
<g id="line" display="none">
	
		<path display="inline" fill="none" stroke="#000000" stroke-width="2" stroke-linecap="round" stroke-linejoin="round" stroke-miterlimit="10" d="
		M15.736,9.748c0-3.156,3.193-6.248,7.132-6.248S30,6.68,30,10.685c0,2.003-0.798,3.782-2.089,5.095L15.736,28.5l-12-13.137
		C2.654,14.091,2,12.432,2,10.619c0-4.005,3.193-7.119,7.132-7.119S15.736,6.592,15.736,9.748z"/>
</g>
<g id="rasterized">
	<g>
		<path d="M15.736,30c-0.004,0-0.008,0-0.012,0c-0.277-1-0.54-0.371-0.727-0.576l-12-13.263C1.701,14.639,1,12.662,1,10.682
			c0-4.553,3.572-8.15,8.132-8.15c3.117,0,5.445,1.641,6.66,3.774c1.425-2.22,4.127-3.798,7.077-3.798
			c4.484,0,8.132,3.668,8.132,8.182c0,2.179-0.844,4.236-2.376,5.794L16.458,29.442C16.27,29.64,16.008,30,15.736,30z M9.132,4.5
			C5.693,4.5,3,7.188,3,10.619c0,1.505,0.532,2.96,1.498,4.095l11.255,12.322l11.436-11.947C28.36,13.897,29,12.337,29,10.686
			C29,7.275,26.25,4.5,22.868,4.5c-3.51,0-6.132,2.771-6.132,5.248c0,0.552-0.448,1-1,1s-1-0.448-1-1
			C14.736,7.224,12.593,4.5,9.132,4.5z"/>
	</g>
</g>
</svg>
