<?xml version="1.0" encoding="utf-8"?>
<!-- Generator: Adobe Illustrator 17.1.0, SVG Export Plug-In . SVG Version: 6.00 Build 0)  -->
<!DOCTYPE svg PUBLIC "-//W3C//DTD SVG 1.1//EN" "http://www.w3.org/Graphics/SVG/1.1/DTD/svg11.dtd">
<svg version="1.1" xmlns="http://www.w3.org/2000/svg" xmlns:xlink="http://www.w3.org/1999/xlink" x="0px" y="0px"
	 viewBox="0 0 32 32" enable-background="new 0 0 32 32" xml:space="preserve">
<g id="line" display="none">
	
		<polyline display="inline" fill="none" stroke="#000000" stroke-width="2" stroke-linecap="round" stroke-linejoin="round" stroke-miterlimit="10" points="
		3.065,16.5 16.5,3.065 29.935,16.5 	"/>
	
		<path display="inline" fill="none" stroke="#000000" stroke-width="2" stroke-linecap="round" stroke-linejoin="round" stroke-miterlimit="10" d="
		M7,17v13h6v-8.219C13,20.797,13.797,20,14.781,20h3.438C19.203,20,20,20.797,20,21.781V30h6V17"/>
</g>
<g id="rasterized">
	<g>
		<path d="M29.935,17.5c-0.256,0-0.512-0.098-0.707-0.293L16.5,4.479L3.772,17.207c-0.391,0.391-1.023,0.391-1.414,0
			s-0.391-1.023,0-1.414L15.793,2.358c0.391-0.391,1.023-0.391,1.414,0l13.435,13.435c0.391,0.391,0.391,1.023,0,1.414
			C30.447,17.402,30.191,17.5,29.935,17.5z"/>
	</g>
	<g>
		<path d="M26,31h-6c-0.552,0-1-0.448-1-1v-8.219C19,21.351,18.649,21,18.219,21h-3.438C14.351,21,14,21.351,14,21.781V30
			c0,0.552-0.448,1-1,1H7c-0.552,0-1-0.448-1-1V17c0-0.552,0.448-1,1-1s1,0.448,1,1v12h4v-7.219C12,20.248,13.248,19,14.781,19
			h3.438C19.752,19,21,20.248,21,21.781V29h4V17c0-0.552,0.448-1,1-1s1,0.448,1,1v13C27,30.552,26.552,31,26,31z"/>
	</g>
</g>
</svg>
