<?xml version="1.0" encoding="utf-8"?>
<!-- Generator: Adobe Illustrator 17.1.0, SVG Export Plug-In . SVG Version: 6.00 Build 0)  -->
<!DOCTYPE svg PUBLIC "-//W3C//DTD SVG 1.1//EN" "http://www.w3.org/Graphics/SVG/1.1/DTD/svg11.dtd">
<svg version="1.1" xmlns="http://www.w3.org/2000/svg" xmlns:xlink="http://www.w3.org/1999/xlink" x="0px" y="0px"
	 viewBox="0 0 32 32" enable-background="new 0 0 32 32" xml:space="preserve">
<g id="line" display="none">
	
		<path display="inline" fill-rule="evenodd" clip-rule="evenodd" fill="none" stroke="#000000" stroke-width="2" stroke-linecap="round" stroke-linejoin="round" stroke-miterlimit="10" d="
		M29.797,26.278c0,1.943-1.575,3.519-3.519,3.519H5.519C3.575,29.797,2,28.222,2,26.278V5.519C2,3.575,3.575,2,5.519,2h20.76
		c1.943,0,3.519,1.575,3.519,3.519V26.278z"/>
	
		<circle display="inline" fill-rule="evenodd" clip-rule="evenodd" fill="none" stroke="#000000" stroke-width="2" stroke-linecap="round" stroke-linejoin="round" stroke-miterlimit="10" cx="16.135" cy="15.859" r="7.114"/>
	
		<path display="inline" fill-rule="evenodd" clip-rule="evenodd" fill="none" stroke="#000000" stroke-width="2" stroke-linecap="round" stroke-linejoin="round" stroke-miterlimit="10" d="
		M27,8.015C27,8.559,26.559,9,26.015,9h-2.029C23.441,9,23,8.559,23,8.015V5.985C23,5.441,23.441,5,23.985,5h2.029
		C26.559,5,27,5.441,27,5.985V8.015z"/>
	
		<line display="inline" fill="none" stroke="#000000" stroke-width="2" stroke-linecap="round" stroke-linejoin="round" stroke-miterlimit="10" x1="23" y1="14" x2="29" y2="14"/>
	
		<line display="inline" fill="none" stroke="#000000" stroke-width="2" stroke-linecap="round" stroke-linejoin="round" stroke-miterlimit="10" x1="3" y1="14" x2="9" y2="14"/>
</g>
<g id="rasterized">
	<g>
		<path d="M31,5.519C31,3.023,28.977,1,26.481,1H5.519C3.023,1,1,3.023,1,5.519v20.963C1,28.977,3.023,31,5.519,31h20.963
			C28.977,31,31,28.977,31,26.481V5.519z M3,5.519C3,4.13,4.13,3,5.519,3h20.76C27.667,3,29,4.13,29,5.519V13h-5.281
			c-1.16-3.065-4.117-5.255-7.584-5.255S9.711,9.935,8.551,13H3V5.519z M22.25,15.859c0,3.372-2.743,6.114-6.114,6.114
			s-6.114-2.743-6.114-6.114s2.743-6.114,6.114-6.114S22.25,12.488,22.25,15.859z M26.278,29H5.519C4.13,29,3,27.667,3,26.278V15
			h5.068c-0.03,0.283-0.047,0.569-0.047,0.859c0,4.474,3.64,8.114,8.114,8.114s8.114-3.64,8.114-8.114
			c0-0.29-0.017-0.577-0.047-0.859H29v11.278C29,27.667,27.667,29,26.278,29z"/>
		<path d="M23.985,10h2.029C27.109,10,28,9.109,28,8.015V5.985C28,4.891,27.109,4,26.015,4h-2.029C22.891,4,22,4.891,22,5.985v2.029
			C22,9.109,22.891,10,23.985,10z M26,5.985V8l-2,0.015L23.985,6L26,5.985z"/>
	</g>
</g>
</svg>
