<?xml version="1.0" encoding="utf-8"?>
<!-- Generator: Adobe Illustrator 17.1.0, SVG Export Plug-In . SVG Version: 6.00 Build 0)  -->
<!DOCTYPE svg PUBLIC "-//W3C//DTD SVG 1.1//EN" "http://www.w3.org/Graphics/SVG/1.1/DTD/svg11.dtd">
<svg version="1.1" xmlns="http://www.w3.org/2000/svg" xmlns:xlink="http://www.w3.org/1999/xlink" x="0px" y="0px"
	 viewBox="0 0 32 32" enable-background="new 0 0 32 32" xml:space="preserve">
<g id="line" display="none">
	<g display="inline">
		
			<circle fill="none" stroke="#000000" stroke-width="2" stroke-linecap="round" stroke-linejoin="round" stroke-miterlimit="10" cx="16" cy="15.833" r="14"/>
		
			<circle fill="none" stroke="#000000" stroke-width="2" stroke-linecap="round" stroke-linejoin="round" stroke-miterlimit="10" cx="16" cy="15.833" r="6.849"/>
		<g>
			<path fill="none" stroke="#000000" stroke-width="2" stroke-linecap="round" stroke-linejoin="round" stroke-miterlimit="10" d="
				M22.508,13.704l5.327-5.327c-1.008-1.596-2.321-2.976-3.87-4.05l-5.229,5.229C20.515,10.333,21.899,11.842,22.508,13.704z"/>
			<path fill="none" stroke="#000000" stroke-width="2" stroke-linecap="round" stroke-linejoin="round" stroke-miterlimit="10" d="
				M14.088,9.26L8.72,3.892C7.107,4.877,5.711,6.174,4.615,7.707l5.2,5.2C10.646,11.153,12.195,9.81,14.088,9.26z"/>
			<path fill="none" stroke="#000000" stroke-width="2" stroke-linecap="round" stroke-linejoin="round" stroke-miterlimit="10" d="
				M22.573,17.745c-0.55,1.892-1.893,3.442-3.647,4.273l5.2,5.2c1.533-1.096,2.829-2.493,3.815-4.105L22.573,17.745z"/>
			<path fill="none" stroke="#000000" stroke-width="2" stroke-linecap="round" stroke-linejoin="round" stroke-miterlimit="10" d="
				M9.723,18.569l-5.229,5.229c1.074,1.548,2.454,2.862,4.05,3.87l5.327-5.327C12.009,21.732,10.5,20.349,9.723,18.569z"/>
		</g>
	</g>
	<g display="inline">
		
			<circle fill="none" stroke="#000000" stroke-width="2" stroke-linecap="round" stroke-linejoin="round" stroke-miterlimit="10" cx="16" cy="15.833" r="14"/>
		
			<circle fill="none" stroke="#000000" stroke-width="2" stroke-linecap="round" stroke-linejoin="round" stroke-miterlimit="10" cx="16" cy="15.833" r="6.849"/>
		<g>
			
				<line fill="none" stroke="#000000" stroke-width="2" stroke-linecap="round" stroke-linejoin="round" stroke-miterlimit="10" x1="27.768" y1="8.268" x2="22.46" y2="13.575"/>
			
				<line fill="none" stroke="#000000" stroke-width="2" stroke-linecap="round" stroke-linejoin="round" stroke-miterlimit="10" x1="22.482" y1="18.032" x2="27.799" y2="23.349"/>
			
				<line fill="none" stroke="#000000" stroke-width="2" stroke-linecap="round" stroke-linejoin="round" stroke-miterlimit="10" x1="8.484" y1="4.035" x2="13.801" y2="9.351"/>
			
				<line fill="none" stroke="#000000" stroke-width="2" stroke-linecap="round" stroke-linejoin="round" stroke-miterlimit="10" x1="18.199" y1="9.351" x2="23.516" y2="4.035"/>
			
				<line fill="none" stroke="#000000" stroke-width="2" stroke-linecap="round" stroke-linejoin="round" stroke-miterlimit="10" x1="4.201" y1="23.349" x2="9.518" y2="18.032"/>
			
				<line fill="none" stroke="#000000" stroke-width="2" stroke-linecap="round" stroke-linejoin="round" stroke-miterlimit="10" x1="9.54" y1="13.575" x2="4.232" y2="8.268"/>
			
				<line fill="none" stroke="#000000" stroke-width="2" stroke-linecap="round" stroke-linejoin="round" stroke-miterlimit="10" x1="23.566" y1="27.601" x2="18.258" y2="22.294"/>
			
				<line fill="none" stroke="#000000" stroke-width="2" stroke-linecap="round" stroke-linejoin="round" stroke-miterlimit="10" x1="13.742" y1="22.294" x2="8.434" y2="27.601"/>
		</g>
	</g>
</g>
<g id="rasterized">
	<path d="M16,0.833c-8.271,0-15,6.729-15,15c0,8.271,6.729,15,15,15s15-6.729,15-15C31,7.563,24.271,0.833,16,0.833z M27.579,21.714
		l-3.974-3.973c0.154-0.612,0.244-1.249,0.244-1.908c0-0.682-0.096-1.341-0.261-1.972l3.964-3.964
		C28.471,11.679,29,13.694,29,15.833C29,17.951,28.481,19.946,27.579,21.714z M16,21.683c-3.225,0-5.849-2.624-5.849-5.849
		c0-3.226,2.624-5.85,5.849-5.85s5.849,2.624,5.849,5.85C21.849,19.059,19.225,21.683,16,21.683z M26.466,8.155l-3.707,3.707
		c-0.688-1.167-1.666-2.139-2.838-2.819l3.711-3.711C24.716,6.123,25.671,7.074,26.466,8.155z M21.881,4.255l-3.973,3.973
		C17.296,8.074,16.659,7.984,16,7.984s-1.296,0.091-1.908,0.244l-3.973-3.973C11.887,3.353,13.882,2.833,16,2.833
		S20.113,3.353,21.881,4.255z M8.368,5.332l3.711,3.711c-1.172,0.68-2.15,1.652-2.838,2.819L5.534,8.155
		C6.329,7.074,7.284,6.123,8.368,5.332z M4.448,9.898l3.964,3.964c-0.164,0.631-0.261,1.29-0.261,1.972
		c0,0.659,0.091,1.296,0.244,1.908l-3.974,3.973C3.519,19.946,3,17.951,3,15.833C3,13.694,3.529,11.679,4.448,9.898z M5.499,23.465
		l3.712-3.711c0.68,1.172,1.652,2.15,2.819,2.839L8.322,26.3C7.241,25.505,6.289,24.55,5.499,23.465z M10.064,27.386l3.964-3.964
		c0.631,0.164,1.29,0.261,1.972,0.261c0.682,0,1.341-0.097,1.972-0.261l3.963,3.964c-1.782,0.919-3.797,1.448-5.936,1.448
		C13.861,28.833,11.846,28.305,10.064,27.386z M23.678,26.3l-3.707-3.708c1.167-0.688,2.139-1.666,2.819-2.838l3.712,3.711
		C25.711,24.55,24.759,25.505,23.678,26.3z"/>
</g>
</svg>
