<?xml version="1.0" encoding="utf-8"?>
<!-- Generator: Adobe Illustrator 17.1.0, SVG Export Plug-In . SVG Version: 6.00 Build 0)  -->
<!DOCTYPE svg PUBLIC "-//W3C//DTD SVG 1.1//EN" "http://www.w3.org/Graphics/SVG/1.1/DTD/svg11.dtd">
<svg version="1.1" xmlns="http://www.w3.org/2000/svg" xmlns:xlink="http://www.w3.org/1999/xlink" x="0px" y="0px"
	 viewBox="0 0 32 32" enable-background="new 0 0 32 32" xml:space="preserve">
<g id="line" display="none">
	<g display="inline">
		<path fill="none" stroke="#000000" stroke-width="2" stroke-linecap="round" stroke-linejoin="round" stroke-miterlimit="10" d="
			M17.867,10.339c2.123,2.123,2.123,5.564,0,7.686l-6.369,6.369c-2.123,2.123-5.564,2.123-7.686,0l-0.22-0.22
			c-2.123-2.123-2.123-5.564,0-7.686l6.369-6.369c2.123-2.123,5.564-2.123,7.686,0L17.867,10.339z"/>
		
			<line fill="none" stroke="#FFFFFF" stroke-width="6" stroke-linecap="round" stroke-linejoin="round" stroke-miterlimit="10" x1="13.804" y1="13.304" x2="20.831" y2="6.276"/>
		<path fill="none" stroke="#000000" stroke-width="2" stroke-linecap="round" stroke-linejoin="round" stroke-miterlimit="10" d="
			M28.408,6.825c2.123,2.123,2.123,5.564,0,7.686l-6.369,6.369c-2.123,2.123-5.564,2.123-7.686,0l-0.22-0.22
			c-2.123-2.123-2.123-5.564,0-7.686l6.369-6.369c2.123-2.123,5.564-2.123,7.686,0L28.408,6.825z"/>
		
			<line fill="none" stroke="#FFFFFF" stroke-width="6" stroke-linejoin="round" stroke-miterlimit="10" x1="18.196" y1="17.696" x2="11.169" y2="24.724"/>
		
			<line fill="none" stroke="#000000" stroke-width="2" stroke-linecap="round" stroke-linejoin="round" stroke-miterlimit="10" x1="18.196" y1="17.696" x2="11.169" y2="24.724"/>
	</g>
</g>
<g id="rasterized">
	<g>
		<path d="M15.389,21.917l3.514-3.514c0.038-0.038,0.054-0.086,0.085-0.128c0.952-1.15,1.47-2.582,1.47-4.093
			c0-0.947-0.21-1.86-0.596-2.694l-1.567,1.567c0.096,0.365,0.163,0.74,0.163,1.128c0,1.185-0.461,2.298-1.299,3.136l-3.184,3.185
			l-3.187,3.187c-0.838,0.836-1.95,1.297-3.134,1.297c-1.185,0-2.298-0.461-3.136-1.299l-0.22-0.22
			c-1.729-1.729-1.729-4.543,0-6.272l6.369-6.369c0.714-0.713,1.632-1.133,2.619-1.248l1.898-1.898
			c-0.449-0.098-0.91-0.153-1.381-0.153c-1.719,0-3.335,0.669-4.55,1.885l-6.369,6.369c-2.509,2.509-2.509,6.592,0,9.101l0.22,0.22
			c1.215,1.215,2.832,1.885,4.55,1.885c1.513,0,2.946-0.52,4.097-1.473c0.04-0.03,0.087-0.046,0.124-0.082l0.325-0.325
			c0.002-0.002,0.003-0.003,0.005-0.005L15.389,21.917z"/>
		<path d="M29.115,6.118l-0.22-0.22c-1.215-1.215-2.832-1.885-4.55-1.885s-3.335,0.669-4.55,1.885l-6.369,6.369
			c-1.215,1.215-1.885,2.832-1.885,4.55c0,0.947,0.21,1.86,0.596,2.694l1.567-1.567c-0.096-0.365-0.163-0.74-0.163-1.128
			c0-1.185,0.461-2.298,1.299-3.136l6.369-6.369c0.838-0.837,1.952-1.299,3.136-1.299s2.298,0.461,3.136,1.299l0.22,0.22
			c1.729,1.729,1.729,4.543,0,6.272l-6.369,6.369c-0.714,0.713-1.632,1.133-2.619,1.248l-1.898,1.898
			c0.449,0.098,0.91,0.153,1.381,0.153c1.719,0,3.335-0.669,4.55-1.885l6.369-6.369C31.625,12.71,31.625,8.627,29.115,6.118z"/>
	</g>
</g>
</svg>
