<?xml version="1.0" encoding="utf-8"?>
<!-- Generator: Adobe Illustrator 17.1.0, SVG Export Plug-In . SVG Version: 6.00 Build 0)  -->
<!DOCTYPE svg PUBLIC "-//W3C//DTD SVG 1.1//EN" "http://www.w3.org/Graphics/SVG/1.1/DTD/svg11.dtd">
<svg version="1.1" xmlns="http://www.w3.org/2000/svg" xmlns:xlink="http://www.w3.org/1999/xlink" x="0px" y="0px"
	 viewBox="0 0 32 32" enable-background="new 0 0 32 32" xml:space="preserve">
<g id="line" display="none">
	<g display="inline">
		<path fill="none" stroke="#000000" stroke-width="2" stroke-linecap="round" stroke-linejoin="round" stroke-miterlimit="10" d="
			M8.745,5.737c0.012,0.887-0.295,1.629-0.92,2.224c-0.626,0.596-1.449,0.893-2.47,0.893H5.318c-0.997,0-1.799-0.298-2.406-0.893
			C2.304,7.366,2,6.624,2,5.737c0-0.899,0.313-1.643,0.939-2.233C3.564,2.915,4.382,2.62,5.391,2.62
			c1.009,0,1.817,0.295,2.424,0.884C8.423,4.094,8.733,4.838,8.745,5.737z M8.362,11.315V29.38H2.346V11.315H8.362z M30,19.026
			V29.38h-5.997v-9.661c0-1.276-0.246-2.275-0.738-2.999c-0.492-0.723-1.261-1.085-2.306-1.085c-0.766,0-1.407,0.21-1.923,0.629
			c-0.516,0.42-0.902,0.939-1.158,1.559c-0.134,0.365-0.2,0.857-0.2,1.477V29.38H11.68c0.024-4.849,0.037-8.78,0.037-11.794
			c0-3.014-0.007-4.812-0.018-5.396l-0.018-0.875h5.997v2.625h-0.037c0.243-0.388,0.492-0.729,0.747-1.021
			c0.255-0.292,0.598-0.608,1.03-0.948c0.431-0.34,0.96-0.605,1.586-0.793c0.626-0.188,1.322-0.283,2.087-0.283
			c2.078,0,3.749,0.69,5.013,2.069C29.368,14.344,30,16.365,30,19.026z"/>
	</g>
</g>
<g id="rasterized">
	<g>
		<g>
			<path d="M30,30.38h-5.998c-0.552,0-1-0.448-1-1v-9.662c0-1.065-0.19-1.885-0.565-2.437c-0.188-0.277-0.548-0.646-1.479-0.646
				c-0.535,0-0.958,0.132-1.292,0.405c-0.389,0.316-0.671,0.696-0.864,1.164c-0.049,0.136-0.125,0.473-0.125,1.096V29.38
				c0,0.552-0.448,1-1,1H11.68c-0.266,0-0.521-0.106-0.709-0.295c-0.188-0.188-0.292-0.444-0.291-0.71
				c0.024-4.847,0.037-8.777,0.037-11.79c0-3.002-0.006-4.794-0.019-5.375l-0.018-0.875c-0.005-0.269,0.098-0.528,0.286-0.72
				s0.446-0.3,0.714-0.3h5.998c0.542,0,0.983,0.431,1,0.969c0.04-0.032,0.081-0.064,0.122-0.097
				c0.529-0.417,1.174-0.742,1.918-0.965c0.715-0.216,1.515-0.325,2.375-0.325c2.36,0,4.295,0.805,5.75,2.393
				C30.274,13.853,31,16.119,31,19.026V29.38C31,29.933,30.552,30.38,30,30.38z M25.002,28.38H29v-9.354
				c0-2.391-0.549-4.203-1.633-5.386c-1.076-1.173-2.475-1.744-4.276-1.744c-0.665,0-1.27,0.081-1.798,0.24
				c-0.502,0.151-0.924,0.359-1.255,0.621c-0.383,0.302-0.684,0.578-0.896,0.821c-0.189,0.215-0.379,0.47-0.566,0.758
				c-0.163,0.348-0.504,0.604-0.897,0.604c-0.364,0-0.717-0.197-0.893-0.516c-0.127-0.229-0.167-0.494-0.107-0.74v-1.37H12.7
				c0.011,0.707,0.016,2.464,0.016,5.271c0,2.804-0.011,6.402-0.032,10.794h3.993V19.3c0-0.746,0.085-1.342,0.261-1.821
				c0.333-0.81,0.821-1.467,1.466-1.991c0.696-0.565,1.555-0.853,2.554-0.853c1.732,0,2.66,0.828,3.133,1.521
				c0.605,0.89,0.911,2.088,0.911,3.562V28.38z M8.362,30.38H2.346c-0.552,0-1-0.448-1-1V11.315c0-0.552,0.448-1,1-1h6.016
				c0.552,0,1,0.448,1,1V29.38C9.362,29.933,8.915,30.38,8.362,30.38z M3.346,28.38h4.016V12.315H3.346V28.38z M5.354,9.854H5.318
				c-1.263,0-2.308-0.397-3.106-1.18C1.408,7.888,1,6.899,1,5.737c0-1.182,0.422-2.178,1.253-2.961
				C3.067,2.009,4.123,1.62,5.391,1.62c1.273,0,2.323,0.393,3.121,1.167c0.802,0.779,1.217,1.767,1.233,2.937
				c0.016,1.173-0.398,2.169-1.231,2.962C7.698,9.461,6.635,9.854,5.354,9.854z M5.391,3.62c-0.751,0-1.329,0.2-1.766,0.612
				C3.198,4.633,3,5.111,3,5.737c0,0.622,0.194,1.101,0.611,1.51c0.417,0.409,0.976,0.608,1.707,0.608h0.036
				c0.761,0,1.344-0.202,1.781-0.618C7.56,6.833,7.753,6.36,7.745,5.75C7.736,5.113,7.537,4.628,7.119,4.222
				C6.701,3.816,6.136,3.62,5.391,3.62z"/>
		</g>
	</g>
</g>
</svg>
