<?xml version="1.0" encoding="utf-8"?>
<!-- Generator: Adobe Illustrator 17.1.0, SVG Export Plug-In . SVG Version: 6.00 Build 0)  -->
<!DOCTYPE svg PUBLIC "-//W3C//DTD SVG 1.1//EN" "http://www.w3.org/Graphics/SVG/1.1/DTD/svg11.dtd">
<svg version="1.1" xmlns="http://www.w3.org/2000/svg" xmlns:xlink="http://www.w3.org/1999/xlink" x="0px" y="0px"
	 viewBox="0 0 32 32" enable-background="new 0 0 32 32" xml:space="preserve">
<g id="line" display="none">
	<path display="inline" fill="#FFFFFF" stroke="#FFFFFF" stroke-width="6" stroke-miterlimit="10" d="M-2.806,5.706l-3.078-3.078
		c-0.497-0.497-1.304-0.497-1.802,0l-0.638,0.638l0,0l-12.913,12.913l4.88,4.88L-3.44,8.141l0.634-0.634
		C-2.308,7.01-2.308,6.203-2.806,5.706z"/>
	<g display="inline">
		
			<rect x="11" y="3" fill="none" stroke="#000000" stroke-width="2" stroke-linecap="round" stroke-linejoin="round" stroke-miterlimit="10" width="19" height="5"/>
		
			<rect x="11" y="13" fill="none" stroke="#000000" stroke-width="2" stroke-linecap="round" stroke-linejoin="round" stroke-miterlimit="10" width="19" height="6"/>
		
			<rect x="11" y="24" fill="none" stroke="#000000" stroke-width="2" stroke-linecap="round" stroke-linejoin="round" stroke-miterlimit="10" width="19" height="5"/>
		
			<circle fill="none" stroke="#000000" stroke-width="2" stroke-linecap="round" stroke-linejoin="round" stroke-miterlimit="10" cx="4.315" cy="5.989" r="2.503"/>
		
			<circle fill="none" stroke="#000000" stroke-width="2" stroke-linecap="round" stroke-linejoin="round" stroke-miterlimit="10" cx="4.315" cy="16" r="2.503"/>
		
			<circle fill="none" stroke="#000000" stroke-width="2" stroke-linecap="round" stroke-linejoin="round" stroke-miterlimit="10" cx="4.315" cy="26.011" r="2.503"/>
	</g>
</g>
<g id="rasterized">
	<g>
		<path d="M30,2H11c-0.552,0-1,0.448-1,1v5c0,0.552,0.448,1,1,1h19c0.552,0,1-0.448,1-1V3C31,2.448,30.552,2,30,2z M29,7H12V4h17V7z
			"/>
		<path d="M30,12H11c-0.552,0-1,0.448-1,1v6c0,0.552,0.448,1,1,1h19c0.552,0,1-0.448,1-1v-6C31,12.448,30.552,12,30,12z M29,18H12
			v-4h17V18z"/>
		<path d="M30,23H11c-0.552,0-1,0.448-1,1v5c0,0.552,0.448,1,1,1h19c0.552,0,1-0.448,1-1v-5C31,23.448,30.552,23,30,23z M29,28H12
			v-3h17V28z"/>
		<path d="M4.315,2.486c-1.932,0-3.503,1.571-3.503,3.503s1.571,3.503,3.503,3.503c1.931,0,3.502-1.571,3.502-3.503
			S6.247,2.486,4.315,2.486z M4.315,7.492c-0.829,0-1.503-0.674-1.503-1.503s0.674-1.503,1.503-1.503S5.818,5.16,5.818,5.989
			S5.144,7.492,4.315,7.492z"/>
		<path d="M4.315,12.497c-1.932,0-3.503,1.571-3.503,3.503s1.571,3.503,3.503,3.503c1.931,0,3.502-1.571,3.502-3.503
			S6.247,12.497,4.315,12.497z M4.315,17.503c-0.829,0-1.503-0.674-1.503-1.503s0.674-1.503,1.503-1.503S5.818,15.171,5.818,16
			S5.144,17.503,4.315,17.503z"/>
		<path d="M4.315,22.508c-1.932,0-3.503,1.571-3.503,3.503s1.571,3.503,3.503,3.503c1.931,0,3.502-1.571,3.502-3.503
			S6.247,22.508,4.315,22.508z M4.315,27.514c-0.829,0-1.503-0.674-1.503-1.503s0.674-1.503,1.503-1.503s1.502,0.674,1.502,1.503
			S5.144,27.514,4.315,27.514z"/>
	</g>
</g>
</svg>
