<?xml version="1.0" encoding="utf-8"?>
<!-- Generator: Adobe Illustrator 17.1.0, SVG Export Plug-In . SVG Version: 6.00 Build 0)  -->
<!DOCTYPE svg PUBLIC "-//W3C//DTD SVG 1.1//EN" "http://www.w3.org/Graphics/SVG/1.1/DTD/svg11.dtd">
<svg version="1.1" xmlns="http://www.w3.org/2000/svg" xmlns:xlink="http://www.w3.org/1999/xlink" x="0px" y="0px"
	 viewBox="0 0 32 32" enable-background="new 0 0 32 32" xml:space="preserve">
<g id="line" display="none">
	
		<circle display="inline" fill="none" stroke="#000000" stroke-width="2" stroke-linecap="round" stroke-linejoin="round" stroke-miterlimit="10" cx="12.5" cy="12.25" r="9.5"/>
	
		<line display="inline" fill="none" stroke="#000000" stroke-width="2" stroke-linecap="round" stroke-linejoin="round" stroke-miterlimit="10" x1="19.5" y1="19.5" x2="29.375" y2="29.375"/>
</g>
<g id="rasterized">
	<path d="M30.082,28.668l-9.607-9.607C22.045,17.226,23,14.849,23,12.25c0-5.79-4.71-10.5-10.5-10.5S2,6.46,2,12.25
		s4.71,10.5,10.5,10.5c2.471,0,4.742-0.864,6.538-2.298l9.63,9.63c0.195,0.195,0.451,0.293,0.707,0.293s0.512-0.098,0.707-0.293
		C30.473,29.691,30.473,29.059,30.082,28.668z M4,12.25c0-4.687,3.813-8.5,8.5-8.5s8.5,3.813,8.5,8.5s-3.813,8.5-8.5,8.5
		S4,16.937,4,12.25z"/>
</g>
</svg>
