<?xml version="1.0" encoding="utf-8"?>
<!-- Generator: Adobe Illustrator 17.1.0, SVG Export Plug-In . SVG Version: 6.00 Build 0)  -->
<!DOCTYPE svg PUBLIC "-//W3C//DTD SVG 1.1//EN" "http://www.w3.org/Graphics/SVG/1.1/DTD/svg11.dtd">
<svg version="1.1" xmlns="http://www.w3.org/2000/svg" xmlns:xlink="http://www.w3.org/1999/xlink" x="0px" y="0px"
	 viewBox="0 0 32 32" enable-background="new 0 0 32 32" xml:space="preserve">
<g id="line" display="none">
	
		<rect x="2" y="6" display="inline" fill="none" stroke="#000000" stroke-width="2" stroke-linecap="round" stroke-linejoin="round" stroke-miterlimit="10" width="27" height="20"/>
	
		<polygon display="inline" fill="none" stroke="#000000" stroke-width="2" stroke-linecap="round" stroke-linejoin="round" stroke-miterlimit="10" points="
		29,26 15.5,12.5 2,26 2,26 29,26 	"/>
	
		<polygon display="inline" fill="#FFFFFF" stroke="#FFFFFF" stroke-width="4" stroke-linecap="round" stroke-linejoin="round" stroke-miterlimit="10" points="
		2,6 15.5,19.5 29,6 	"/>
	
		<polygon display="inline" fill="none" stroke="#000000" stroke-width="2" stroke-linecap="round" stroke-linejoin="round" stroke-miterlimit="10" points="
		2,6.092 15.5,19.592 29,6.092 29,6 2,6 	"/>
	<g display="inline">
		
			<polygon fill="#FFFFFF" stroke="#FFFFFF" stroke-width="4" stroke-linecap="round" stroke-linejoin="round" stroke-miterlimit="10" points="
			33.5,9 47.875,23 62.25,9 		"/>
	</g>
</g>
<g id="rasterized">
	<path d="M28,9.828v13.758l-6.879-6.879l-1.414,1.414L26.586,25H4.414l6.879-6.879l-1.414-1.414L3,23.586V9.828l-2-2V26
		c0,0.013,0.007,0.024,0.007,0.037c0.004,0.117,0.022,0.234,0.069,0.346c0,0.001,0.001,0.002,0.002,0.003
		c0.003,0.008,0.01,0.015,0.014,0.023c0.045,0.1,0.107,0.188,0.18,0.267c0.024,0.026,0.05,0.046,0.076,0.069
		c0.064,0.056,0.133,0.102,0.208,0.14c0.032,0.016,0.061,0.032,0.095,0.045C1.761,26.971,1.877,27,2,27h27
		c0.123,0,0.239-0.029,0.349-0.071c0.034-0.013,0.063-0.029,0.095-0.045c0.076-0.038,0.145-0.084,0.208-0.14
		c0.026-0.023,0.052-0.043,0.076-0.069c0.073-0.078,0.134-0.166,0.18-0.267c0.004-0.008,0.01-0.015,0.014-0.023
		c0-0.001,0.001-0.002,0.002-0.003c0.046-0.112,0.064-0.229,0.069-0.346C29.993,26.024,30,26.013,30,26V7.828L28,9.828z"/>
	<g>
		<path d="M15.5,20.592c-0.256,0-0.512-0.098-0.707-0.293l-13.5-13.5C1.105,6.611,1,6.357,1,6.092C1,5.54,1.448,5,2,5h27
			c0.552,0,1,0.448,1,1c0,0.265-0.105,0.611-0.293,0.799l-13.5,13.5C16.012,20.494,15.756,20.592,15.5,20.592z M4.322,7L15.5,18.178
			L26.678,7H4.322z"/>
	</g>
</g>
</svg>
