<?xml version="1.0" encoding="utf-8"?>
<!-- Generator: Adobe Illustrator 17.1.0, SVG Export Plug-In . SVG Version: 6.00 Build 0)  -->
<!DOCTYPE svg PUBLIC "-//W3C//DTD SVG 1.1//EN" "http://www.w3.org/Graphics/SVG/1.1/DTD/svg11.dtd">
<svg version="1.1" xmlns="http://www.w3.org/2000/svg" xmlns:xlink="http://www.w3.org/1999/xlink" x="0px" y="0px"
	 viewBox="0 0 32 32" enable-background="new 0 0 32 32" xml:space="preserve">
<g id="line" display="none">
	<g display="inline">
		
			<rect x="2" y="9" fill="none" stroke="#000000" stroke-width="2" stroke-linecap="round" stroke-linejoin="round" stroke-miterlimit="10" width="28" height="21"/>
		<polygon fill="#FFFFFF" points="24.969,24 16.5,15.531 8.031,24 		"/>
		
			<polyline fill="none" stroke="#000000" stroke-width="2" stroke-linecap="round" stroke-linejoin="round" stroke-miterlimit="10" points="
			30,30 20.177,19.43 16.5,22.861 12.823,19.43 2,30 		"/>
		
			<polygon fill="#FFFFFF" stroke="#FFFFFF" stroke-width="4" stroke-linecap="round" stroke-linejoin="round" stroke-miterlimit="10" points="
			1.5,9 15.875,23 30.25,9 		"/>
		
			<polygon fill="none" stroke="#000000" stroke-width="2" stroke-linecap="round" stroke-linejoin="round" stroke-miterlimit="10" points="
			16,1.161 2,8.42 2,8.765 2,8.861 16,22.861 30,8.861 30,8.765 30,8.42 		"/>
	</g>
</g>
<g id="rasterized">
	<g>
		<path d="M29,27.455l-7.047-7.583l-1.433,1.396L27.706,29H4.455l7.347-7.175l-1.433-1.396L3,27.626V13.253l-2-1.948V30
			c0,0.042,0.019,0.078,0.024,0.119c0.011,0.087,0.018,0.175,0.052,0.257c0.035,0.085,0.091,0.155,0.147,0.227
			c0.024,0.031,0.034,0.068,0.062,0.096c0.001,0.001,0.003,0.002,0.005,0.003c0.091,0.093,0.2,0.168,0.322,0.22
			C1.734,30.974,1.864,31,1.995,31C1.997,31,1.998,31,2,31h28c0.127,0,0.254-0.027,0.374-0.076c0.056-0.023,0.101-0.062,0.151-0.095
			c0.052-0.033,0.109-0.054,0.156-0.098c0.005-0.004,0.006-0.01,0.01-0.015c0.059-0.056,0.098-0.127,0.141-0.197
			c0.026-0.042,0.063-0.078,0.083-0.123c0.02-0.045,0.021-0.097,0.034-0.145c0.021-0.078,0.046-0.155,0.048-0.236
			C30.997,30.012,31,30.006,31,30V11.061l-2,1.948V27.455z"/>
		<path d="M30.46,7.532l-14-7.259c-0.289-0.149-0.632-0.149-0.921,0l-14,7.259C1.208,7.704,1,8.046,1,8.42v0.441
			c0,0.265,0.105,0.52,0.293,0.707l14,14c0.195,0.195,0.451,0.293,0.707,0.293s0.512-0.098,0.707-0.293l14-14
			C30.895,9.38,31,9.031,31,8.766V8.42C31,8.046,30.792,7.704,30.46,7.532z M16,21.447L3.383,8.83L16,2.287L28.617,8.83L16,21.447z"
			/>
	</g>
</g>
</svg>
