<?xml version="1.0" encoding="utf-8"?>
<!-- Generator: Adobe Illustrator 17.1.0, SVG Export Plug-In . SVG Version: 6.00 Build 0)  -->
<!DOCTYPE svg PUBLIC "-//W3C//DTD SVG 1.1//EN" "http://www.w3.org/Graphics/SVG/1.1/DTD/svg11.dtd">
<svg version="1.1" xmlns="http://www.w3.org/2000/svg" xmlns:xlink="http://www.w3.org/1999/xlink" x="0px" y="0px"
	 viewBox="0 0 32 32" enable-background="new 0 0 32 32" xml:space="preserve">
<g id="line" display="none">
	
		<polygon display="inline" fill="none" stroke="#000000" stroke-width="2" stroke-linecap="round" stroke-linejoin="round" stroke-miterlimit="10" points="
		30,27 23.5,24 16,27 8,24 2,27 7,8 11,5 15.75,8 20.5,5 25,8 	"/>
	
		<line display="inline" fill="none" stroke="#000000" stroke-width="2" stroke-linecap="round" stroke-linejoin="round" stroke-miterlimit="10" x1="8.75" y1="21.25" x2="10.5" y2="8"/>
	
		<line display="inline" fill="none" stroke="#000000" stroke-width="2" stroke-linecap="round" stroke-linejoin="round" stroke-miterlimit="10" x1="16" y1="24" x2="16" y2="10"/>
	
		<line display="inline" fill="none" stroke="#000000" stroke-width="2" stroke-linecap="round" stroke-linejoin="round" stroke-miterlimit="10" x1="23" y1="21.75" x2="21" y2="8.25"/>
</g>
<g id="rasterized">
	<g>
		<path d="M30.918,26.56L25.967,7.746c-0.062-0.236-0.209-0.442-0.413-0.578l-4.5-3c-0.329-0.219-0.754-0.225-1.089-0.014
			L15.75,6.817l-4.216-2.663C11.184,3.934,10.732,3.95,10.4,4.2l-4,3C6.22,7.335,6.09,7.527,6.033,7.746l-5,19
			c-0.1,0.38,0.032,0.783,0.337,1.031C1.551,27.924,1.775,28,2,28c0.152,0,0.306-0.035,0.447-0.105l5.61-2.805l7.591,2.847
			c0.234,0.087,0.492,0.085,0.723-0.008l7.1-2.84l6.11,2.82c0.137,0.063,0.285,0.1,0.429,0.092c0.564-0.022,1.01-0.444,1.01-1
			C31.02,26.842,30.983,26.693,30.918,26.56z M23.918,23.092c-0.25-0.115-0.536-0.122-0.791-0.021l-7.14,2.856l-7.637-2.864
			C8.238,23.021,8.119,23,8,23c-0.154,0-0.307,0.036-0.447,0.105l-4.024,2.012L7.878,8.591l3.17-2.378l4.167,2.632
			c0.326,0.206,0.742,0.206,1.068,0l4.201-2.654l3.644,2.43l4.364,16.582L23.918,23.092z"/>
		<path d="M10.631,7.009c-0.542-0.069-1.05,0.312-1.122,0.86l-1.75,13.25c-0.072,0.547,0.312,1.05,0.86,1.122
			c0.044,0.006,0.088,0.009,0.132,0.009c0.494,0,0.923-0.366,0.99-0.869l1.75-13.25C11.563,7.583,11.179,7.081,10.631,7.009z"/>
		<path d="M16,9c-0.552,0-1,0.448-1,1v14c0,0.552,0.448,1,1,1s1-0.448,1-1V10C17,9.448,16.552,9,16,9z"/>
		<path d="M20.854,7.261c-0.546,0.081-0.924,0.589-0.843,1.136l2,13.5c0.074,0.497,0.5,0.854,0.988,0.854
			c0.049,0,0.098-0.003,0.148-0.011c0.546-0.081,0.924-0.589,0.843-1.136l-2-13.5C21.908,7.558,21.402,7.185,20.854,7.261z"/>
	</g>
</g>
</svg>
