<?xml version="1.0" encoding="utf-8"?>
<!-- Generator: Adobe Illustrator 17.1.0, SVG Export Plug-In . SVG Version: 6.00 Build 0)  -->
<!DOCTYPE svg PUBLIC "-//W3C//DTD SVG 1.1//EN" "http://www.w3.org/Graphics/SVG/1.1/DTD/svg11.dtd">
<svg version="1.1" xmlns="http://www.w3.org/2000/svg" xmlns:xlink="http://www.w3.org/1999/xlink" x="0px" y="0px"
	 viewBox="0 0 32 32" enable-background="new 0 0 32 32" xml:space="preserve">
<g id="line" display="none">
	<g display="inline">
		
			<rect x="2" y="2" fill="none" stroke="#000000" stroke-width="2" stroke-linecap="round" stroke-linejoin="round" stroke-miterlimit="10" width="28" height="6"/>
		
			<rect x="2" y="13" fill="none" stroke="#000000" stroke-width="2" stroke-linecap="round" stroke-linejoin="round" stroke-miterlimit="10" width="28" height="6"/>
		
			<rect x="2" y="24" fill="none" stroke="#000000" stroke-width="2" stroke-linecap="round" stroke-linejoin="round" stroke-miterlimit="10" width="28" height="6"/>
	</g>
</g>
<g id="rasterized">
	<g>
		<g>
			<path d="M30,9H2C1.448,9,1,8.552,1,8V2c0-0.552,0.448-1,1-1h28c0.552,0,1,0.448,1,1v6C31,8.552,30.552,9,30,9z M3,7h26V3H3V7z"/>
		</g>
		<g>
			<path d="M30,20H2c-0.552,0-1-0.448-1-1v-6c0-0.552,0.448-1,1-1h28c0.552,0,1,0.448,1,1v6C31,19.552,30.552,20,30,20z M3,18h26v-4
				H3V18z"/>
		</g>
		<g>
			<path d="M30,31H2c-0.552,0-1-0.448-1-1v-6c0-0.552,0.448-1,1-1h28c0.552,0,1,0.448,1,1v6C31,30.552,30.552,31,30,31z M3,29h26v-4
				H3V29z"/>
		</g>
	</g>
</g>
</svg>
