<?xml version="1.0" encoding="utf-8"?>
<!-- Generator: Adobe Illustrator 17.1.0, SVG Export Plug-In . SVG Version: 6.00 Build 0)  -->
<!DOCTYPE svg PUBLIC "-//W3C//DTD SVG 1.1//EN" "http://www.w3.org/Graphics/SVG/1.1/DTD/svg11.dtd">
<svg version="1.1" xmlns="http://www.w3.org/2000/svg" xmlns:xlink="http://www.w3.org/1999/xlink" x="0px" y="0px"
	 viewBox="0 0 32 32" enable-background="new 0 0 32 32" xml:space="preserve">
<g id="line" display="none">
	<g display="inline">
		<path fill="#FFFFFF" stroke="#000000" stroke-width="2" stroke-linejoin="round" stroke-miterlimit="10" d="M23,28
			c0,1.105-0.895,2-2,2H10c-1.105,0-2-0.895-2-2V4c0-1.105,0.895-2,2-2h11c1.105,0,2,0.895,2,2V28z"/>
		
			<line fill="#FFFFFF" stroke="#000000" stroke-width="2" stroke-linejoin="round" stroke-miterlimit="10" x1="8" y1="8" x2="23" y2="8"/>
		
			<line fill="#FFFFFF" stroke="#000000" stroke-width="2" stroke-linejoin="round" stroke-miterlimit="10" x1="8" y1="24" x2="23" y2="24"/>
		<path fill="#FFFFFF" stroke="#000000" stroke-width="2" stroke-linejoin="round" stroke-miterlimit="10" d="M15.428,26.938
			c0,0.045-0.037,0.082-0.082,0.082l0,0c-0.045,0-0.082-0.037-0.082-0.082l0,0c0-0.045,0.037-0.082,0.082-0.082l0,0
			C15.391,26.855,15.428,26.892,15.428,26.938L15.428,26.938z"/>
		
			<line fill="none" stroke="#000000" stroke-width="2" stroke-linecap="round" stroke-linejoin="round" stroke-miterlimit="10" x1="14" y1="5" x2="17" y2="5"/>
	</g>
</g>
<g id="rasterized">
	<g>
		<path d="M21,1H10C8.346,1,7,2.346,7,4v24c0,1.654,1.346,3,3,3h11c1.654,0,3-1.346,3-3V4C24,2.346,22.654,1,21,1z M10,3h11
			c0.551,0,1,0.449,1,1v3H9V4C9,3.449,9.449,3,10,3z M9,23V9h13v14H9z M21,29H10c-0.551,0-1-0.449-1-1v-3h13v3
			C22,28.551,21.551,29,21,29z"/>
		<path d="M15.346,25.855c-0.597,0-1.082,0.486-1.082,1.083c0,0.597,0.485,1.083,1.082,1.083s1.083-0.486,1.083-1.083
			C16.428,26.341,15.942,25.855,15.346,25.855z"/>
		<path d="M14,6h3c0.552,0,1-0.448,1-1s-0.448-1-1-1h-3c-0.552,0-1,0.448-1,1S13.448,6,14,6z"/>
	</g>
</g>
</svg>
