<?xml version="1.0" encoding="utf-8"?>
<!-- Generator: Adobe Illustrator 17.1.0, SVG Export Plug-In . SVG Version: 6.00 Build 0)  -->
<!DOCTYPE svg PUBLIC "-//W3C//DTD SVG 1.1//EN" "http://www.w3.org/Graphics/SVG/1.1/DTD/svg11.dtd">
<svg version="1.1" xmlns="http://www.w3.org/2000/svg" xmlns:xlink="http://www.w3.org/1999/xlink" x="0px" y="0px"
	 viewBox="0 0 32 32" enable-background="new 0 0 32 32" xml:space="preserve">
<g id="line" display="none">
	
		<path display="inline" fill="none" stroke="#000000" stroke-width="2" stroke-linecap="round" stroke-linejoin="round" stroke-miterlimit="10" d="
		M30,25.069C30,26.135,29.135,27,28.069,27H3.931C2.865,27,2,26.135,2,25.069V6.931C2,5.865,2.865,5,3.931,5h24.138
		C29.135,5,30,5.865,30,6.931V25.069z"/>
	
		<path display="inline" fill="none" stroke="#000000" stroke-width="2" stroke-linecap="round" stroke-linejoin="round" stroke-miterlimit="10" d="
		M29.5,17.708l-5.359-5.359c-0.754-0.754-1.977-0.754-2.731,0L7.156,26.603"/>
	
		<path display="inline" fill="none" stroke="#000000" stroke-width="2" stroke-linecap="round" stroke-linejoin="round" stroke-miterlimit="10" d="
		M11.19,22.57l-2.497-2.497c-0.754-0.754-1.977-0.754-2.731,0L2.5,23.536"/>
	
		<circle display="inline" fill="none" stroke="#000000" stroke-width="2" stroke-linecap="round" stroke-linejoin="round" stroke-miterlimit="10" cx="9.42" cy="11.994" r="3.379"/>
	
		<line display="inline" fill="none" stroke="#FFFFFF" stroke-width="6" stroke-linecap="round" stroke-linejoin="round" stroke-miterlimit="10" x1="1.5" y1="4.625" x2="30.25" y2="27"/>
	
		<line display="inline" fill="none" stroke="#000000" stroke-width="2" stroke-linecap="round" stroke-linejoin="round" stroke-miterlimit="10" x1="1.5" y1="4.625" x2="30.25" y2="27"/>
	<g display="inline">
		
			<path fill="#FFFFFF" stroke="#FFFFFF" stroke-width="6" stroke-linecap="round" stroke-linejoin="round" stroke-miterlimit="10" d="
			M58.138,25.748c0,0.473-0.383,0.856-0.856,0.856H34.856c-0.473,0-0.856-0.383-0.856-0.856V9.115c0-0.473,0.383-0.856,0.856-0.856
			h22.426c0.473,0,0.856,0.383,0.856,0.856V25.748z"/>
	</g>
</g>
<g id="rasterized">
	<g>
		<path d="M28.069,6C28.583,6,29,6.417,29,6.931v8.863l-4.152-4.152c-1.106-1.107-3.038-1.107-4.145,0l-2.32,2.32l1.59,1.238
			l2.144-2.144c0.363-0.362,0.953-0.362,1.316,0l5.359,5.359c0.061,0.061,0.136,0.096,0.207,0.138v3.673l2,1.557V6.931
			C31,5.315,29.685,4,28.069,4H5.582l2.57,2H28.069z"/>
		<path d="M9.174,26l6.524-6.524l-1.59-1.238l-2.917,2.917l-1.79-1.79c-1.106-1.107-3.038-1.107-4.145,0L3,21.622V9.594L1,8.038
			v17.031C1,26.685,2.315,28,3.931,28H26.65l-2.57-2H9.174z M6.38,26H3.931C3.417,26,3,25.583,3,25.069V24.38
			c0.071-0.042,0.146-0.076,0.207-0.138l3.462-3.462c0.363-0.362,0.953-0.362,1.316,0l1.79,1.79l-3.326,3.326
			C6.419,25.927,6.406,25.967,6.38,26z"/>
		<path d="M30.864,26.211L2.114,3.836C1.678,3.497,1.05,3.574,0.711,4.011C0.372,4.447,0.45,5.075,0.886,5.414l28.75,22.375
			C29.818,27.931,30.035,28,30.25,28c0.298,0,0.592-0.132,0.79-0.386C31.378,27.178,31.3,26.55,30.864,26.211z"/>
		<path d="M13.299,10.006c-0.587-1.141-1.647-1.996-2.931-2.281L13.299,10.006z"/>
		<path d="M9.419,16.374c0.638,0,1.241-0.145,1.789-0.391l-2.109-1.641c-0.86-0.117-1.574-0.687-1.887-1.468l-2.097-1.632
			c-0.043,0.246-0.076,0.495-0.076,0.753C5.04,14.409,7.004,16.374,9.419,16.374z"/>
	</g>
</g>
</svg>
