<?xml version="1.0" encoding="utf-8"?>
<!-- Generator: Adobe Illustrator 17.1.0, SVG Export Plug-In . SVG Version: 6.00 Build 0)  -->
<!DOCTYPE svg PUBLIC "-//W3C//DTD SVG 1.1//EN" "http://www.w3.org/Graphics/SVG/1.1/DTD/svg11.dtd">
<svg version="1.1" xmlns="http://www.w3.org/2000/svg" xmlns:xlink="http://www.w3.org/1999/xlink" x="0px" y="0px"
	 viewBox="0 0 32 32" enable-background="new 0 0 32 32" xml:space="preserve">
<g id="line" display="none">
	
		<path display="inline" fill="none" stroke="#000000" stroke-width="2" stroke-linecap="round" stroke-linejoin="round" stroke-miterlimit="10" d="
		M10,20.117C10,20.605,9.605,21,9.117,21H5.883C5.395,21,5,20.605,5,20.117v-9.234C5,10.395,5.395,10,5.883,10h3.234
		C9.605,10,10,10.395,10,10.883V20.117z"/>
	
		<path display="inline" fill="none" stroke="#000000" stroke-width="2" stroke-linecap="round" stroke-linejoin="round" stroke-miterlimit="10" d="
		M19,26.536c0,0.488-0.52,0.883-1.007,0.883l-7.086-6.18c-0.488,0-0.906-0.395-0.906-0.883v-9.712c0-0.488,0.356-0.883,0.844-0.883
		l7.168-6.18C18.5,3.581,19,3.976,19,4.464V26.536z"/>
</g>
<g id="rasterized">
	<path d="M18.012,2.581c-0.24,0-0.472,0.086-0.653,0.243L10.416,8.81c-0.242,0.057-0.454,0.172-0.647,0.313
		C9.565,9.047,9.347,9,9.117,9H5.883C4.845,9,4,9.845,4,10.883v9.234C4,21.155,4.845,22,5.883,22h3.234
		c0.237,0,0.461-0.049,0.669-0.129c0.204,0.148,0.435,0.261,0.689,0.319l6.859,5.982c0.182,0.159,0.416,0.247,0.657,0.247
		c1.069,0,2.007-0.88,2.007-1.883V4.464C20,3.443,19.09,2.581,18.012,2.581z M6,11h3v9H6V11z M18,26.099l-6.437-5.613
		c-0.158-0.138-0.356-0.223-0.563-0.242v-0.126v-9.234v-0.134c0.183-0.029,0.355-0.108,0.497-0.23L18,4.912V26.099z"/>
</g>
</svg>
