<?xml version="1.0" encoding="utf-8"?>
<!-- Generator: Adobe Illustrator 17.1.0, SVG Export Plug-In . SVG Version: 6.00 Build 0)  -->
<!DOCTYPE svg PUBLIC "-//W3C//DTD SVG 1.1//EN" "http://www.w3.org/Graphics/SVG/1.1/DTD/svg11.dtd">
<svg version="1.1" xmlns="http://www.w3.org/2000/svg" xmlns:xlink="http://www.w3.org/1999/xlink" x="0px" y="0px"
	 viewBox="0 0 32 32" enable-background="new 0 0 32 32" xml:space="preserve">
<g id="line" display="none">
	
		<path display="inline" fill="none" stroke="#000000" stroke-width="2" stroke-linecap="round" stroke-linejoin="round" stroke-miterlimit="10" d="
		M13,24.521c0,1.795-1.679,3.576-3.75,3.979S5.5,27.773,5.5,25.979c0-1.795,1.679-3.576,3.75-3.979S13,22.726,13,24.521z"/>
	
		<line display="inline" fill="none" stroke="#000000" stroke-width="2" stroke-linecap="round" stroke-linejoin="round" stroke-miterlimit="10" x1="13" y1="24" x2="13" y2="10"/>
	
		<path display="inline" fill="none" stroke="#000000" stroke-width="2" stroke-linecap="round" stroke-linejoin="round" stroke-miterlimit="10" d="
		M25,19.188c0,1.795-1.679,3.576-3.75,3.979s-3.75-0.726-3.75-2.521s1.679-3.576,3.75-3.979S25,17.393,25,19.188z"/>
	
		<line display="inline" fill="none" stroke="#000000" stroke-width="2" stroke-linecap="round" stroke-linejoin="round" stroke-miterlimit="10" x1="25" y1="19" x2="25" y2="5"/>
	
		<path display="inline" fill="none" stroke="#000000" stroke-width="2" stroke-linecap="round" stroke-linejoin="round" stroke-miterlimit="10" d="
		M24.936,3.998c-0.017-1.284-0.675-1.952-1.769-1.415l-8.833,4.25c-1.094,0.538-1.301,1.723-1.285,3.006L13,13.167l12-5.5
		L24.936,3.998z"/>
</g>
<g id="rasterized">
	<path d="M25.949,4.749l-0.013-0.764c-0.025-1.911-1.13-2.589-2.068-2.589c-0.367,0-0.751,0.097-1.135,0.286l-8.84,4.253
		c-1.839,0.903-1.854,2.99-1.844,3.823C12.029,9.838,12,9.915,12,10v11.356c-0.562-0.273-1.207-0.438-1.926-0.438
		c-0.333,0-0.674,0.034-1.015,0.1C6.502,21.515,4.5,23.694,4.5,25.979c0,2.087,1.651,3.603,3.925,3.603
		c0.333,0,0.675-0.034,1.016-0.1C11.997,28.984,14,26.806,14,24.521c0-0.12-0.024-0.232-0.035-0.348C13.976,24.114,14,24.061,14,24
		V13.808l10-4.583v6.799c-0.562-0.273-1.207-0.438-1.926-0.438c-0.333,0-0.674,0.034-1.015,0.1c-2.557,0.497-4.559,2.676-4.559,4.96
		c0,2.087,1.651,3.603,3.925,3.603c0.333,0,0.675-0.034,1.016-0.1C23.997,23.652,26,21.473,26,19.188
		c0-0.044-0.011-0.083-0.013-0.126C25.989,19.041,26,19.022,26,19V5C26,4.911,25.971,4.831,25.949,4.749z M9.059,27.518
		c-0.215,0.042-0.429,0.063-0.634,0.063c-0.958,0-1.925-0.496-1.925-1.603c0-1.315,1.347-2.688,2.941-2.998
		c0.215-0.042,0.428-0.063,0.633-0.063c0.958,0,1.926,0.496,1.926,1.603C12,25.835,10.653,27.208,9.059,27.518z M14.023,11.598
		l0.026-1.771c-0.02-1.519,0.337-1.905,0.718-2.093l8.841-4.253c0.124-0.061,0.2-0.078,0.208-0.097
		c0.041,0.066,0.116,0.262,0.12,0.632l0.053,3.014L14.023,11.598z M21.059,22.186c-0.215,0.042-0.429,0.063-0.634,0.063
		c-0.958,0-1.925-0.496-1.925-1.603c0-1.315,1.347-2.688,2.941-2.998c0.215-0.042,0.428-0.063,0.633-0.063
		c0.958,0,1.926,0.496,1.926,1.603C24,20.503,22.653,21.875,21.059,22.186z"/>
</g>
</svg>
