<?xml version="1.0" encoding="utf-8"?>
<!-- Generator: Adobe Illustrator 17.1.0, SVG Export Plug-In . SVG Version: 6.00 Build 0)  -->
<!DOCTYPE svg PUBLIC "-//W3C//DTD SVG 1.1//EN" "http://www.w3.org/Graphics/SVG/1.1/DTD/svg11.dtd">
<svg version="1.1" xmlns="http://www.w3.org/2000/svg" xmlns:xlink="http://www.w3.org/1999/xlink" x="0px" y="0px"
	 viewBox="0 0 32 32" enable-background="new 0 0 32 32" xml:space="preserve">
<g id="line" display="none">
	<g display="inline">
		
			<polygon fill="none" stroke="#000000" stroke-width="2" stroke-linecap="round" stroke-linejoin="round" stroke-miterlimit="10" points="
			3.703,18.019 28.297,1.5 11.778,22.791 		"/>
		
			<polygon fill="none" stroke="#000000" stroke-width="2" stroke-linecap="round" stroke-linejoin="round" stroke-miterlimit="10" points="
			15.816,24.994 28.297,1.5 26.462,26.095 		"/>
		
			<polygon fill="none" stroke="#000000" stroke-width="2" stroke-linecap="round" stroke-linejoin="round" stroke-miterlimit="10" points="
			11.778,22.791 12.88,30.5 28.297,1.5 		"/>
	</g>
</g>
<g id="rasterized">
	<path d="M29.272,1.345c-0.009-0.058-0.018-0.114-0.038-0.169c-0.017-0.05-0.042-0.096-0.067-0.143
		c-0.03-0.056-0.061-0.108-0.101-0.157c-0.015-0.018-0.021-0.041-0.037-0.058c-0.021-0.023-0.049-0.033-0.072-0.054
		c-0.046-0.042-0.095-0.078-0.149-0.111c-0.049-0.03-0.099-0.054-0.152-0.074c-0.028-0.011-0.051-0.031-0.08-0.039
		c-0.028-0.008-0.055-0.004-0.083-0.009c-0.058-0.012-0.114-0.017-0.173-0.019c-0.058-0.001-0.113,0.002-0.169,0.01
		c-0.055,0.008-0.106,0.02-0.16,0.038c-0.059,0.019-0.114,0.044-0.169,0.074c-0.027,0.015-0.057,0.019-0.083,0.036L3.145,17.189
		c-0.285,0.191-0.452,0.516-0.442,0.859s0.195,0.657,0.491,0.832l7.663,4.528l1.034,7.234c0.061,0.428,0.391,0.769,0.817,0.843
		c0.058,0.01,0.115,0.015,0.173,0.015c0.365,0,0.707-0.2,0.882-0.531l2.631-4.911l9.965,1.031c0.035,0.003,0.069,0.005,0.103,0.005
		c0.233,0,0.461-0.082,0.642-0.233c0.207-0.173,0.335-0.423,0.355-0.693l1.835-24.595c0.002-0.021-0.006-0.039-0.006-0.06
		C29.289,1.457,29.281,1.402,29.272,1.345z M23.703,5.791L11.528,21.482l-5.952-3.517L23.703,5.791z M13.436,27.323l-0.608-4.254
		l9.116-11.75L13.436,27.323z M25.541,24.994l-8.126-0.84l9.514-17.756L25.541,24.994z"/>
</g>
</svg>
