<?xml version="1.0" encoding="utf-8"?>
<!-- Generator: Adobe Illustrator 17.1.0, SVG Export Plug-In . SVG Version: 6.00 Build 0)  -->
<!DOCTYPE svg PUBLIC "-//W3C//DTD SVG 1.1//EN" "http://www.w3.org/Graphics/SVG/1.1/DTD/svg11.dtd">
<svg version="1.1" xmlns="http://www.w3.org/2000/svg" xmlns:xlink="http://www.w3.org/1999/xlink" x="0px" y="0px"
	 viewBox="0 0 32 32" enable-background="new 0 0 32 32" xml:space="preserve">
<g id="line" display="none">
	<g display="inline">
		<path fill="#FFFFFF" stroke="#000000" stroke-width="2" stroke-linejoin="round" stroke-miterlimit="10" d="M10.124,3H7.316
			C6.081,3,5.08,4.001,5.08,5.236v21.527C5.08,27.999,6.081,29,7.316,29h2.807c1.235,0,2.236-1.001,2.236-2.236V5.236
			C12.36,4.001,11.359,3,10.124,3z"/>
		<path fill="#FFFFFF" stroke="#000000" stroke-width="2" stroke-linejoin="round" stroke-miterlimit="10" d="M19.64,5.236v21.527
			c0,1.235,1.001,2.236,2.236,2.236h2.807c1.235,0,2.236-1.001,2.236-2.236V5.236C26.92,4.001,25.919,3,24.684,3h-2.807
			C20.641,3,19.64,4.001,19.64,5.236z"/>
	</g>
</g>
<g id="rasterized">
	<g>
		<g>
			<path d="M10.124,30H7.316c-1.785,0-3.236-1.452-3.236-3.236V5.236C4.08,3.452,5.532,2,7.316,2h2.807
				c1.785,0,3.236,1.452,3.236,3.236v21.527C13.36,28.548,11.908,30,10.124,30z M7.316,4C6.635,4,6.08,4.555,6.08,5.236v21.527
				C6.08,27.445,6.635,28,7.316,28h2.807c0.682,0,1.236-0.555,1.236-1.236V5.236C11.36,4.555,10.805,4,10.124,4H7.316z"/>
		</g>
		<g>
			<path d="M24.684,30h-2.807c-1.785,0-3.236-1.452-3.236-3.236V5.236C18.64,3.452,20.092,2,21.876,2h2.807
				c1.785,0,3.236,1.452,3.236,3.236v21.527C27.92,28.548,26.468,30,24.684,30z M21.876,4c-0.682,0-1.236,0.555-1.236,1.236v21.527
				c0,0.682,0.555,1.236,1.236,1.236h2.807c0.682,0,1.236-0.555,1.236-1.236V5.236C25.92,4.555,25.365,4,24.684,4H21.876z"/>
		</g>
	</g>
</g>
</svg>
