<?xml version="1.0" encoding="utf-8"?>
<!-- Generator: Adobe Illustrator 17.1.0, SVG Export Plug-In . SVG Version: 6.00 Build 0)  -->
<!DOCTYPE svg PUBLIC "-//W3C//DTD SVG 1.1//EN" "http://www.w3.org/Graphics/SVG/1.1/DTD/svg11.dtd">
<svg version="1.1" xmlns="http://www.w3.org/2000/svg" xmlns:xlink="http://www.w3.org/1999/xlink" x="0px" y="0px"
	 viewBox="0 0 32 32" enable-background="new 0 0 32 32" xml:space="preserve">
<g id="line" display="none">
	
		<path display="inline" fill="none" stroke="#000000" stroke-width="2" stroke-linecap="round" stroke-linejoin="round" stroke-miterlimit="10" d="
		M26.176,28H4.824C3.817,28,3,27.183,3,26.176V4.824C3,3.817,3.817,3,4.824,3h21.353C27.183,3,28,3.817,28,4.824v21.353
		C28,27.183,27.183,28,26.176,28z"/>
	<path display="inline" fill="#FFFFFF" stroke="#FFFFFF" stroke-width="6" stroke-miterlimit="10" d="M29.194,5.706l-3.078-3.078
		c-0.497-0.497-1.304-0.497-1.802,0l-0.638,0.638l0,0L10.763,16.179l4.88,4.88L28.56,8.141l0.634-0.634
		C29.692,7.01,29.692,6.203,29.194,5.706z"/>
	<g display="inline">
		
			<rect x="9.508" y="9.662" transform="matrix(0.7071 -0.7071 0.7071 0.7071 -3.7924 17.0698)" fill="none" stroke="#000000" stroke-width="2" stroke-linecap="round" stroke-linejoin="round" stroke-miterlimit="10" width="18.402" height="6.901"/>
		<path fill="none" stroke="#000000" stroke-width="2" stroke-linecap="round" stroke-linejoin="round" stroke-miterlimit="10" d="
			M29.194,7.507l-0.638,0.638c-0.497,0.497-1.304,0.497-1.802,0l-3.078-3.078c-0.497-0.497-0.497-1.304,0-1.802l0.638-0.638
			c0.497-0.497,1.304-0.497,1.802,0l3.078,3.078C29.692,6.203,29.692,7.01,29.194,7.507z"/>
		<path fill="none" stroke="#000000" stroke-width="2" stroke-linecap="round" stroke-linejoin="round" stroke-miterlimit="10" d="
			M9.898,18.941l3.215,3.215c0.408,0.408,0.254,1.101-0.289,1.297l-4.697,1.702c-0.609,0.221-1.21-0.347-1.022-0.968l1.483-4.917
			C8.759,18.701,9.477,18.52,9.898,18.941z"/>
	</g>
	<g display="inline">
		<polygon fill="none" stroke="#FFFFFF" stroke-width="6" stroke-linecap="round" stroke-miterlimit="10" points="-5.36,42 -14,42 
			-14,33.5 		"/>
	</g>
</g>
<g id="rasterized">
	<g>
		<path d="M27,26.176C27,26.63,26.63,27,26.176,27H4.824C4.37,27,4,26.63,4,26.176V4.824C4,4.37,4.37,4,4.824,4h13.875l2-2H4.824
			C3.267,2,2,3.267,2,4.824v21.353C2,27.733,3.267,29,4.824,29h21.353C27.733,29,29,27.733,29,26.176V11.944l-2,2V26.176z"/>
		<path d="M29.901,4.999l-3.078-3.078c-0.858-0.86-2.357-0.86-3.216,0l-0.638,0.638c-0.193,0.193-0.341,0.418-0.453,0.659
			c-0.166,0.045-0.324,0.117-0.448,0.241L9.056,16.472c-0.188,0.188-0.293,0.442-0.293,0.707c0,0.217,0.086,0.418,0.215,0.59
			c-0.632,0.132-1.155,0.575-1.347,1.213l-1.483,4.917c-0.165,0.547-0.065,1.123,0.274,1.58c0.337,0.454,0.874,0.725,1.434,0.725
			c0.208,0,0.414-0.036,0.612-0.108l4.697-1.702c0.578-0.209,1.003-0.692,1.136-1.292c0.008-0.036,0.004-0.071,0.01-0.107
			c0.108,0.038,0.219,0.065,0.332,0.065c0.256,0,0.512-0.098,0.707-0.293L28.362,9.753c0.128-0.128,0.199-0.286,0.243-0.449
			c0.241-0.111,0.465-0.259,0.658-0.452l0.638-0.638c0.43-0.429,0.666-1,0.666-1.608S30.331,5.428,29.901,4.999z M24.383,3.973
			l0.638-0.638c0.066-0.066,0.142-0.08,0.194-0.08s0.127,0.014,0.193,0.08l3.078,3.078c0.066,0.066,0.08,0.142,0.08,0.194
			s-0.014,0.127-0.08,0.194l-0.638,0.638c-0.133,0.133-0.254,0.133-0.387,0L24.383,4.36c-0.066-0.066-0.08-0.142-0.08-0.194
			S24.317,4.039,24.383,3.973z M8.184,24.071l1.258-4.172l2.727,2.728L8.184,24.071z M14.643,20.645l-3.466-3.465L22.775,5.581
			l3.465,3.466L14.643,20.645z"/>
	</g>
</g>
</svg>
