<?xml version="1.0" encoding="utf-8"?>
<!-- Generator: Adobe Illustrator 17.1.0, SVG Export Plug-In . SVG Version: 6.00 Build 0)  -->
<!DOCTYPE svg PUBLIC "-//W3C//DTD SVG 1.1//EN" "http://www.w3.org/Graphics/SVG/1.1/DTD/svg11.dtd">
<svg version="1.1" xmlns="http://www.w3.org/2000/svg" xmlns:xlink="http://www.w3.org/1999/xlink" x="0px" y="0px"
	 viewBox="0 0 32 32" enable-background="new 0 0 32 32" xml:space="preserve">
<g id="line" display="none">
	<g display="inline">
		
			<rect x="6.104" y="11.55" transform="matrix(0.7071 -0.7071 0.7071 0.7071 -6.0935 16.1167)" fill="none" stroke="#000000" stroke-width="2" stroke-linecap="round" stroke-linejoin="round" stroke-miterlimit="10" width="20.608" height="7.728"/>
		<path fill="none" stroke="#000000" stroke-width="2" stroke-linecap="round" stroke-linejoin="round" stroke-miterlimit="10" d="
			M28.149,9.137l-0.715,0.715c-0.557,0.557-1.46,0.557-2.017,0L21.97,6.404c-0.557-0.557-0.557-1.46,0-2.017l0.715-0.715
			c0.557-0.557,1.46-0.557,2.017,0l3.447,3.447C28.706,7.676,28.706,8.58,28.149,9.137z"/>
		<path fill="none" stroke="#000000" stroke-width="2" stroke-linecap="round" stroke-linejoin="round" stroke-miterlimit="10" d="
			M6.541,21.941l3.6,3.6c0.457,0.457,0.284,1.233-0.323,1.453L4.558,28.9c-0.682,0.247-1.354-0.389-1.145-1.084l1.66-5.506
			C5.266,21.671,6.07,21.469,6.541,21.941z"/>
	</g>
	<g display="inline">
		<polygon fill="none" stroke="#FFFFFF" stroke-width="6" stroke-linecap="round" stroke-miterlimit="10" points="-5.36,42 -15,42 
			-15,33.5 		"/>
	</g>
	<g display="inline">
		<polygon fill="none" stroke="#FFFFFF" stroke-width="6" stroke-linecap="round" stroke-miterlimit="10" points="26.64,42 18,42 
			18,33.5 		"/>
	</g>
</g>
<g id="rasterized">
	<path d="M28.856,6.412l-3.447-3.447c-0.917-0.917-2.514-0.916-3.431,0L21.263,3.68c-0.224,0.224-0.39,0.482-0.508,0.756
		c-0.186,0.04-0.364,0.115-0.5,0.252L5.683,19.26c-0.391,0.391-0.391,1.023,0,1.414l0.04,0.04c-0.75,0.08-1.385,0.572-1.607,1.307
		l-1.66,5.506c-0.174,0.576-0.068,1.182,0.289,1.663c0.355,0.479,0.919,0.764,1.509,0.764c0.219,0,0.436-0.038,0.645-0.114
		l5.26-1.906c0.608-0.22,1.056-0.729,1.196-1.361c0.021-0.092,0.019-0.185,0.026-0.277c0.146,0.08,0.304,0.137,0.473,0.137
		c0.265,0,0.52-0.105,0.707-0.293l14.572-14.572c0.141-0.141,0.213-0.316,0.252-0.497c0.279-0.12,0.536-0.29,0.757-0.511
		l0.715-0.715C29.803,8.897,29.803,7.358,28.856,6.412z M4.438,27.88l1.535-5.093l3.33,3.33L4.438,27.88z M11.854,24.018
		l-4.05-4.051L20.961,6.81l2.025,2.025l1.723,1.724l0,0l0.302,0.302L11.854,24.018z M27.442,8.43l-0.715,0.715
		c-0.218,0.217-0.385,0.217-0.603,0l-1.724-1.724l-1.723-1.724c-0.166-0.167-0.166-0.437,0-0.603l0.715-0.715
		c0.109-0.109,0.236-0.125,0.302-0.125c0.065,0,0.192,0.016,0.301,0.125l3.447,3.447C27.609,7.993,27.609,8.263,27.442,8.43z"/>
</g>
</svg>
