<?xml version="1.0" encoding="utf-8"?>
<!-- Generator: Adobe Illustrator 17.1.0, SVG Export Plug-In . SVG Version: 6.00 Build 0)  -->
<!DOCTYPE svg PUBLIC "-//W3C//DTD SVG 1.1//EN" "http://www.w3.org/Graphics/SVG/1.1/DTD/svg11.dtd">
<svg version="1.1" xmlns="http://www.w3.org/2000/svg" xmlns:xlink="http://www.w3.org/1999/xlink" x="0px" y="0px"
	 viewBox="0 0 32 32" enable-background="new 0 0 32 32" xml:space="preserve">
<g id="line" display="none">
	<g display="inline">
		<path fill="none" stroke="#FFFFFF" stroke-width="6" stroke-linecap="round" stroke-linejoin="round" stroke-miterlimit="10" d="
			M-27,8V5.878C-27,5.076-25.924,4-25.122,4h6.726C-17.594,4-17,7.002-17,7.804V9h14v14.968C-3,25.407-3.667,27-5.106,27h-20.788
			C-27.333,27-29,25.407-29,23.968V8H-27z"/>
	</g>
	<g display="inline">
		<path fill="none" stroke="#000000" stroke-width="2" stroke-linecap="round" stroke-linejoin="round" stroke-miterlimit="10" d="
			M30,25.069C30,26.135,29.135,27,28.069,27H3.931C2.865,27,2,26.135,2,25.069V6.931C2,5.865,2.865,5,3.931,5h24.138
			C29.135,5,30,5.865,30,6.931V25.069z"/>
		<path fill="none" stroke="#000000" stroke-width="2" stroke-linecap="round" stroke-linejoin="round" stroke-miterlimit="10" d="
			M29.5,17.708l-5.359-5.359c-0.754-0.754-1.977-0.754-2.731,0L7.156,26.603"/>
		<path fill="none" stroke="#000000" stroke-width="2" stroke-linecap="round" stroke-linejoin="round" stroke-miterlimit="10" d="
			M11.19,22.57l-2.497-2.497c-0.754-0.754-1.977-0.754-2.731,0L2.5,23.536"/>
		
			<circle fill="none" stroke="#000000" stroke-width="2" stroke-linecap="round" stroke-linejoin="round" stroke-miterlimit="10" cx="9.42" cy="11.994" r="3.379"/>
	</g>
	
		<line display="inline" fill="none" stroke="#FFFFFF" stroke-width="6" stroke-linecap="round" stroke-linejoin="round" stroke-miterlimit="10" x1="33.5" y1="4.625" x2="62.25" y2="27"/>
</g>
<g id="rasterized">
	<g>
		<path d="M28.069,4H3.931C2.315,4,1,5.315,1,6.931v18.138C1,26.685,2.315,28,3.931,28h24.138C29.685,28,31,26.685,31,25.069V6.931
			C31,5.315,29.685,4,28.069,4z M3.931,6h24.138C28.583,6,29,6.417,29,6.931v8.863l-4.152-4.152c-1.106-1.107-3.038-1.107-4.145,0
			l-9.514,9.514l-1.79-1.79c-1.106-1.107-3.038-1.107-4.145,0L3,21.622V6.931C3,6.417,3.417,6,3.931,6z M3,25.069V24.38
			c0.071-0.042,0.146-0.076,0.207-0.138l3.462-3.462c0.363-0.362,0.953-0.362,1.316,0l1.79,1.79l-3.326,3.326
			C6.419,25.927,6.406,25.967,6.38,26H3.931C3.417,26,3,25.583,3,25.069z M28.069,26H9.174l12.944-12.944
			c0.363-0.362,0.953-0.362,1.316,0l5.359,5.359c0.061,0.061,0.136,0.096,0.207,0.138v6.516C29,25.583,28.583,26,28.069,26z"/>
		<path d="M9.419,16.374c2.415,0,4.379-1.964,4.379-4.379s-1.964-4.379-4.379-4.379S5.04,9.579,5.04,11.994
			S7.004,16.374,9.419,16.374z M9.419,9.615c1.312,0,2.379,1.067,2.379,2.379s-1.067,2.379-2.379,2.379S7.04,13.306,7.04,11.994
			S8.107,9.615,9.419,9.615z"/>
	</g>
</g>
</svg>
