<?xml version="1.0" encoding="utf-8"?>
<!-- Generator: Adobe Illustrator 17.1.0, SVG Export Plug-In . SVG Version: 6.00 Build 0)  -->
<!DOCTYPE svg PUBLIC "-//W3C//DTD SVG 1.1//EN" "http://www.w3.org/Graphics/SVG/1.1/DTD/svg11.dtd">
<svg version="1.1" xmlns="http://www.w3.org/2000/svg" xmlns:xlink="http://www.w3.org/1999/xlink" x="0px" y="0px"
	 viewBox="0 0 32 32" enable-background="new 0 0 32 32" xml:space="preserve">
<g id="line" display="none">
	<g display="inline">
		<g>
			<path d="M16,3c2.359,0,4.533,0.581,6.526,1.744c1.991,1.162,3.569,2.739,4.731,4.731C28.419,11.467,29,13.641,29,16
				c0,2.359-0.581,4.534-1.743,6.526c-1.163,1.992-2.74,3.569-4.731,4.731C20.533,28.419,18.359,29,16,29
				c-1.252,0-2.483-0.181-3.69-0.542c0.666-1.049,1.106-1.975,1.32-2.776c0.102-0.384,0.406-1.574,0.914-3.572
				c0.226,0.44,0.638,0.821,1.236,1.143s1.241,0.482,1.93,0.482c1.365,0,2.584-0.386,3.656-1.159
				c1.072-0.773,1.901-1.836,2.488-3.191c0.587-1.354,0.88-2.878,0.88-4.57c0-1.286-0.336-2.494-1.007-3.622
				c-0.672-1.128-1.645-2.048-2.92-2.759c-1.275-0.711-2.714-1.066-4.316-1.066c-1.185,0-2.291,0.164-3.318,0.491
				c-1.027,0.327-1.899,0.761-2.615,1.303c-0.717,0.542-1.332,1.166-1.845,1.871c-0.514,0.705-0.892,1.436-1.134,2.192
				c-0.243,0.756-0.364,1.513-0.364,2.268c0,1.174,0.225,2.207,0.677,3.098s1.111,1.518,1.981,1.879
				c0.092,0.037,0.176,0.056,0.25,0.056c0.197,0,0.328-0.131,0.393-0.394c0.023-0.079,0.068-0.254,0.136-0.525
				s0.113-0.44,0.136-0.508c0.067-0.259,0.005-0.502-0.186-0.728c-0.576-0.688-0.863-1.54-0.863-2.556
				c0-1.704,0.59-3.168,1.769-4.393c1.179-1.224,2.722-1.837,4.63-1.837c1.704,0,3.032,0.463,3.986,1.388
				c0.954,0.925,1.43,2.127,1.43,3.605c0,1.919-0.387,3.549-1.159,4.892c-0.773,1.343-1.763,2.014-2.971,2.014
				c-0.688,0-1.241-0.245-1.659-0.736c-0.417-0.491-0.547-1.081-0.389-1.769c0.09-0.395,0.24-0.923,0.448-1.583
				c0.209-0.66,0.378-1.241,0.508-1.744c0.129-0.502,0.195-0.928,0.195-1.278c0-0.564-0.152-1.033-0.457-1.405
				c-0.305-0.372-0.739-0.558-1.303-0.558c-0.7,0-1.292,0.322-1.777,0.965c-0.485,0.643-0.728,1.445-0.728,2.404
				c0,0.824,0.141,1.512,0.423,2.065l-1.676,7.076c-0.192,0.79-0.265,1.789-0.22,2.996C8.462,26.89,6.583,25.305,5.15,23.16
				C3.716,21.016,3,18.63,3,16c0-2.359,0.581-4.533,1.743-6.525c1.162-1.992,2.739-3.569,4.731-4.731C11.466,3.581,13.641,3,16,3
				 M16,1c-2.707,0-5.241,0.678-7.534,2.016c-2.284,1.333-4.118,3.166-5.45,5.45C1.678,10.76,1,13.294,1,16
				c0,3.02,0.837,5.803,2.487,8.272c1.64,2.454,3.824,4.296,6.491,5.474c0.259,0.114,0.534,0.171,0.808,0.171
				c0.05,0,0.099-0.002,0.149-0.006c0.224,0.212,0.498,0.372,0.802,0.463C13.125,30.79,14.559,31,16,31
				c2.706,0,5.24-0.678,7.533-2.016c2.284-1.333,4.118-3.167,5.451-5.45C30.322,21.241,31,18.706,31,16
				c0-2.706-0.678-5.24-2.016-7.533c-1.333-2.284-3.167-4.118-5.451-5.451C21.241,1.678,18.706,1,16,1L16,1z M14.262,15.64
				c0.015-0.369,0.089-0.669,0.225-0.911c-0.02,0.113-0.049,0.253-0.093,0.425C14.354,15.306,14.31,15.468,14.262,15.64
				L14.262,15.64z"/>
		</g>
	</g>
</g>
<g id="rasterized">
	<g>
		<g>
			<path d="M16,3c2.359,0,4.533,0.581,6.526,1.744c1.991,1.162,3.569,2.739,4.731,4.731C28.419,11.467,29,13.641,29,16
				c0,2.359-0.581,4.534-1.743,6.526c-1.163,1.992-2.74,3.569-4.731,4.731C20.533,28.419,18.359,29,16,29
				c-1.252,0-2.483-0.181-3.69-0.542c0.666-1.049,1.106-1.975,1.32-2.776c0.102-0.384,0.406-1.574,0.914-3.572
				c0.226,0.44,0.638,0.821,1.236,1.143s1.241,0.482,1.93,0.482c1.365,0,2.584-0.386,3.656-1.159
				c1.072-0.773,1.901-1.836,2.488-3.191c0.587-1.354,0.88-2.878,0.88-4.57c0-1.286-0.336-2.494-1.007-3.622
				c-0.672-1.128-1.645-2.048-2.92-2.759c-1.275-0.711-2.714-1.066-4.316-1.066c-1.185,0-2.291,0.164-3.318,0.491
				c-1.027,0.327-1.899,0.761-2.615,1.303c-0.717,0.542-1.332,1.166-1.845,1.871c-0.514,0.705-0.892,1.436-1.134,2.192
				c-0.243,0.756-0.364,1.513-0.364,2.268c0,1.174,0.225,2.207,0.677,3.098s1.111,1.518,1.981,1.879
				c0.092,0.037,0.176,0.056,0.25,0.056c0.197,0,0.328-0.131,0.393-0.394c0.023-0.079,0.068-0.254,0.136-0.525
				s0.113-0.44,0.136-0.508c0.067-0.259,0.005-0.502-0.186-0.728c-0.576-0.688-0.863-1.54-0.863-2.556
				c0-1.704,0.59-3.168,1.769-4.393c1.179-1.224,2.722-1.837,4.63-1.837c1.704,0,3.032,0.463,3.986,1.388
				c0.954,0.925,1.43,2.127,1.43,3.605c0,1.919-0.387,3.549-1.159,4.892c-0.773,1.343-1.763,2.014-2.971,2.014
				c-0.688,0-1.241-0.245-1.659-0.736c-0.417-0.491-0.547-1.081-0.389-1.769c0.09-0.395,0.24-0.923,0.448-1.583
				c0.209-0.66,0.378-1.241,0.508-1.744c0.129-0.502,0.195-0.928,0.195-1.278c0-0.564-0.152-1.033-0.457-1.405
				c-0.305-0.372-0.739-0.558-1.303-0.558c-0.7,0-1.292,0.322-1.777,0.965c-0.485,0.643-0.728,1.445-0.728,2.404
				c0,0.824,0.141,1.512,0.423,2.065l-1.676,7.076c-0.192,0.79-0.265,1.789-0.22,2.996C8.462,26.89,6.583,25.305,5.15,23.16
				C3.716,21.016,3,18.63,3,16c0-2.359,0.581-4.533,1.743-6.525c1.162-1.992,2.739-3.569,4.731-4.731C11.466,3.581,13.641,3,16,3
				 M16,1c-2.707,0-5.241,0.678-7.534,2.016c-2.284,1.333-4.118,3.166-5.45,5.45C1.678,10.76,1,13.294,1,16
				c0,3.02,0.837,5.803,2.487,8.272c1.64,2.454,3.824,4.296,6.491,5.474c0.259,0.114,1.454,0.537,1.758,0.628
				C13.125,30.79,14.559,31,16,31c2.706,0,5.24-0.678,7.533-2.016c2.284-1.333,4.118-3.167,5.451-5.45
				C30.322,21.241,31,18.706,31,16c0-2.706-0.678-5.24-2.016-7.533c-1.333-2.284-3.167-4.118-5.451-5.451
				C21.241,1.678,18.706,1,16,1L16,1z M14.262,15.64c0.015-0.369,0.089-0.669,0.225-0.911c-0.02,0.113-0.049,0.253-0.093,0.425
				C14.354,15.306,14.31,15.468,14.262,15.64L14.262,15.64z"/>
		</g>
	</g>
</g>
</svg>
