<?xml version="1.0" encoding="utf-8"?>
<!-- Generator: Adobe Illustrator 17.1.0, SVG Export Plug-In . SVG Version: 6.00 Build 0)  -->
<!DOCTYPE svg PUBLIC "-//W3C//DTD SVG 1.1//EN" "http://www.w3.org/Graphics/SVG/1.1/DTD/svg11.dtd">
<svg version="1.1" xmlns="http://www.w3.org/2000/svg" xmlns:xlink="http://www.w3.org/1999/xlink" x="0px" y="0px"
	 viewBox="0 0 32 32" enable-background="new 0 0 32 32" xml:space="preserve">
<g id="line" display="none">
	
		<line display="inline" fill="none" stroke="#000000" stroke-width="2" stroke-linecap="round" stroke-linejoin="round" stroke-miterlimit="10" x1="16" y1="2" x2="16" y2="30"/>
	
		<line display="inline" fill="none" stroke="#000000" stroke-width="2" stroke-linecap="round" stroke-linejoin="round" stroke-miterlimit="10" x1="30" y1="16" x2="2" y2="16"/>
</g>
<g id="rasterized">
	<path d="M30,15H17V2c0-0.552-0.448-1-1-1s-1,0.448-1,1v13H2c-0.552,0-1,0.448-1,1s0.448,1,1,1h13v13c0,0.552,0.448,1,1,1
		s1-0.448,1-1V17h13c0.552,0,1-0.448,1-1S30.552,15,30,15z"/>
</g>
</svg>
