<?xml version="1.0" encoding="utf-8"?>
<!-- Generator: Adobe Illustrator 17.1.0, SVG Export Plug-In . SVG Version: 6.00 Build 0)  -->
<!DOCTYPE svg PUBLIC "-//W3C//DTD SVG 1.1//EN" "http://www.w3.org/Graphics/SVG/1.1/DTD/svg11.dtd">
<svg version="1.1" xmlns="http://www.w3.org/2000/svg" xmlns:xlink="http://www.w3.org/1999/xlink" x="0px" y="0px"
	 viewBox="0 0 32 32" enable-background="new 0 0 32 32" xml:space="preserve">
<g id="line" display="none">
	<g display="inline">
		<path fill="none" stroke="#000000" stroke-width="2" stroke-linecap="round" stroke-linejoin="round" stroke-miterlimit="10" d="
			M10.047,10.453c0-4.078,3.723-5.12,5.549-5.12c3.281,0,5.94,2.66,5.94,5.94s-3.713,5.383-4.827,7.054s-1.671,2.599-1.671,4.641"/>
		
			<circle fill="none" stroke="#000000" stroke-width="2" stroke-linecap="round" stroke-linejoin="round" stroke-miterlimit="10" cx="15" cy="27" r="0.188"/>
	</g>
</g>
<g id="rasterized">
	<g>
		<path d="M15.596,4.333c-2.632,0-6.549,1.629-6.549,6.119c0,0.552,0.448,1,1,1s1-0.448,1-1c0-4.072,4.503-4.119,4.549-4.119
			c2.724,0,4.94,2.216,4.94,4.94c0,1.86-1.577,3.356-2.968,4.676c-0.665,0.63-1.292,1.225-1.69,1.823
			c-1.174,1.761-1.839,2.871-1.839,5.195c0,0.552,0.448,1,1,1s1-0.448,1-1c0-1.762,0.434-2.482,1.503-4.086
			c0.274-0.411,0.822-0.931,1.403-1.482c1.516-1.438,3.592-3.407,3.592-6.127C22.536,7.447,19.423,4.333,15.596,4.333z"/>
		<path d="M15,25.813c-0.655,0-1.188,0.533-1.188,1.187s0.533,1.188,1.188,1.188s1.188-0.533,1.188-1.188S15.655,25.813,15,25.813z"
			/>
	</g>
</g>
</svg>
