<?xml version="1.0" encoding="utf-8"?>
<!-- Generator: Adobe Illustrator 17.1.0, SVG Export Plug-In . SVG Version: 6.00 Build 0)  -->
<!DOCTYPE svg PUBLIC "-//W3C//DTD SVG 1.1//EN" "http://www.w3.org/Graphics/SVG/1.1/DTD/svg11.dtd">
<svg version="1.1" xmlns="http://www.w3.org/2000/svg" xmlns:xlink="http://www.w3.org/1999/xlink" x="0px" y="0px"
	 viewBox="0 0 32 32" enable-background="new 0 0 32 32" xml:space="preserve">
<g id="line" display="none">
	
		<path display="inline" fill="none" stroke="#000000" stroke-width="2" stroke-linecap="round" stroke-linejoin="round" stroke-miterlimit="10" d="
		M29,8.099V4.445c-7.091,0-11,6.602-11,12.504v7.736C18,25.968,19.403,27,20.686,27h5.696C27.665,27,29,25.968,29,24.686v-6.877
		C29,16.525,27.665,16,26.382,16h-4.173C23.128,10,26.061,8.099,29,8.099z"/>
	
		<path display="inline" fill="none" stroke="#000000" stroke-width="2" stroke-linecap="round" stroke-linejoin="round" stroke-miterlimit="10" d="
		M14,8.099V4.445c-7,0-11,6.602-11,12.504v7.736C3,25.968,4.04,27,5.323,27h5.696C12.301,27,14,25.968,14,24.686v-6.877
		C14,16.525,12.301,16,11.018,16H6.846C7.765,10,11,8.099,14,8.099z"/>
</g>
<g id="rasterized">
	<g>
		<path d="M26.382,28h-5.695C18.943,28,17,26.639,17,24.686V16.95c0-6.638,4.489-13.504,12-13.504c0.552,0,1,0.448,1,1v3.654
			c0,0.552-0.448,1-1,1c-2.821,0-4.739,2.034-5.589,5.901h2.971C28.546,15,30,16.128,30,17.808v6.877C30,26.639,28.093,28,26.382,28
			z M28,5.497c-5.656,0.585-9,6.106-9,11.453v7.736C19,25.324,19.867,26,20.687,26h5.695C27.184,26,28,25.336,28,24.686v-6.877
			C28,17.009,26.398,17,26.382,17h-4.173c-0.292,0-0.569-0.127-0.759-0.349s-0.274-0.515-0.229-0.803
			c1.018-6.64,4.349-8.354,6.779-8.683V5.497z"/>
	</g>
	<g>
		<path d="M11.018,28H5.323C3.491,28,2,26.513,2,24.686V16.95C2,10.312,6.489,3.445,14,3.445c0.552,0,1,0.448,1,1v3.654
			c0,0.552-0.448,1-1,1c-1.773,0-4.792,0.799-5.949,5.901h2.967C12.997,15,15,15.964,15,17.808v6.877C15,26.552,12.859,28,11.018,28
			z M13,5.497C7.344,6.082,4,11.603,4,16.95v7.736C4,25.41,4.593,26,5.323,26h5.695C11.889,26,13,25.263,13,24.686v-6.877
			C13,17.393,12.037,17,11.018,17H6.846c-0.292,0-0.569-0.127-0.759-0.349s-0.274-0.515-0.229-0.803
			C6.898,9.049,10.667,7.472,13,7.165V5.497z"/>
	</g>
</g>
</svg>
