<?xml version="1.0" encoding="utf-8"?>
<!-- Generator: Adobe Illustrator 17.1.0, SVG Export Plug-In . SVG Version: 6.00 Build 0)  -->
<!DOCTYPE svg PUBLIC "-//W3C//DTD SVG 1.1//EN" "http://www.w3.org/Graphics/SVG/1.1/DTD/svg11.dtd">
<svg version="1.1" xmlns="http://www.w3.org/2000/svg" xmlns:xlink="http://www.w3.org/1999/xlink" x="0px" y="0px"
	 viewBox="0 0 32 32" enable-background="new 0 0 32 32" xml:space="preserve">
<g id="line" display="none">
	
		<path display="inline" fill="none" stroke="#000000" stroke-width="2" stroke-linecap="round" stroke-linejoin="round" stroke-miterlimit="10" d="
		M3,23.073v3.654c7,0,11-6.602,11-12.504V6.487C14,5.204,12.597,4,11.314,4H5.618C4.335,4,3,5.204,3,6.487v6.877
		C3,14.647,4.335,15,5.618,15h4.173C8.872,21,5,23.073,3,23.073z"/>
	
		<path display="inline" fill="none" stroke="#000000" stroke-width="2" stroke-linecap="round" stroke-linejoin="round" stroke-miterlimit="10" d="
		M18,23.073v3.654c7,0,11-6.602,11-12.504V6.487C29,5.204,27.96,4,26.677,4h-5.696C19.699,4,18,5.204,18,6.487v6.877
		C18,14.647,19.699,15,20.982,15h4.173C24.235,21,21,23.073,18,23.073z"/>
	<g display="inline">
		<polygon fill="none" stroke="#FFFFFF" stroke-width="6" stroke-linecap="round" stroke-miterlimit="10" points="26.64,42 17,42 
			17,33.5 		"/>
	</g>
</g>
<g id="rasterized">
	<g>
		<path d="M3,27.727c-0.552,0-1-0.448-1-1v-3.654c0-0.552,0.448-1,1-1c1.418,0,4.468-1.515,5.576-6.073H5.618
			C2.261,16,2,13.982,2,13.364V6.487C2,4.694,3.758,3,5.618,3h5.695C13.208,3,15,4.694,15,6.487v7.736
			C15,20.861,10.511,27.727,3,27.727z M4,23.958v1.718c5.656-0.585,9-6.106,9-11.453V6.487C13,5.806,12.086,5,11.313,5H5.618
			C4.862,5,4,5.792,4,6.487v6.877C4,13.938,5.132,14,5.618,14h4.173c0.292,0,0.569,0.127,0.759,0.349s0.274,0.515,0.229,0.803
			C9.907,20.843,6.499,23.408,4,23.958z"/>
	</g>
	<g>
		<path d="M18,27.727c-0.552,0-1-0.448-1-1v-3.654c0-0.552,0.448-1,1-1c2.936,0,5.065-2.196,5.948-6.073h-2.966
			C18.526,16,17,14.99,17,13.364V6.487C17,4.609,19.189,3,20.982,3h5.695C28.479,3,30,4.597,30,6.487v7.736
			C30,20.861,25.511,27.727,18,27.727z M19,23.998v1.678c5.656-0.585,9-6.106,9-11.453V6.487C28,5.708,27.37,5,26.677,5h-5.695
			C20.148,5,19,5.861,19,6.487v6.877C19,13.709,19.908,14,20.982,14h4.172c0.292,0,0.569,0.127,0.759,0.349s0.274,0.515,0.229,0.803
			C25.075,22.122,21.16,23.679,19,23.998z"/>
	</g>
</g>
</svg>
