<?xml version="1.0" encoding="utf-8"?>
<!-- Generator: Adobe Illustrator 17.1.0, SVG Export Plug-In . SVG Version: 6.00 Build 0)  -->
<!DOCTYPE svg PUBLIC "-//W3C//DTD SVG 1.1//EN" "http://www.w3.org/Graphics/SVG/1.1/DTD/svg11.dtd">
<svg version="1.1" xmlns="http://www.w3.org/2000/svg" xmlns:xlink="http://www.w3.org/1999/xlink" x="0px" y="0px"
	 viewBox="0 0 32 32" enable-background="new 0 0 32 32" xml:space="preserve">
<g id="line" display="none">
	<g display="inline">
		<polyline fill="none" stroke="#FFFFFF" stroke-width="6" stroke-linecap="round" stroke-miterlimit="10" points="21.84,-9.87 
			16.124,-4.154 10.408,-9.87 		"/>
	</g>
	<g display="inline">
		
			<ellipse fill="none" stroke="#000000" stroke-width="2" stroke-linecap="round" stroke-linejoin="round" stroke-miterlimit="10" cx="6.266" cy="26.002" rx="4.422" ry="4.394"/>
		<g>
			<path fill="none" stroke="#000000" stroke-width="2" stroke-linecap="round" stroke-linejoin="round" stroke-miterlimit="10" d="
				M6.155,11.355C5.623,11.355,5,11.784,5,12.314v3.835c0,0.529,0.623,0.959,1.155,0.959c5.331,0,9.008,4.612,9.008,8.715
				c0,0.529,0.527,1.178,1.06,1.178h3.879c0.007,0,0.013,0,0.019,0c0.533,0,0.965-0.649,0.965-1.178
				c0-0.068-0.102-0.244-0.116-0.309C20.851,18.007,13.929,11.355,6.155,11.355z"/>
			<path fill="none" stroke="#000000" stroke-width="2" stroke-linecap="round" stroke-linejoin="round" stroke-miterlimit="10" d="
				M29.823,25.407C29.712,12.913,18.816,2.396,6.155,2.396C5.623,2.396,5,2.825,5,3.355v3.734c0,0.529,0.623,0.959,1.155,0.959
				c9.589,0,17.784,8.259,17.784,17.774C23.94,26.351,24.467,27,25,27h3.859c0.007,0,0.013,0,0.019,0
				c0.533,0,0.965-0.649,0.965-1.178C29.843,25.755,29.836,25.47,29.823,25.407z"/>
		</g>
	</g>
</g>
<g id="rasterized">
	<g>
		<path d="M6.266,20.608c-2.99,0-5.422,2.42-5.422,5.394s2.433,5.394,5.422,5.394s5.422-2.419,5.422-5.394
			S9.255,20.608,6.266,20.608z M6.266,29.396c-1.887,0-3.422-1.522-3.422-3.394c0-1.872,1.535-3.394,3.422-3.394
			s3.422,1.522,3.422,3.394C9.688,27.874,8.153,29.396,6.266,29.396z"/>
		<path d="M6.155,10.355C5.136,10.355,4,11.16,4,12.314v3.834c0,1.154,1.136,1.958,2.155,1.958c4.719,0,8.008,4.066,8.008,7.715
			c0,1.007,0.9,2.178,2.061,2.178h3.898c1.158,0,1.965-1.147,1.965-2.178c0-0.202-0.056-0.368-0.121-0.52
			C21.723,17.317,14.385,10.355,6.155,10.355z M20.012,26l-3.693,0.016c-0.056-0.029-0.146-0.15-0.156-0.194
			c0-4.595-4.11-9.715-10.008-9.715c-0.04,0-0.11-0.031-0.155-0.063v-3.625c0.045-0.033,0.116-0.063,0.155-0.063
			c7.248,0,13.704,6.156,13.815,13.174c0.001,0.064,0.008,0.128,0.022,0.191c0.015,0.073,0.037,0.138,0.063,0.205
			C20.043,25.953,20.028,25.979,20.012,26z"/>
		<path d="M30.823,25.343C30.676,12.357,19.393,1.396,6.155,1.396C5.136,1.396,4,2.2,4,3.354v3.734c0,1.154,1.136,1.959,2.155,1.959
			c8.941,0,16.785,7.838,16.785,16.774C22.94,26.829,23.84,28,25,28h3.878c1.158,0,1.965-1.147,1.965-2.178
			C30.843,25.767,30.842,25.532,30.823,25.343z M28.769,26l-3.673,0.016c-0.056-0.029-0.146-0.15-0.156-0.194
			c0-10.177-8.603-18.774-18.785-18.774c-0.04,0-0.11-0.031-0.155-0.063V3.459c0.045-0.033,0.116-0.063,0.155-0.063
			c12.182,0,22.562,10.084,22.668,22.02c0,0.065-0.003,0.062,0.01,0.126c0.007,0.076,0.01,0.237,0.01,0.28
			C28.842,25.868,28.806,25.95,28.769,26z"/>
	</g>
</g>
</svg>
