<?xml version="1.0" encoding="utf-8"?>
<!-- Generator: Adobe Illustrator 17.1.0, SVG Export Plug-In . SVG Version: 6.00 Build 0)  -->
<!DOCTYPE svg PUBLIC "-//W3C//DTD SVG 1.1//EN" "http://www.w3.org/Graphics/SVG/1.1/DTD/svg11.dtd">
<svg version="1.1" xmlns="http://www.w3.org/2000/svg" xmlns:xlink="http://www.w3.org/1999/xlink" x="0px" y="0px"
	 viewBox="0 0 32 32" enable-background="new 0 0 32 32" xml:space="preserve">
<g id="line" display="none">
	<g display="inline">
		
			<rect x="7" y="12" fill="#FFFFFF" stroke="#000000" stroke-width="2" stroke-linejoin="round" stroke-miterlimit="10" width="18" height="18"/>
		<rect x="11" y="9" fill="#FFFFFF" width="10" height="8"/>
		
			<polyline fill="none" stroke="#000000" stroke-width="2" stroke-linecap="round" stroke-linejoin="round" stroke-miterlimit="10" points="
			10.807,8.154 16.115,2.846 21.423,8.154 		"/>
		
			<line fill="none" stroke="#000000" stroke-width="2" stroke-linecap="round" stroke-linejoin="round" stroke-miterlimit="10" x1="16" y1="4" x2="16" y2="18"/>
	</g>
</g>
<g id="rasterized">
	<g>
		<path d="M25,11h-4v2h3v16H8V13h3v-2H7c-0.552,0-1,0.448-1,1v18c0,0.552,0.448,1,1,1h18c0.552,0,1-0.448,1-1V12
			C26,11.448,25.552,11,25,11z"/>
		<path d="M10.807,9.154c0.256,0,0.512-0.098,0.707-0.293L15,5.375V18c0,0.552,0.448,1,1,1s1-0.448,1-1V5.145l3.716,3.715
			c0.391,0.391,1.023,0.391,1.414,0s0.391-1.023,0-1.414l-5.308-5.308c-0.391-0.391-1.023-0.391-1.414,0L10.1,7.447
			c-0.391,0.391-0.391,1.023,0,1.414C10.295,9.056,10.551,9.154,10.807,9.154z"/>
	</g>
</g>
</svg>
