<?xml version="1.0" encoding="utf-8"?>
<!-- Generator: Adobe Illustrator 17.1.0, SVG Export Plug-In . SVG Version: 6.00 Build 0)  -->
<!DOCTYPE svg PUBLIC "-//W3C//DTD SVG 1.1//EN" "http://www.w3.org/Graphics/SVG/1.1/DTD/svg11.dtd">
<svg version="1.1" xmlns="http://www.w3.org/2000/svg" xmlns:xlink="http://www.w3.org/1999/xlink" x="0px" y="0px"
	 viewBox="0 0 32 32" enable-background="new 0 0 32 32" xml:space="preserve">
<g id="line" display="none">
	
		<path display="inline" fill="none" stroke="#000000" stroke-width="2" stroke-linecap="round" stroke-linejoin="round" stroke-miterlimit="10" d="
		M9,20.117C9,20.605,8.605,21,8.117,21H4.883C4.395,21,4,20.605,4,20.117v-9.234C4,10.395,4.395,10,4.883,10h3.234
		C8.605,10,9,10.395,9,10.883V20.117z"/>
	
		<path display="inline" fill="none" stroke="#000000" stroke-width="2" stroke-linecap="round" stroke-linejoin="round" stroke-miterlimit="10" d="
		M18,26.536c0,0.488-0.52,0.883-1.007,0.883l-7.086-6.18C9.419,21.239,9,20.843,9,20.356v-9.712c0-0.488,0.356-0.883,0.844-0.883
		l7.168-6.18C17.5,3.581,18,3.976,18,4.464V26.536z"/>
	<g display="inline">
		<path fill="none" stroke="#000000" stroke-width="2" stroke-linecap="round" stroke-linejoin="round" stroke-miterlimit="10" d="
			M22.284,21.531c1.681-1.377,2.755-3.468,2.755-5.81c0-2.427-1.157-4.579-2.943-5.951"/>
		<path fill="none" stroke="#000000" stroke-width="2" stroke-linecap="round" stroke-linejoin="round" stroke-miterlimit="10" d="
			M20.437,12.412c0.922,0.81,1.515,1.985,1.515,3.309c0,1.239-0.512,2.355-1.333,3.158"/>
	</g>
</g>
<g id="rasterized">
	<g>
		<path d="M17.012,2.581c-0.24,0-0.472,0.086-0.653,0.243L9.416,8.81C9.174,8.867,8.962,8.982,8.769,9.123
			C8.565,9.047,8.347,9,8.117,9H4.883C3.845,9,3,9.845,3,10.883v9.234C3,21.155,3.845,22,4.883,22h3.234
			c0.237,0,0.461-0.049,0.669-0.129c0.204,0.148,0.435,0.261,0.689,0.319l6.859,5.982c0.182,0.159,0.416,0.247,0.657,0.247
			c1.069,0,2.007-0.88,2.007-1.883V4.464C19,3.443,18.09,2.581,17.012,2.581z M5,11h3v9H5V11z M17,26.099l-6.437-5.613
			c-0.158-0.138-0.356-0.223-0.563-0.242v-0.126v-9.234v-0.134c0.183-0.029,0.355-0.108,0.497-0.23L17,4.912V26.099z"/>
		<path d="M22.705,8.977c-0.438-0.337-1.065-0.255-1.402,0.184c-0.336,0.438-0.254,1.065,0.184,1.402
			c1.622,1.246,2.552,3.126,2.552,5.158c0,1.958-0.871,3.793-2.389,5.037c-0.427,0.35-0.49,0.98-0.14,1.407
			c0.198,0.241,0.484,0.366,0.774,0.366c0.223,0,0.447-0.074,0.633-0.227c1.983-1.625,3.121-4.024,3.121-6.584
			C26.039,13.062,24.824,10.604,22.705,8.977z"/>
		<path d="M22.953,15.721c0-1.543-0.676-3.023-1.855-4.06c-0.415-0.365-1.046-0.324-1.411,0.091
			c-0.365,0.415-0.324,1.046,0.091,1.411c0.758,0.667,1.175,1.575,1.175,2.558c0,0.924-0.367,1.792-1.032,2.444
			c-0.395,0.386-0.401,1.02-0.015,1.414c0.196,0.2,0.455,0.3,0.714,0.3c0.252,0,0.505-0.095,0.7-0.286
			C22.373,18.563,22.953,17.187,22.953,15.721z"/>
	</g>
</g>
</svg>
