<?xml version="1.0" encoding="utf-8"?>
<!-- Generator: Adobe Illustrator 17.1.0, SVG Export Plug-In . SVG Version: 6.00 Build 0)  -->
<!DOCTYPE svg PUBLIC "-//W3C//DTD SVG 1.1//EN" "http://www.w3.org/Graphics/SVG/1.1/DTD/svg11.dtd">
<svg version="1.1" xmlns="http://www.w3.org/2000/svg" xmlns:xlink="http://www.w3.org/1999/xlink" x="0px" y="0px"
	 viewBox="0 0 32 32" enable-background="new 0 0 32 32" xml:space="preserve">
<g id="line" display="none">
	
		<polygon display="inline" fill="none" stroke="#000000" stroke-width="2" stroke-linecap="round" stroke-linejoin="round" stroke-miterlimit="10" points="
		15.667,2.5 19.993,11.388 29.667,12.813 22.667,19.731 24.319,29.5 15.667,24.888 7.014,29.5 8.667,19.731 1.667,12.813 
		11.34,11.388 	"/>
</g>
<g id="rasterized">
	<g>
		<path d="M7.014,30.5c-0.206,0-0.411-0.063-0.584-0.188c-0.31-0.223-0.465-0.603-0.401-0.979l1.565-9.256l-6.63-6.553
			c-0.27-0.267-0.365-0.663-0.247-1.023c0.118-0.36,0.43-0.623,0.804-0.678l9.152-1.349l4.095-8.413
			c0.335-0.688,1.463-0.688,1.798,0l4.095,8.413l9.152,1.349c0.375,0.055,0.686,0.318,0.804,0.678
			c0.118,0.36,0.022,0.756-0.247,1.023l-6.63,6.553l1.566,9.256c0.064,0.376-0.092,0.755-0.401,0.979
			c-0.309,0.223-0.719,0.25-1.055,0.071l-8.183-4.361l-8.182,4.361C7.337,30.461,7.175,30.5,7.014,30.5z M3.794,13.51l5.575,5.51
			c0.231,0.229,0.337,0.557,0.283,0.878L8.339,27.66l6.857-3.655c0.294-0.157,0.646-0.157,0.94,0l6.857,3.655l-1.313-7.762
			c-0.055-0.321,0.051-0.649,0.283-0.878l5.575-5.51l-7.692-1.133c-0.327-0.048-0.608-0.254-0.753-0.552l-3.427-7.041l-3.427,7.041
			c-0.145,0.297-0.426,0.504-0.753,0.552L3.794,13.51z"/>
	</g>
</g>
</svg>
