<?xml version="1.0" encoding="utf-8"?>
<!-- Generator: Adobe Illustrator 17.1.0, SVG Export Plug-In . SVG Version: 6.00 Build 0)  -->
<!DOCTYPE svg PUBLIC "-//W3C//DTD SVG 1.1//EN" "http://www.w3.org/Graphics/SVG/1.1/DTD/svg11.dtd">
<svg version="1.1" xmlns="http://www.w3.org/2000/svg" xmlns:xlink="http://www.w3.org/1999/xlink" x="0px" y="0px"
	 viewBox="0 0 32 32" enable-background="new 0 0 32 32" xml:space="preserve">
<g id="line" display="none">
	<path display="inline" fill="#FFFFFF" stroke="#000000" stroke-width="2" stroke-linejoin="round" stroke-miterlimit="10" d="
		M26.62,29H5.38C4.066,29,3,27.934,3,26.62V5.38C3,4.066,4.066,3,5.38,3h21.24C27.934,3,29,4.066,29,5.38v21.24
		C29,27.934,27.934,29,26.62,29z"/>
</g>
<g id="rasterized">
	<g>
		<path d="M26.62,30H5.38C3.516,30,2,28.484,2,26.62V5.38C2,3.516,3.516,2,5.38,2h21.24C28.484,2,30,3.516,30,5.38v21.24
			C30,28.484,28.484,30,26.62,30z M5.38,4C4.619,4,4,4.619,4,5.38v21.24C4,27.381,4.619,28,5.38,28h21.24
			c0.761,0,1.38-0.619,1.38-1.38V5.38C28,4.619,27.381,4,26.62,4H5.38z"/>
	</g>
</g>
</svg>
