<?xml version="1.0" encoding="utf-8"?>
<!-- Generator: Adobe Illustrator 17.1.0, SVG Export Plug-In . SVG Version: 6.00 Build 0)  -->
<!DOCTYPE svg PUBLIC "-//W3C//DTD SVG 1.1//EN" "http://www.w3.org/Graphics/SVG/1.1/DTD/svg11.dtd">
<svg version="1.1" xmlns="http://www.w3.org/2000/svg" xmlns:xlink="http://www.w3.org/1999/xlink" x="0px" y="0px"
	 viewBox="0 0 32 32" enable-background="new 0 0 32 32" xml:space="preserve">
<g id="line" display="none">
	<path display="inline" fill="#FFFFFF" stroke="#000000" stroke-width="2" stroke-linejoin="round" stroke-miterlimit="10" d="
		M29.283,15.525c0.06-0.135,0.096-6.45,0.098-9.521c0.003-0.797-0.411-1.484-0.994-2.067c-0.582-0.582-1.311-1.011-2.07-1
		c-3-0.026-9.006-0.025-9.087-0.005c-0.571,0.041-1.062,0.346-1.499,0.782L2.625,16.82c-0.964,0.964-0.327,1.641,0.637,2.605
		l9.612,9.612c0.964,0.964,1.641,1.601,2.605,0.637l13.106-13.106C28.902,16.251,29.175,15.93,29.283,15.525z M19.857,12.491
		c-1.376-1.376-1.376-3.606,0-4.982c1.376-1.376,3.606-1.376,4.982,0c1.376,1.376,1.376,3.606,0,4.982
		C23.463,13.867,21.233,13.867,19.857,12.491z"/>
	<g display="inline">
		<path fill="#FFFFFF" stroke="#FFFFFF" stroke-width="6" stroke-linejoin="round" stroke-miterlimit="10" d="M57.742,14.855
			c0.053-0.118,0.084-5.644,0.085-8.33c0.002-0.698-0.36-1.298-0.87-1.808c-0.509-0.509-1.147-0.885-1.811-0.875
			c-2.625-0.023-7.88-0.022-7.95-0.005c-0.499,0.036-0.929,0.303-1.311,0.684L34.418,15.987c-0.843,0.843-0.286,1.436,0.558,2.279
			l8.409,8.409c0.843,0.843,1.436,1.401,2.279,0.558l11.466-11.466C57.409,15.49,57.648,15.209,57.742,14.855z M49.495,12.2
			c-1.204-1.204-1.204-3.155,0-4.359c1.204-1.204,3.155-1.204,4.359,0c1.204,1.204,1.204,3.155,0,4.359
			C52.65,13.404,50.699,13.404,49.495,12.2z"/>
	</g>
</g>
<g id="rasterized">
	<g>
		<path d="M14.548,31.152L14.548,31.152c-0.973,0-1.689-0.716-2.381-1.409l-9.612-9.612c-0.871-0.871-2.328-2.328-0.637-4.019
			L15.023,3.007c0.657-0.657,1.375-1.018,2.134-1.073l0,0.002c0.238-0.015,0.895-0.019,3.275-0.019c1.936,0,4.324,0.006,5.892,0.02
			h0c0.973,0,1.922,0.447,2.768,1.293c0.858,0.857,1.291,1.792,1.287,2.778c-0.005,7.89-0.068,9.383-0.139,9.774l0.007,0.002
			c-0.172,0.643-0.581,1.115-0.957,1.491L16.186,30.381C15.675,30.893,15.124,31.152,14.548,31.152z M17.307,3.929
			c-0.002,0-0.004,0-0.006,0c-0.27,0.019-0.552,0.18-0.864,0.492L3.332,17.527c-0.163,0.163-0.188,0.243-0.188,0.244
			c0.038,0.16,0.55,0.672,0.825,0.947l9.612,9.612c0.267,0.267,0.757,0.757,0.961,0.819c0.03-0.014,0.106-0.058,0.229-0.182
			l13.106-13.105c0.18-0.18,0.353-0.369,0.421-0.541c0.044-0.791,0.08-5.997,0.082-9.317c0.001-0.442-0.228-0.886-0.701-1.359
			c-0.45-0.449-0.936-0.707-1.334-0.707c-1.601-0.014-3.982-0.02-5.913-0.02C18.515,3.917,17.481,3.923,17.307,3.929z
			 M22.348,14.523c-1.208,0-2.344-0.471-3.198-1.325c-0.854-0.854-1.325-1.99-1.325-3.198s0.471-2.344,1.325-3.198
			c0.854-0.854,1.99-1.325,3.198-1.325s2.344,0.471,3.198,1.325c1.763,1.763,1.763,4.633,0,6.396
			C24.691,14.053,23.556,14.523,22.348,14.523z M22.348,7.478c-0.674,0-1.307,0.263-1.784,0.739
			c-0.477,0.477-0.739,1.11-0.739,1.784s0.263,1.308,0.739,1.784c0.953,0.952,2.615,0.952,3.568,0c0.983-0.983,0.983-2.584,0-3.568
			C23.655,7.74,23.021,7.478,22.348,7.478z"/>
	</g>
</g>
</svg>
