<?xml version="1.0" encoding="utf-8"?>
<!-- Generator: Adobe Illustrator 17.1.0, SVG Export Plug-In . SVG Version: 6.00 Build 0)  -->
<!DOCTYPE svg PUBLIC "-//W3C//DTD SVG 1.1//EN" "http://www.w3.org/Graphics/SVG/1.1/DTD/svg11.dtd">
<svg version="1.1" xmlns="http://www.w3.org/2000/svg" xmlns:xlink="http://www.w3.org/1999/xlink" x="0px" y="0px"
	 viewBox="0 0 32 32" enable-background="new 0 0 32 32" xml:space="preserve">
<g id="line" display="none">
	<g display="inline">
		<path fill="#FFFFFF" stroke="#000000" stroke-width="2" stroke-linejoin="round" stroke-miterlimit="10" d="M29.927,16.313
			c0.045-0.1,0.071-4.79,0.073-7.071c0.002-0.592-0.306-1.102-0.738-1.535c-0.432-0.432-0.974-0.751-1.537-0.743
			c-2.228-0.019-6.688-0.018-6.749-0.004c-0.424,0.031-0.789,0.257-1.113,0.581l-9.733,9.733c-0.716,0.716-0.243,1.219,0.473,1.935
			l7.138,7.138c0.716,0.716,1.219,1.189,1.935,0.473l9.733-9.733C29.644,16.852,29.847,16.614,29.927,16.313z M22.927,14.06
			c-1.022-1.022-1.022-2.678,0-3.7c1.022-1.022,2.678-1.022,3.7,0s1.022,2.678,0,3.7S23.949,15.082,22.927,14.06z"/>
		<path fill="#FFFFFF" stroke="#FFFFFF" stroke-width="6" stroke-linejoin="round" stroke-miterlimit="10" d="M25.742,14.855
			c0.053-0.118,0.084-5.644,0.085-8.33c0.002-0.698-0.36-1.298-0.87-1.808c-0.509-0.509-1.147-0.885-1.811-0.875
			c-2.625-0.023-7.88-0.022-7.95-0.005c-0.499,0.036-0.929,0.303-1.311,0.684L2.418,15.987c-0.843,0.843-0.286,1.436,0.558,2.279
			l8.409,8.409c0.843,0.843,1.436,1.401,2.279,0.558l11.466-11.466C25.409,15.49,25.648,15.209,25.742,14.855z M17.495,12.2
			c-1.204-1.204-1.204-3.155,0-4.359c1.204-1.204,3.155-1.204,4.359,0s1.204,3.155,0,4.359S18.699,13.404,17.495,12.2z"/>
		<path fill="#FFFFFF" stroke="#000000" stroke-width="2" stroke-linejoin="round" stroke-miterlimit="10" d="M25.742,14.855
			c0.053-0.118,0.084-5.644,0.085-8.33c0.002-0.698-0.36-1.298-0.87-1.808c-0.509-0.509-1.147-0.885-1.811-0.875
			c-2.625-0.023-7.88-0.022-7.95-0.005c-0.499,0.036-0.929,0.303-1.311,0.684L2.418,15.987c-0.843,0.843-0.286,1.436,0.558,2.279
			l8.409,8.409c0.843,0.843,1.436,1.401,2.279,0.558l11.466-11.466C25.409,15.49,25.648,15.209,25.742,14.855z M17.495,12.2
			c-1.204-1.204-1.204-3.155,0-4.359c1.204-1.204,3.155-1.204,4.359,0s1.204,3.155,0,4.359S18.699,13.404,17.495,12.2z"/>
	</g>
</g>
<g id="rasterized">
	<g>
		<path d="M12.851,28.652L12.851,28.652c-0.903,0-1.548-0.645-2.172-1.269l-8.41-8.41c-0.743-0.743-2.125-2.125-0.558-3.693
			L13.178,3.814c0.597-0.597,1.252-0.925,1.947-0.975v0.002c0.228-0.015,0.826-0.017,2.908-0.017c1.688,0,3.759,0.005,5.122,0.017h0
			c0.883,0,1.746,0.404,2.509,1.168c0.774,0.774,1.166,1.622,1.163,2.519c-0.004,6.895-0.055,8.215-0.125,8.584l0.005,0.001
			c-0.158,0.59-0.528,1.019-0.869,1.361L14.372,27.941C13.9,28.413,13.388,28.652,12.851,28.652z M3.02,16.815
			C3.124,17,3.482,17.358,3.683,17.56l8.41,8.41c0.201,0.201,0.559,0.559,0.745,0.663c0.028-0.021,0.068-0.053,0.12-0.105
			l11.467-11.466c0.135-0.135,0.276-0.287,0.333-0.413c0.038-0.755,0.068-5.323,0.07-8.124c0.001-0.352-0.188-0.711-0.577-1.101
			c-0.37-0.37-0.764-0.582-1.079-0.582c-2.56-0.021-7.441-0.022-7.9-0.007c-0.001,0-0.003,0-0.004,0
			c-0.205,0.015-0.425,0.143-0.676,0.394L3.125,16.694C3.073,16.747,3.04,16.787,3.02,16.815z M19.674,14.103
			c-1.09,0-2.115-0.425-2.886-1.196c-1.592-1.591-1.592-4.181,0-5.772c0.771-0.771,1.796-1.196,2.886-1.196s2.115,0.425,2.886,1.196
			c1.592,1.591,1.592,4.181,0,5.772C21.79,13.678,20.765,14.103,19.674,14.103z M19.674,7.939c-0.556,0-1.079,0.217-1.472,0.61
			c-0.812,0.812-0.812,2.132,0,2.944c0.787,0.786,2.157,0.786,2.944,0c0.812-0.812,0.812-2.132,0-2.944
			C20.753,8.156,20.23,7.939,19.674,7.939z"/>
	</g>
	<path d="M31,9.246C31.002,8.443,30.656,7.688,29.968,7C29.663,6.695,29.336,6.474,29,6.304c0,0-0.041,9.411-0.058,9.794
		c-0.036,0.063-11.361,11.462-11.361,11.462c0.397,0.338,0.845,0.615,1.404,0.615c0.498,0,0.968-0.218,1.398-0.648l9.733-9.733
		c0.305-0.304,0.635-0.688,0.778-1.225l-0.004-0.001C30.957,16.224,30.996,15.072,31,9.246z"/>
</g>
</svg>
