<?xml version="1.0" encoding="utf-8"?>
<!-- Generator: Adobe Illustrator 17.1.0, SVG Export Plug-In . SVG Version: 6.00 Build 0)  -->
<!DOCTYPE svg PUBLIC "-//W3C//DTD SVG 1.1//EN" "http://www.w3.org/Graphics/SVG/1.1/DTD/svg11.dtd">
<svg version="1.1" xmlns="http://www.w3.org/2000/svg" xmlns:xlink="http://www.w3.org/1999/xlink" x="0px" y="0px"
	 viewBox="0 0 32 32" enable-background="new 0 0 32 32" xml:space="preserve">
<g id="line" display="none">
	
		<path display="inline" fill="none" stroke="#000000" stroke-width="2" stroke-linecap="round" stroke-linejoin="round" stroke-miterlimit="10" d="
		M22.017,2.69c-0.868,1.324-1.785,2.612-2.747,3.862c-0.639,0.825-0.26,1.655,0.274,2.671c0.278,0.648,0.547,1.301,0.809,1.96
		c-2.374,2.807-4.978,5.411-7.785,7.785c-0.659-0.262-1.313-0.532-1.96-0.809c-1.016-0.534-1.847-0.912-2.671-0.274
		c-1.25,0.963-2.538,1.88-3.862,2.747c-0.872,0.573-1.162,1.731-0.625,2.618c0.817,1.333,1.634,2.667,2.451,4
		c0.536,0.886,1.803,1.101,2.804,0.444c8.118-5.322,15.054-12.258,20.376-20.376c0.657-1.001,0.442-2.268-0.444-2.804
		c-1.333-0.817-2.667-1.634-4-2.451C23.748,1.528,22.59,1.817,22.017,2.69z"/>
</g>
<g id="rasterized">
	<g>
		<path d="M7.455,29.079L7.455,29.079c-1.014,0-1.916-0.49-2.411-1.31l-2.448-3.995c-0.819-1.353-0.41-3.097,0.929-3.976
			c1.296-0.85,2.575-1.759,3.801-2.704c0.465-0.36,0.985-0.543,1.545-0.543c0.765,0,1.45,0.328,2.202,0.724
			c0.405,0.171,0.849,0.355,1.306,0.541c2.433-2.097,4.724-4.387,6.82-6.82c-0.188-0.462-0.379-0.921-0.575-1.377
			c-0.462-0.874-1.211-2.301-0.146-3.678c0.946-1.228,1.855-2.506,2.702-3.798c0.554-0.844,1.482-1.347,2.483-1.347
			c0.525,0,1.041,0.144,1.489,0.415l4.005,2.454c0.623,0.377,1.062,0.995,1.23,1.738c0.187,0.825,0.015,1.724-0.473,2.467
			C24.486,16.15,17.534,23.102,9.251,28.532C8.707,28.89,8.085,29.079,7.455,29.079z M8.871,18.551c-0.083,0-0.18,0.015-0.323,0.126
			c-1.268,0.977-2.588,1.916-3.926,2.793c-0.427,0.28-0.57,0.847-0.318,1.263l2.448,3.996c0.136,0.224,0.391,0.35,0.703,0.35l0,0
			c0.24,0,0.481-0.076,0.7-0.219c8.051-5.279,14.81-12.038,20.088-20.088c0.191-0.292,0.262-0.629,0.195-0.928
			c-0.034-0.147-0.116-0.349-0.32-0.472l-4.005-2.454c-0.396-0.24-0.988-0.092-1.26,0.321c-0.874,1.333-1.813,2.654-2.792,3.923
			c-0.211,0.273-0.187,0.542,0.367,1.597c0.315,0.726,0.588,1.388,0.854,2.056c0.136,0.343,0.073,0.733-0.166,1.015
			c-2.403,2.841-5.062,5.5-7.903,7.903c-0.282,0.238-0.672,0.302-1.015,0.166c-0.667-0.266-1.329-0.539-1.985-0.82
			C9.667,18.795,9.178,18.551,8.871,18.551z"/>
	</g>
</g>
</svg>
