<?xml version="1.0" encoding="utf-8"?>
<!-- Generator: Adobe Illustrator 17.1.0, SVG Export Plug-In . SVG Version: 6.00 Build 0)  -->
<!DOCTYPE svg PUBLIC "-//W3C//DTD SVG 1.1//EN" "http://www.w3.org/Graphics/SVG/1.1/DTD/svg11.dtd">
<svg version="1.1" xmlns="http://www.w3.org/2000/svg" xmlns:xlink="http://www.w3.org/1999/xlink" x="0px" y="0px"
	 viewBox="0 0 32 32" enable-background="new 0 0 32 32" xml:space="preserve">
<g id="line" display="none">
	
		<path display="inline" fill="none" stroke="#000000" stroke-width="2" stroke-linecap="round" stroke-linejoin="round" stroke-miterlimit="10" d="
		M14,12.25c0,0.966-0.784,1.75-1.75,1.75h-8.5C2.784,14,2,13.216,2,12.25v-7.5C2,3.784,2.784,3,3.75,3h8.5
		C13.216,3,14,3.784,14,4.75V12.25z"/>
	
		<path display="inline" fill="none" stroke="#000000" stroke-width="2" stroke-linecap="round" stroke-linejoin="round" stroke-miterlimit="10" d="
		M30,12.25c0,0.966-0.784,1.75-1.75,1.75h-8.5C18.784,14,18,13.216,18,12.25v-7.5C18,3.784,18.784,3,19.75,3h8.5
		C29.216,3,30,3.784,30,4.75V12.25z"/>
	
		<path display="inline" fill="none" stroke="#000000" stroke-width="2" stroke-linecap="round" stroke-linejoin="round" stroke-miterlimit="10" d="
		M14,27.25c0,0.966-0.784,1.75-1.75,1.75h-8.5C2.784,29,2,28.216,2,27.25v-7.5C2,18.784,2.784,18,3.75,18h8.5
		c0.966,0,1.75,0.784,1.75,1.75V27.25z"/>
	
		<path display="inline" fill="none" stroke="#000000" stroke-width="2" stroke-linecap="round" stroke-linejoin="round" stroke-miterlimit="10" d="
		M30,27.25c0,0.966-0.784,1.75-1.75,1.75h-8.5C18.784,29,18,28.216,18,27.25v-7.5c0-0.966,0.784-1.75,1.75-1.75h8.5
		c0.966,0,1.75,0.784,1.75,1.75V27.25z"/>
	<g display="inline">
		<path fill="none" stroke="#FFFFFF" stroke-width="6" stroke-linecap="round" stroke-linejoin="round" stroke-miterlimit="10" d="
			M10,39c0,1.105-0.895,2-2,2l0,0c-1.105,0-2-0.895-2-2v-3c0-1.105,0.895-2,2-2l0,0c1.105,0,2,0.895,2,2V39z"/>
		<path fill="none" stroke="#FFFFFF" stroke-width="6" stroke-linecap="round" stroke-linejoin="round" stroke-miterlimit="10" d="
			M26,39c0,1.105-0.895,2-2,2l0,0c-1.105,0-2-0.895-2-2v-3c0-1.105,0.895-2,2-2l0,0c1.105,0,2,0.895,2,2V39z"/>
	</g>
</g>
<g id="rasterized">
	<g>
		<path d="M12.25,15h-8.5C2.233,15,1,13.767,1,12.25v-7.5C1,3.233,2.233,2,3.75,2h8.5C13.767,2,15,3.233,15,4.75v7.5
			C15,13.767,13.767,15,12.25,15z M3.75,4C3.336,4,3,4.336,3,4.75v7.5C3,12.664,3.336,13,3.75,13h8.5c0.414,0,0.75-0.336,0.75-0.75
			v-7.5C13,4.336,12.664,4,12.25,4H3.75z"/>
	</g>
	<g>
		<path d="M28.25,15h-8.5C18.233,15,17,13.767,17,12.25v-7.5C17,3.233,18.233,2,19.75,2h8.5C29.767,2,31,3.233,31,4.75v7.5
			C31,13.767,29.767,15,28.25,15z M19.75,4C19.336,4,19,4.336,19,4.75v7.5c0,0.414,0.336,0.75,0.75,0.75h8.5
			c0.414,0,0.75-0.336,0.75-0.75v-7.5C29,4.336,28.664,4,28.25,4H19.75z"/>
	</g>
	<g>
		<path d="M12.25,30h-8.5C2.233,30,1,28.767,1,27.25v-7.5C1,18.233,2.233,17,3.75,17h8.5c1.517,0,2.75,1.233,2.75,2.75v7.5
			C15,28.767,13.767,30,12.25,30z M3.75,19C3.336,19,3,19.336,3,19.75v7.5C3,27.664,3.336,28,3.75,28h8.5
			c0.414,0,0.75-0.336,0.75-0.75v-7.5c0-0.414-0.336-0.75-0.75-0.75H3.75z"/>
	</g>
	<g>
		<path d="M28.25,30h-8.5C18.233,30,17,28.767,17,27.25v-7.5c0-1.517,1.233-2.75,2.75-2.75h8.5c1.517,0,2.75,1.233,2.75,2.75v7.5
			C31,28.767,29.767,30,28.25,30z M19.75,19C19.336,19,19,19.336,19,19.75v7.5c0,0.414,0.336,0.75,0.75,0.75h8.5
			c0.414,0,0.75-0.336,0.75-0.75v-7.5c0-0.414-0.336-0.75-0.75-0.75H19.75z"/>
	</g>
</g>
</svg>
