<?xml version="1.0" encoding="utf-8"?>
<!-- Generator: Adobe Illustrator 17.1.0, SVG Export Plug-In . SVG Version: 6.00 Build 0)  -->
<!DOCTYPE svg PUBLIC "-//W3C//DTD SVG 1.1//EN" "http://www.w3.org/Graphics/SVG/1.1/DTD/svg11.dtd">
<svg version="1.1" xmlns="http://www.w3.org/2000/svg" xmlns:xlink="http://www.w3.org/1999/xlink" x="0px" y="0px"
	 viewBox="0 0 32 32" enable-background="new 0 0 32 32" xml:space="preserve">
<g id="line" display="none">
	
		<line display="inline" fill="none" stroke="#000000" stroke-width="2" stroke-linecap="round" stroke-linejoin="round" stroke-miterlimit="10" x1="11" y1="10" x2="11" y2="25"/>
	
		<line display="inline" fill="none" stroke="#000000" stroke-width="2" stroke-linecap="round" stroke-linejoin="round" stroke-miterlimit="10" x1="16" y1="10" x2="16" y2="25"/>
	
		<line display="inline" fill="none" stroke="#000000" stroke-width="2" stroke-linecap="round" stroke-linejoin="round" stroke-miterlimit="10" x1="21" y1="10" x2="21" y2="25"/>
	
		<path display="inline" fill="none" stroke="#000000" stroke-width="2" stroke-linecap="round" stroke-linejoin="round" stroke-miterlimit="10" d="
		M25,26c0,1.105-0.895,2-2,2H9c-1.105,0-2-0.895-2-2V5c0-1.105,0.895-2,2-2h14c1.105,0,2,0.895,2,2V26z"/>
	
		<line display="inline" fill="none" stroke="#FFFFFF" stroke-width="2" stroke-linecap="round" stroke-linejoin="round" stroke-miterlimit="10" x1="5" y1="8" x2="27" y2="8"/>
	
		<line display="inline" fill="none" stroke="#000000" stroke-width="2" stroke-linecap="round" stroke-linejoin="round" stroke-miterlimit="10" x1="5" y1="7" x2="27" y2="7"/>
</g>
<g id="rasterized">
	<g>
		<path d="M12,25V10c0-0.552-0.448-1-1-1s-1,0.448-1,1v15c0,0.552,0.448,1,1,1S12,25.552,12,25z"/>
		<path d="M17,25V10c0-0.552-0.448-1-1-1s-1,0.448-1,1v15c0,0.552,0.448,1,1,1S17,25.552,17,25z"/>
		<path d="M22,25V10c0-0.552-0.448-1-1-1s-1,0.448-1,1v15c0,0.552,0.448,1,1,1S22,25.552,22,25z"/>
		<path d="M24,26c0,0.551-0.449,1-1,1H9c-0.551,0-1-0.449-1-1V9H6v17c0,1.654,1.346,3,3,3h14c1.654,0,3-1.346,3-3V9h-2V26z"/>
		<path d="M27,6h-1V5c0-1.654-1.346-3-3-3H9C7.346,2,6,3.346,6,5v1H5C4.448,6,4,6.448,4,7s0.448,1,1,1h22c0.552,0,1-0.448,1-1
			S27.552,6,27,6z M8,5c0-0.551,0.449-1,1-1h14c0.551,0,1,0.449,1,1v1H8V5z"/>
	</g>
</g>
</svg>
