<?xml version="1.0" encoding="utf-8"?>
<!-- Generator: Adobe Illustrator 17.1.0, SVG Export Plug-In . SVG Version: 6.00 Build 0)  -->
<!DOCTYPE svg PUBLIC "-//W3C//DTD SVG 1.1//EN" "http://www.w3.org/Graphics/SVG/1.1/DTD/svg11.dtd">
<svg version="1.1" xmlns="http://www.w3.org/2000/svg" xmlns:xlink="http://www.w3.org/1999/xlink" x="0px" y="0px"
	 viewBox="0 0 32 32" enable-background="new 0 0 32 32" xml:space="preserve">
<g id="line" display="none">
	
		<path display="inline" fill="none" stroke="#000000" stroke-width="2" stroke-linecap="round" stroke-linejoin="round" stroke-miterlimit="10" d="
		M10.874,27.518c-3.36,0-6.487-0.985-9.12-2.673c0.465,0.055,0.939,0.083,1.419,0.083c2.787,0,5.353-0.951,7.389-2.547
		c-2.604-0.048-4.801-1.768-5.558-4.132c0.363,0.069,0.736,0.107,1.119,0.107c0.543,0,1.068-0.073,1.568-0.209
		c-2.722-0.547-4.773-2.951-4.773-5.834c0-0.025,0-0.05,0-0.075c0.802,0.446,1.72,0.713,2.695,0.744
		c-1.596-1.067-2.647-2.888-2.647-4.952c0-1.09,0.293-2.112,0.806-2.991c2.934,3.6,7.318,5.968,12.263,6.216
		c-0.101-0.435-0.154-0.89-0.154-1.356c0-3.286,2.664-5.95,5.95-5.95c1.711,0,3.257,0.723,4.343,1.879
		c1.355-0.267,2.629-0.762,3.778-1.444c-0.444,1.389-1.388,2.555-2.616,3.292c1.204-0.144,2.35-0.464,3.417-0.937
		c-0.798,1.193-1.806,2.241-2.969,3.08c0.011,0.255,0.017,0.512,0.017,0.77C27.802,18.452,21.818,27.518,10.874,27.518"/>
</g>
<g id="rasterized">
	<g>
		<path d="M10.874,28.519c-3.43,0-6.771-0.979-9.66-2.832c-0.393-0.251-0.559-0.741-0.402-1.179
			c0.157-0.438,0.601-0.707,1.059-0.656c2.067,0.246,4.229-0.111,6.093-1.017c-1.828-0.772-3.282-2.311-3.913-4.28
			c-0.108-0.336-0.03-0.704,0.204-0.968c0.013-0.015,0.026-0.029,0.04-0.042c-1.467-1.288-2.377-3.175-2.377-5.23
			c0-0.354,0.188-0.72,0.493-0.899c0.111-0.065,0.233-0.113,0.357-0.138c-0.52-0.985-0.802-2.095-0.802-3.246
			c0-1.229,0.326-2.438,0.942-3.495c0.165-0.284,0.458-0.468,0.786-0.494C4.026,4.021,4.34,4.154,4.547,4.408
			c2.592,3.179,6.309,5.231,10.339,5.744c-0.003-0.083-0.004-0.167-0.004-0.251c0-3.832,3.118-6.95,6.95-6.95
			c1.718,0,3.384,0.645,4.654,1.786c1.039-0.256,2.032-0.663,2.957-1.211c0.358-0.21,0.809-0.181,1.133,0.078
			s0.456,0.691,0.33,1.087c-0.122,0.381-0.276,0.749-0.459,1.099c0.385-0.125,0.81-0.006,1.073,0.308
			c0.287,0.34,0.313,0.83,0.066,1.2c-0.77,1.151-1.705,2.162-2.785,3.01c0.001,0.094,0.002,0.188,0.002,0.283
			C28.802,19.403,22.096,28.519,10.874,28.519z M5.758,25.674c1.638,0.557,3.364,0.845,5.116,0.845
			c9.97,0,15.928-8.099,15.928-15.928c0-0.243-0.005-0.484-0.017-0.724c-0.016-0.337,0.14-0.659,0.414-0.857
			c0.164-0.119,0.325-0.241,0.482-0.368c-0.076,0.01-0.151,0.02-0.227,0.029C26.983,8.722,26.543,8.447,26.39,8
			c-0.152-0.446,0.028-0.938,0.432-1.181c0.092-0.055,0.181-0.112,0.269-0.173c-0.239,0.062-0.48,0.116-0.724,0.164
			c-0.339,0.066-0.687-0.045-0.922-0.296c-0.933-0.994-2.25-1.563-3.614-1.563c-2.729,0-4.95,2.22-4.95,4.95
			c0,0.384,0.043,0.764,0.128,1.13c0.071,0.306-0.006,0.627-0.207,0.868c-0.201,0.24-0.496,0.38-0.817,0.357
			c-4.5-0.226-8.749-2.156-11.888-5.354c-0.086,0.369-0.13,0.748-0.13,1.13c0,1.658,0.823,3.199,2.203,4.121
			c0.371,0.248,0.533,0.712,0.396,1.137c-0.136,0.425-0.541,0.716-0.984,0.694c-0.482-0.015-0.962-0.082-1.43-0.196
			c0.535,1.703,1.944,3.021,3.736,3.381c0.455,0.091,0.787,0.483,0.803,0.946c0.016,0.463-0.289,0.877-0.736,0.999
			c-0.422,0.115-0.856,0.19-1.294,0.224c0.895,1.236,2.334,2.017,3.92,2.045c0.423,0.008,0.795,0.281,0.93,0.683
			c0.134,0.401,0.001,0.843-0.332,1.104C9.565,24.433,7.725,25.28,5.758,25.674z"/>
	</g>
</g>
</svg>
