<?xml version="1.0" encoding="utf-8"?>
<!-- Generator: Adobe Illustrator 17.1.0, SVG Export Plug-In . SVG Version: 6.00 Build 0)  -->
<!DOCTYPE svg PUBLIC "-//W3C//DTD SVG 1.1//EN" "http://www.w3.org/Graphics/SVG/1.1/DTD/svg11.dtd">
<svg version="1.1" xmlns="http://www.w3.org/2000/svg" xmlns:xlink="http://www.w3.org/1999/xlink" x="0px" y="0px"
	 viewBox="0 0 32 32" enable-background="new 0 0 32 32" xml:space="preserve">
<g id="line" display="none">
	
		<path display="inline" fill="none" stroke="#000000" stroke-width="2" stroke-linecap="round" stroke-linejoin="round" stroke-miterlimit="10" d="
		M29,29v-1.451c0-2.841-2.556-3.924-5.132-5.007C21.292,21.458,19,22,19,17.667c0-0.006,0-0.013,0-0.019
		c2-0.918,2.292-2.882,2.292-5.177c0,0,1.364-1.514,1.364-2.367C22.656,7.938,22.447,2,16.218,2c-0.241,0-1.061,0-1.302,0
		c-6.229,0-6.5,5.938-6.5,8.104c0,0.763,1.083,2.377,1.083,2.377c0,2.381,0.367,4.416,2.432,5.285c0,3.968-0.271,3.153-3.925,4.778
		S3,24.708,3,27.549V29"/>
</g>
<g id="rasterized">
	<g>
		<path d="M29,30c-0.552,0-1-0.448-1-1v-1.451c0-2.038-1.708-2.903-4.52-4.085c-0.507-0.213-1.019-0.362-1.513-0.505
			C20.108,22.419,18,21.808,18,17.667c0-0.391,0.228-0.764,0.583-0.927c1.261-0.579,1.708-1.696,1.708-4.268
			c0-0.247,0.092-0.485,0.256-0.669c0.543-0.604,1.082-1.435,1.108-1.708c0-4.77-1.779-7.094-5.438-7.094h-1.302
			c-3.701,0-5.5,2.324-5.5,7.104c0.018,0.263,0.453,1.134,0.914,1.82c0.111,0.165,0.17,0.359,0.17,0.558
			c0,2.623,0.493,3.805,1.819,4.363c0.371,0.156,0.612,0.52,0.612,0.922c0,3.469-0.318,4.03-2.84,5.005
			c-0.456,0.176-1.008,0.39-1.678,0.687L8.18,23.562C4.662,25.125,4,25.485,4,27.549V29c0,0.552-0.448,1-1,1s-1-0.448-1-1v-1.451
			c0-3.429,1.794-4.226,5.368-5.814l0.233-0.104c0.706-0.314,1.288-0.54,1.77-0.726c1.423-0.55,1.549-0.599,1.56-2.524
			c-2.031-1.197-2.4-3.451-2.429-5.599c-0.42-0.661-1.085-1.838-1.085-2.678c0-7.921,4.699-9.104,7.5-9.104h1.302
			c2.778,0,7.438,1.183,7.438,9.104c0,0.951-0.822,2.092-1.367,2.744c-0.035,2.135-0.399,4.203-2.274,5.387
			c0.109,2.106,0.866,2.326,2.511,2.803c0.523,0.152,1.116,0.324,1.73,0.582C26.948,22.752,30,24.036,30,27.549V29
			C30,29.552,29.552,30,29,30z"/>
	</g>
</g>
</svg>
