<?xml version="1.0" encoding="utf-8"?>
<!-- Generator: Adobe Illustrator 17.1.0, SVG Export Plug-In . SVG Version: 6.00 Build 0)  -->
<!DOCTYPE svg PUBLIC "-//W3C//DTD SVG 1.1//EN" "http://www.w3.org/Graphics/SVG/1.1/DTD/svg11.dtd">
<svg version="1.1" xmlns="http://www.w3.org/2000/svg" xmlns:xlink="http://www.w3.org/1999/xlink" x="0px" y="0px"
	 viewBox="0 0 32 32" enable-background="new 0 0 32 32" xml:space="preserve">
<g id="line" display="none">
	<g display="inline">
		<g>
			<path fill="none" stroke="#000000" stroke-width="2" stroke-linecap="round" stroke-linejoin="round" stroke-miterlimit="10" d="
				M18,19v-0.626c0-1.582-1.639-2.185-3.074-2.788S12,15.284,12,12.871c0-0.003,0-0.007,0-0.01c1-0.511,1.222-1.605,1.222-2.883
				c0,0,0.733-0.917,0.733-1.392C13.955,7.38,13.812,4,10.343,4c-0.134,0-0.591,0-0.725,0c-3.469,0-3.62,3.38-3.62,4.586
				c0,0.425,0.603,1.361,0.603,1.361c0,1.326,0.204,2.478,1.354,2.961c0,2.21-0.643,1.765-2.677,2.67
				C3.245,16.483,2,16.792,2,18.374V20"/>
			<path fill="none" stroke="#000000" stroke-width="2" stroke-linecap="round" stroke-linejoin="round" stroke-miterlimit="10" d="
				M30,20v-1.626c0-1.582-1.139-2.185-2.574-2.788C25.992,14.983,25,15.284,25,12.871c0-0.003,0-0.007,0-0.01
				c2-0.511,1.354-1.605,1.354-2.883c0,0,0.799-0.917,0.799-1.392C27.152,7.38,27.075,4,23.607,4c-0.134,0-0.591,0-0.725,0
				c-3.469,0-3.62,3.38-3.62,4.586c0,0.425,0.603,1.361,0.603,1.361c0,1.326,0.204,2.478,1.354,2.961c0,2.21-0.274,1.765-2.308,2.67
				C16.877,16.483,16,16.792,16,18.374V19"/>
		</g>
		
			<path fill="#FFFFFF" stroke="#FFFFFF" stroke-width="4" stroke-linecap="round" stroke-linejoin="round" stroke-miterlimit="10" d="
			M22.903,22.637C21.004,21.839,19,22.238,19,19.045c0-0.005,0-0.009,0-0.014c2-0.676,1.785-2.124,1.785-3.815
			c0,0,1.053-1.366,1.053-1.994c0-1.596-0.105-6.222-4.695-6.222c-0.178,0-0.781,0-0.959,0c-4.59,0-4.789,4.625-4.789,6.222
			c0,0.562,0.798,1.877,0.798,1.877c0,1.754,0.27,3.317,1.792,3.957c0,2.924-0.402,2.355-3.094,3.552S7,24.233,7,26.326V28h20
			v-1.674C27,24.233,24.801,23.435,22.903,22.637z"/>
		<path fill="none" stroke="#000000" stroke-width="2" stroke-linecap="round" stroke-linejoin="round" stroke-miterlimit="10" d="
			M27,28v-1.674c0-2.093-2.199-2.891-4.097-3.69C21.004,21.839,19,22.238,19,19.045c0-0.005,0-0.009,0-0.014
			c2-0.676,1.785-2.124,1.785-3.815c0,0,1.053-1.366,1.053-1.994c0-1.596-0.105-6.222-4.695-6.222c-0.178,0-0.781,0-0.959,0
			c-4.59,0-4.789,4.625-4.789,6.222c0,0.562,0.798,1.877,0.798,1.877c0,1.754,0.27,3.317,1.792,3.957
			c0,2.924-0.402,2.355-3.094,3.552S7,24.233,7,26.326V28"/>
	</g>
</g>
<g id="rasterized">
	<g>
		<path d="M8.957,12.908c0-0.402-0.241-0.766-0.612-0.922c-0.458-0.192-0.742-0.601-0.742-2.04c0-0.192-0.056-0.38-0.159-0.542
			c-0.206-0.32-0.42-0.742-0.444-0.819C6.999,5.372,8.494,5,9.619,5h0.725c0.71,0,1.567,0.152,2.103,1.057
			c0.541-0.362,1.146-0.635,1.813-0.811C13.234,3.283,11.328,3,10.343,3H9.619c-1.389,0-4.62,0.544-4.62,5.586
			c0,0.506,0.301,1.138,0.605,1.648c0.014,0.88,0.141,2.369,1.33,3.239c-0.031,0.333-0.084,0.407-0.087,0.411
			c-0.062,0.068-0.428,0.194-0.694,0.287c-0.354,0.123-0.776,0.27-1.279,0.493c-0.249,0.111-0.486,0.212-0.71,0.309
			C2.537,15.671,1,16.33,1,18.374V20c0,0.552,0.448,1,1,1s1-0.448,1-1v-1.626c0-0.637,0.237-0.827,1.952-1.563
			c0.231-0.1,0.477-0.205,0.734-0.319c0.44-0.196,0.811-0.323,1.12-0.43C8.268,15.556,8.957,15.08,8.957,12.908z"/>
		<path d="M27.814,14.664c-0.322-0.135-0.624-0.231-0.901-0.317c-0.633-0.198-0.83-0.26-0.889-0.785
			c1.612-0.736,1.468-2.084,1.377-2.931c-0.011-0.102-0.022-0.207-0.031-0.313c0.4-0.514,0.782-1.155,0.782-1.731
			C28.152,3.726,25.304,3,23.606,3h-0.725c-0.983,0-2.882,0.281-3.913,2.226c0.597,0.151,1.23,0.401,1.838,0.795
			C21.345,5.144,22.184,5,22.882,5h0.725c1.768,0,2.532,1.053,2.546,3.517c-0.066,0.165-0.321,0.538-0.553,0.806
			c-0.158,0.182-0.245,0.415-0.245,0.656c0,0.298,0.029,0.588,0.059,0.865c0.091,0.857,0.091,0.857-0.66,1.049
			C24.31,12.005,24,12.414,24,12.871c0,2.464,1.004,2.974,2.316,3.384c0.222,0.069,0.464,0.144,0.722,0.252
			C28.597,17.163,29,17.546,29,18.374V20c0,0.552,0.448,1,1,1s1-0.448,1-1v-1.626C31,16.003,29.083,15.197,27.814,14.664z"/>
		<path d="M23.608,21.842l-0.292-0.127c-0.495-0.208-0.958-0.341-1.391-0.459c-1.168-0.318-1.657-0.466-1.788-1.58
			C21.929,18.728,22,17.039,22,15.654v-0.109c0-0.641,0.945-1.596,0.945-2.323C22.945,6.938,19.271,6,17.144,6h-0.959
			c-3.679,0-5.79,2.632-5.79,7.222c0,0.639,0.45,1.545,0.799,2.151c0.01,1.138,0.142,3.192,1.788,4.277
			c-0.018,1.068-0.149,1.117-1.101,1.478c-0.382,0.145-0.842,0.319-1.396,0.565l-0.366,0.162C7.639,22.955,6,23.681,6,26.327V28
			c0,0.552,0.448,1,1,1s1-0.448,1-1v-1.673c0-1.262,0.368-1.508,2.929-2.642l0.369-0.164c0.512-0.228,0.938-0.389,1.292-0.522
			c1.911-0.724,2.396-1.206,2.396-3.943c0-0.402-0.241-0.766-0.612-0.922c-0.849-0.357-1.179-1.208-1.179-3.035
			c0-0.183-0.05-0.363-0.146-0.519c-0.315-0.52-0.627-1.181-0.653-1.357C12.395,8,15.247,8,16.185,8h0.959
			c2.521,0,3.695,1.659,3.698,5.177c-0.041,0.223-0.445,0.904-0.849,1.429c-0.135,0.175-0.208,0.39-0.208,0.61l0.003,0.461
			c0.018,1.57-0.025,2.04-1.109,2.406C18.273,18.221,18,18.616,18,19.045c0,3.227,1.934,3.755,3.347,4.14
			c0.391,0.106,0.795,0.217,1.168,0.374l0.311,0.13c1.918,0.8,3.175,1.415,3.175,2.638V28c0,0.552,0.448,1,1,1s1-0.448,1-1v-1.673
			C28,23.679,25.571,22.661,23.608,21.842z"/>
	</g>
</g>
</svg>
