<?xml version="1.0" encoding="utf-8"?>
<!-- Generator: Adobe Illustrator 17.1.0, SVG Export Plug-In . SVG Version: 6.00 Build 0)  -->
<!DOCTYPE svg PUBLIC "-//W3C//DTD SVG 1.1//EN" "http://www.w3.org/Graphics/SVG/1.1/DTD/svg11.dtd">
<svg version="1.1" xmlns="http://www.w3.org/2000/svg" xmlns:xlink="http://www.w3.org/1999/xlink" x="0px" y="0px"
	 viewBox="0 0 32 32" enable-background="new 0 0 32 32" xml:space="preserve">
<g id="line" display="none">
	<g display="inline">
		<g>
			<path fill="#FFFFFF" d="M6.625,30c-1.285,0-2.354-0.444-3.268-1.357C2.444,27.729,2,26.661,2,25.375V6.625
				C2,5.34,2.444,4.271,3.357,3.357S5.34,2,6.625,2h18.75c1.285,0,2.354,0.444,3.268,1.357C29.556,4.271,30,5.34,30,6.625v18.75
				c0,1.285-0.444,2.354-1.357,3.267C27.729,29.556,26.66,30,25.375,30H6.625z M6.563,14.376c0.118,0.194,0.211,0.388,0.285,0.59
				c0.089,0.244,0.178,0.53,0.267,0.857c0.11,0.403,0.203,0.699,0.276,0.889c0.203,0.547,0.541,1.743,0.999,3.539
				c0.483,1.959,0.862,3.264,1.157,3.98c0.653,1.54,1.508,2.539,2.544,2.98c0.04,0.017,0.081,0.032,0.123,0.043
				c0.385,0.107,0.775,0.162,1.159,0.162c0.338,0,0.679-0.042,1.013-0.125c0.644-0.161,1.238-0.408,1.767-0.734
				c1.795-1.055,3.537-2.701,5.16-4.883c1.391-1.859,2.562-3.846,3.48-5.902c0.932-2.088,1.482-3.607,1.68-4.644
				c0.264-1.4,0.06-2.538-0.606-3.385c-0.72-0.899-1.824-1.352-3.287-1.352c-0.401,0-0.837,0.035-1.297,0.103
				c-0.316,0.056-0.642,0.153-1.022,0.303c-0.375,0.149-0.796,0.371-1.287,0.679c-0.479,0.3-0.948,0.652-1.392,1.047
				c-0.464,0.412-0.912,0.936-1.329,1.558c-0.421,0.628-0.754,1.312-0.99,2.034c-0.104,0.319-0.041,0.669,0.167,0.932
				c0.191,0.24,0.479,0.378,0.783,0.378c0.029,0,0.058-0.001,0.087-0.004c0.211-0.019,0.409-0.028,0.592-0.028
				c0.674,0,0.915,0.129,0.973,0.169c0.039,0.042,0.15,0.328,0.087,1.018c-0.036,0.372-0.223,1.099-0.909,2.425
				c-0.671,1.216-1.01,1.526-1.097,1.592c-0.054,0.04-0.096,0.055-0.107,0.058c0.001-0.002-0.093-0.032-0.262-0.213
				c-0.208-0.217-0.381-0.521-0.521-0.915c-0.165-0.459-0.273-0.872-0.322-1.226c-0.058-0.415-0.122-0.951-0.191-1.609
				c-0.074-0.691-0.131-1.17-0.172-1.439c-0.417-2.344-0.599-3.036-0.699-3.354c-0.191-0.588-0.472-1.137-0.84-1.639
				c-0.439-0.596-0.947-0.982-1.51-1.149c-0.309-0.087-0.617-0.129-0.929-0.129c-0.746,0-1.533,0.24-2.341,0.713
				C7.282,8.153,6.358,8.868,5.225,9.884c-1.039,0.932-1.812,1.577-2.298,1.917C2.659,11.989,2.5,12.295,2.5,12.621v0.137
				c0,0.378,0.213,0.724,0.551,0.894c0.024,0.012,0.051,0.06,0.062,0.08c0.346,0.654,0.812,0.856,1.142,0.911
				c0.123,0.018,0.23,0.026,0.344,0.026c0.358,0,0.754-0.076,1.209-0.232c0.334-0.114,0.558-0.147,0.694-0.152
				C6.517,14.304,6.538,14.333,6.563,14.376z"/>
			<path d="M25.375,3c1.02,0,1.834,0.338,2.56,1.064C28.662,4.791,29,5.605,29,6.625v18.75c0,1.02-0.338,1.834-1.064,2.56
				C27.209,28.662,26.395,29,25.375,29H6.625c-1.021,0-1.834-0.338-2.561-1.065C3.338,27.209,3,26.396,3,25.375V15.143
				c0.413,0.321,0.836,0.444,1.135,0.493c0.146,0.021,0.301,0.032,0.464,0.032c0.42,0,0.865-0.075,1.356-0.228
				c0.064,0.186,0.129,0.403,0.196,0.646c0.119,0.438,0.217,0.752,0.298,0.959c0.135,0.365,0.414,1.261,0.969,3.438
				c0.505,2.046,0.888,3.359,1.214,4.149c0.753,1.776,1.786,2.954,3.069,3.501c0.08,0.034,0.162,0.063,0.245,0.086
				c0.472,0.132,0.953,0.199,1.429,0.199c0.42,0,0.842-0.052,1.255-0.155c0.743-0.186,1.433-0.473,2.013-0.831
				c1.929-1.134,3.771-2.87,5.471-5.155c1.436-1.92,2.646-3.971,3.594-6.096c0.963-2.159,1.535-3.75,1.75-4.869
				c0.319-1.694,0.048-3.102-0.814-4.198C26.015,6.328,24.8,5.393,22.58,5.393c-0.45,0-0.935,0.038-1.443,0.113
				c-0.018,0.003-0.037,0.006-0.055,0.009c-0.356,0.063-0.744,0.179-1.19,0.355c-0.432,0.171-0.905,0.42-1.447,0.76
				c-0.527,0.33-1.041,0.716-1.525,1.146c-0.528,0.468-1.032,1.057-1.496,1.749c-0.209,0.311-0.398,0.635-0.567,0.969
				c-0.104-0.468-0.177-0.727-0.234-0.911c-0.221-0.681-0.551-1.325-0.984-1.916c-0.569-0.774-1.252-1.283-2.057-1.522
				c-0.383-0.108-0.782-0.162-1.186-0.162c-0.926,0-1.883,0.286-2.855,0.856C6.714,7.327,5.739,8.08,4.557,9.14
				C3.867,9.759,3.365,10.188,3,10.485v-3.86c0-1.021,0.338-1.834,1.065-2.561S5.604,3,6.625,3H25.375 M15.506,14.296
				c0.224,0.085,0.464,0.13,0.708,0.13c0.058,0,0.116-0.003,0.174-0.008c0.181-0.016,0.349-0.024,0.505-0.024
				c0.025,0,0.049,0,0.072,0.001c-0.002,0.027-0.004,0.055-0.007,0.084c-0.014,0.148-0.113,0.73-0.789,2.043
				c-0.091,0.164-0.174,0.309-0.25,0.436c-0.097-0.299-0.162-0.566-0.194-0.794c-0.056-0.407-0.119-0.933-0.188-1.579
				C15.527,14.485,15.516,14.389,15.506,14.296 M25.375,1H6.625C5.075,1,3.75,1.55,2.65,2.65C1.55,3.751,1,5.076,1,6.625v18.75
				c0,1.55,0.55,2.874,1.65,3.974C3.75,30.45,5.075,31,6.625,31h18.75c1.55,0,2.874-0.55,3.975-1.65c1.1-1.1,1.65-2.425,1.65-3.974
				V6.625c0-1.549-0.55-2.874-1.65-3.975C28.249,1.55,26.925,1,25.375,1L25.375,1z M16.215,12.426
				c0.208-0.638,0.498-1.234,0.869-1.787c0.371-0.553,0.758-1.009,1.162-1.367c0.403-0.358,0.823-0.674,1.26-0.948
				c0.436-0.273,0.81-0.472,1.123-0.595c0.312-0.124,0.579-0.205,0.801-0.244c0.413-0.061,0.797-0.092,1.15-0.092
				c1.15,0,1.984,0.324,2.502,0.971c0.482,0.612,0.618,1.471,0.41,2.578c-0.182,0.951-0.719,2.425-1.611,4.424
				c-0.892,1.999-2.015,3.903-3.369,5.713c-1.55,2.083-3.177,3.626-4.883,4.629c-0.443,0.273-0.937,0.479-1.485,0.615
				c-0.255,0.064-0.512,0.096-0.77,0.096c-0.295,0-0.592-0.042-0.89-0.125c-0.795-0.338-1.465-1.152-2.012-2.441
				c-0.274-0.664-0.645-1.947-1.114-3.847c-0.469-1.836-0.813-3.054-1.035-3.653c-0.065-0.169-0.146-0.432-0.244-0.791
				c-0.098-0.358-0.196-0.67-0.293-0.937c-0.098-0.267-0.218-0.517-0.361-0.752c-0.221-0.378-0.492-0.573-0.81-0.586
				c-0.025-0.001-0.051-0.001-0.077-0.001c-0.303,0-0.655,0.069-1.056,0.207c-0.346,0.119-0.64,0.178-0.884,0.178
				c-0.064,0-0.124-0.004-0.181-0.012c-0.156-0.026-0.296-0.156-0.42-0.39c-0.124-0.235-0.29-0.403-0.498-0.508v-0.137
				c0.521-0.364,1.318-1.028,2.393-1.992c1.074-0.963,1.963-1.653,2.666-2.07c0.656-0.384,1.268-0.576,1.836-0.576
				c0.222,0,0.437,0.029,0.645,0.088c0.352,0.104,0.68,0.364,0.987,0.781c0.305,0.417,0.537,0.866,0.693,1.348
				c0.143,0.456,0.364,1.523,0.664,3.203c0.039,0.261,0.094,0.726,0.166,1.396c0.071,0.671,0.137,1.218,0.195,1.641
				c0.059,0.423,0.182,0.898,0.371,1.426c0.189,0.527,0.432,0.948,0.732,1.26c0.33,0.353,0.662,0.53,0.997,0.53
				c0.233,0,0.467-0.086,0.702-0.256c0.365-0.273,0.827-0.918,1.387-1.934c0.612-1.184,0.95-2.116,1.016-2.793
				c0.091-0.989-0.082-1.634-0.518-1.933c-0.335-0.23-0.847-0.344-1.538-0.344C16.684,12.394,16.458,12.405,16.215,12.426
				L16.215,12.426z"/>
		</g>
	</g>
</g>
<g id="rasterized">
	<g>
		<g>
			<g>
				<path d="M25.375,3c1.02,0,1.834,0.338,2.56,1.064C28.662,4.791,29,5.605,29,6.625v18.75c0,1.02-0.338,1.834-1.064,2.56
					C27.209,28.662,26.395,29,25.375,29H6.625c-1.021,0-1.834-0.338-2.561-1.065C3.338,27.209,3,26.396,3,25.375V15.143
					c0.413,0.321,0.836,0.444,1.135,0.493c0.146,0.021,0.301,0.032,0.464,0.032c0.42,0,0.865-0.075,1.356-0.228
					c0.064,0.186,0.129,0.403,0.196,0.646c0.119,0.438,0.217,0.752,0.298,0.959c0.135,0.365,0.414,1.261,0.969,3.438
					c0.505,2.046,0.888,3.359,1.214,4.149c0.753,1.776,1.786,2.954,3.069,3.501c0.08,0.034,0.162,0.063,0.245,0.086
					c0.472,0.132,0.953,0.199,1.429,0.199c0.42,0,0.842-0.052,1.255-0.155c0.743-0.186,1.433-0.473,2.013-0.831
					c1.929-1.134,3.771-2.87,5.471-5.155c1.436-1.92,2.646-3.971,3.594-6.096c0.963-2.159,1.535-3.75,1.75-4.869
					c0.319-1.694,0.048-3.102-0.814-4.198C26.015,6.328,24.8,5.393,22.58,5.393c-0.45,0-0.935,0.038-1.443,0.113
					c-0.018,0.003-0.037,0.006-0.055,0.009c-0.356,0.063-0.744,0.179-1.19,0.355c-0.432,0.171-0.905,0.42-1.447,0.76
					c-0.527,0.33-1.041,0.716-1.525,1.146c-0.528,0.468-1.032,1.057-1.496,1.749c-0.209,0.311-0.398,0.635-0.567,0.969
					c-0.104-0.468-0.177-0.727-0.234-0.911c-0.221-0.681-0.551-1.325-0.984-1.916c-0.569-0.774-1.252-1.283-2.057-1.522
					c-0.383-0.108-0.782-0.162-1.186-0.162c-0.926,0-1.883,0.286-2.855,0.856C6.714,7.327,5.739,8.08,4.557,9.14
					C3.867,9.759,3.365,10.188,3,10.485v-3.86c0-1.021,0.338-1.834,1.065-2.561S5.604,3,6.625,3H25.375 M15.506,14.296
					c0.224,0.085,0.464,0.13,0.708,0.13c0.058,0,0.116-0.003,0.174-0.008c0.181-0.016,0.349-0.024,0.505-0.024
					c0.025,0,0.049,0,0.072,0.001c-0.002,0.027-0.004,0.055-0.007,0.084c-0.014,0.148-0.113,0.73-0.789,2.043
					c-0.091,0.164-0.174,0.309-0.25,0.436c-0.097-0.299-0.162-0.566-0.194-0.794c-0.056-0.407-0.119-0.933-0.188-1.579
					C15.527,14.485,15.516,14.389,15.506,14.296 M25.375,1H6.625C5.075,1,3.75,1.55,2.65,2.65C1.55,3.751,1,5.076,1,6.625v18.75
					c0,1.55,0.55,2.874,1.65,3.974C3.75,30.45,5.075,31,6.625,31h18.75c1.55,0,2.874-0.55,3.975-1.65c1.1-1.1,1.65-2.425,1.65-3.974
					V6.625c0-1.549-0.55-2.874-1.65-3.975C28.249,1.55,26.925,1,25.375,1L25.375,1z M16.215,12.426
					c0.208-0.638,0.498-1.234,0.869-1.787c0.371-0.553,0.758-1.009,1.162-1.367c0.403-0.358,0.823-0.674,1.26-0.948
					c0.436-0.273,0.81-0.472,1.123-0.595c0.312-0.124,0.579-0.205,0.801-0.244c0.413-0.061,0.797-0.092,1.15-0.092
					c1.15,0,1.984,0.324,2.502,0.971c0.482,0.612,0.618,1.471,0.41,2.578c-0.182,0.951-0.719,2.425-1.611,4.424
					c-0.892,1.999-2.015,3.903-3.369,5.713c-1.55,2.083-3.177,3.626-4.883,4.629c-0.443,0.273-0.937,0.479-1.485,0.615
					c-0.255,0.064-0.512,0.096-0.77,0.096c-0.295,0-0.592-0.042-0.89-0.125c-0.795-0.338-1.465-1.152-2.012-2.441
					c-0.274-0.664-0.645-1.947-1.114-3.847c-0.469-1.836-0.813-3.054-1.035-3.653c-0.065-0.169-0.146-0.432-0.244-0.791
					c-0.098-0.358-0.196-0.67-0.293-0.937c-0.098-0.267-0.218-0.517-0.361-0.752c-0.221-0.378-0.492-0.573-0.81-0.586
					c-0.025-0.001-0.051-0.001-0.077-0.001c-0.303,0-0.655,0.069-1.056,0.207c-0.346,0.119-0.64,0.178-0.884,0.178
					c-0.064,0-0.124-0.004-0.181-0.012c-0.156-0.026-0.296-0.156-0.42-0.39c-0.124-0.235-0.29-0.403-0.498-0.508v-0.137
					c0.521-0.364,1.318-1.028,2.393-1.992c1.074-0.963,1.963-1.653,2.666-2.07c0.656-0.384,1.268-0.576,1.836-0.576
					c0.222,0,0.437,0.029,0.645,0.088c0.352,0.104,0.68,0.364,0.987,0.781c0.305,0.417,0.537,0.866,0.693,1.348
					c0.143,0.456,0.364,1.523,0.664,3.203c0.039,0.261,0.094,0.726,0.166,1.396c0.071,0.671,0.137,1.218,0.195,1.641
					c0.059,0.423,0.182,0.898,0.371,1.426c0.189,0.527,0.432,0.948,0.732,1.26c0.33,0.353,0.662,0.53,0.997,0.53
					c0.233,0,0.467-0.086,0.702-0.256c0.365-0.273,0.827-0.918,1.387-1.934c0.612-1.184,0.95-2.116,1.016-2.793
					c0.091-0.989-0.082-1.634-0.518-1.933c-0.335-0.23-0.847-0.344-1.538-0.344C16.684,12.394,16.458,12.405,16.215,12.426
					L16.215,12.426z"/>
			</g>
		</g>
	</g>
</g>
</svg>
