<?xml version="1.0" encoding="utf-8"?>
<!-- Generator: Adobe Illustrator 17.1.0, SVG Export Plug-In . SVG Version: 6.00 Build 0)  -->
<!DOCTYPE svg PUBLIC "-//W3C//DTD SVG 1.1//EN" "http://www.w3.org/Graphics/SVG/1.1/DTD/svg11.dtd">
<svg version="1.1" xmlns="http://www.w3.org/2000/svg" xmlns:xlink="http://www.w3.org/1999/xlink" x="0px" y="0px"
	 viewBox="0 0 32 32" enable-background="new 0 0 32 32" xml:space="preserve">
<g id="line" display="none">
	<g display="inline">
		<path fill="none" stroke="#000000" stroke-width="2" stroke-linecap="round" stroke-linejoin="round" stroke-miterlimit="10" d="
			M29.984,13.656C29.994,14.218,30,15,30,16s-0.006,1.781-0.016,2.344c-0.01,0.563-0.055,1.274-0.132,2.133
			c-0.079,0.859-0.196,1.628-0.352,2.305c-0.166,0.76-0.526,1.401-1.078,1.922c-0.553,0.521-1.199,0.823-1.938,0.906
			C24.172,25.87,20.677,26,16,26s-8.172-0.13-10.484-0.391c-0.741-0.083-1.389-0.385-1.946-0.906
			c-0.557-0.521-0.919-1.162-1.086-1.922c-0.146-0.677-0.257-1.446-0.336-2.305c-0.077-0.859-0.122-1.57-0.132-2.133
			C2.005,17.781,2,17,2,16s0.005-1.782,0.016-2.344c0.01-0.563,0.055-1.274,0.132-2.133c0.079-0.86,0.196-1.628,0.352-2.305
			c0.166-0.76,0.525-1.401,1.078-1.922s1.197-0.823,1.938-0.906C7.828,6.13,11.323,6,16,6s8.172,0.13,10.484,0.391
			c0.739,0.083,1.388,0.385,1.946,0.906c0.557,0.521,0.918,1.162,1.086,1.922c0.146,0.677,0.257,1.445,0.336,2.305
			C29.929,12.383,29.974,13.094,29.984,13.656z M22,16c0-0.385-0.156-0.667-0.468-0.844l-8-4.999
			c-0.322-0.208-0.662-0.219-1.015-0.032C12.172,10.313,12,10.604,12,11v10c0,0.396,0.172,0.688,0.516,0.875
			C12.682,21.959,12.844,22,13,22c0.208,0,0.385-0.051,0.531-0.156l8-5C21.844,16.667,22,16.385,22,16z"/>
	</g>
</g>
<g id="rasterized">
	<g>
		<g>
			<path d="M16,27c-4.698,0-8.263-0.134-10.596-0.397c-0.955-0.107-1.802-0.5-2.517-1.169c-0.706-0.659-1.17-1.48-1.379-2.439
				c-0.154-0.712-0.273-1.528-0.355-2.427c-0.081-0.9-0.125-1.621-0.136-2.206C1.004,17.796,1,17.009,1,16s0.004-1.797,0.016-2.365
				c0.011-0.582,0.055-1.303,0.136-2.201c0.083-0.899,0.208-1.72,0.374-2.439c0.208-0.948,0.668-1.768,1.367-2.426
				c0.71-0.67,1.556-1.064,2.512-1.171C7.737,5.134,11.302,5,16,5s8.263,0.134,10.596,0.397c0.953,0.107,1.8,0.5,2.516,1.168
				c0.704,0.658,1.168,1.478,1.38,2.438c0.154,0.715,0.273,1.531,0.355,2.429c0.081,0.899,0.125,1.621,0.136,2.206
				C30.994,14.205,31,14.992,31,16s-0.006,1.794-0.016,2.362c-0.011,0.585-0.055,1.306-0.136,2.204
				c-0.083,0.9-0.208,1.721-0.374,2.439c-0.208,0.947-0.668,1.766-1.367,2.425c-0.71,0.67-1.556,1.064-2.513,1.172
				C24.263,26.866,20.698,27,16,27z M16,7C11.377,7,7.888,7.129,5.628,7.385c-0.524,0.059-0.97,0.268-1.364,0.64
				C3.858,8.407,3.601,8.867,3.477,9.433c-0.148,0.643-0.259,1.374-0.333,2.182c-0.075,0.837-0.119,1.531-0.128,2.06
				C3.004,14.234,3,15.008,3,16s0.004,1.765,0.016,2.323c0.009,0.532,0.053,1.226,0.128,2.064c0.075,0.817,0.182,1.552,0.318,2.183
				c0.123,0.56,0.381,1.02,0.791,1.402c0.399,0.374,0.849,0.583,1.375,0.643C7.888,24.871,11.377,25,16,25s8.112-0.129,10.372-0.385
				c0.524-0.059,0.97-0.268,1.364-0.64c0.406-0.383,0.664-0.844,0.787-1.408c0.148-0.642,0.259-1.373,0.333-2.182
				c0.075-0.836,0.118-1.53,0.127-2.06C28.994,17.767,29,16.993,29,16s-0.006-1.768-0.016-2.326
				c-0.009-0.529-0.053-1.223-0.128-2.062c-0.075-0.816-0.182-1.551-0.318-2.183c-0.124-0.561-0.382-1.021-0.791-1.402
				c-0.4-0.374-0.851-0.584-1.375-0.643C24.112,7.129,20.623,7,16,7z M13,23c-0.315,0-0.63-0.078-0.936-0.233
				C11.369,22.389,11,21.767,11,21V11c0-0.765,0.368-1.388,1.037-1.752c0.697-0.369,1.414-0.333,2.037,0.069l7.987,4.991
				C22.654,14.644,23,15.252,23,16c0,0.749-0.347,1.358-0.976,1.714l-7.962,4.978C13.795,22.884,13.421,23,13,23z M13.026,11.02
				L13,21l8.001-5.004L13.026,11.02z"/>
		</g>
	</g>
</g>
</svg>
